<?xml version="1.0" encoding="iso-8859-1"?>
<!-- Generator: Adobe Illustrator 19.0.0, SVG Export Plug-In . SVG Version: 6.00 Build 0)  -->
<svg version="1.1" id="Capa_1" xmlns="http://www.w3.org/2000/svg" xmlns:xlink="http://www.w3.org/1999/xlink" x="0px"
     y="0px"
     viewBox="0 0 512 512" style="enable-background:new 0 0 512 512;" xml:space="preserve">
<path style="fill:#FECB66;" d="M409.6,366.933c14.933-34.901,11.093-86.869-12.203-116.821l0,0
	c-13.867-17.869-21.564-39.757-21.931-62.379V128C375.467,62.02,321.98,8.533,256,8.533l0,0C190.02,8.533,136.533,62.02,136.533,128
	v62.72c-0.017,20.181-6.741,39.782-19.115,55.723l-5.461,6.997c-21.504,27.648-25.173,82.176-9.557,113.493H409.6z"/>
    <path style="fill:#F5AD76;" d="M179.2,102.4c0.358-27.358,6.801-54.289,18.859-78.848C160.094,44.604,136.542,84.591,136.533,128
	v62.72c-0.017,20.181-6.741,39.782-19.115,55.723l-5.461,6.997c-21.504,27.648-25.173,82.176-9.557,113.493h145.067L204.8,247.467
	c-11.776-41.131-23.467-85.845-25.6-128.597C179.2,113.237,179.2,107.691,179.2,102.4z"/>
    <path style="fill:#FEDAC6;" d="M435.2,512V410.112c0.009-34.415-25.591-63.454-59.733-67.755l-61.781-7.68
	c-8.585-1.084-15.002-8.414-14.933-17.067v-44.544h-85.419v44.629c0.068,8.653-6.349,15.983-14.933,17.067l-61.781,7.68
	c-34.142,4.301-59.742,33.34-59.733,67.755V512H435.2z"/>
    <g>
	<path style="fill:#3CACDE;"
          d="M179.2,337.067l-42.667,5.291c-34.142,4.301-59.742,33.34-59.733,67.755V512h102.4V337.067z"/>
        <path style="fill:#3CACDE;" d="M375.467,342.357l-42.667-5.291V512h102.4V410.112C435.209,375.697,409.609,346.658,375.467,342.357
		z"/>
</g>
    <path style="fill:#329AC7;" d="M110.933,351.061C89.83,363.247,76.826,385.749,76.8,410.112V512h34.133V351.061z"/>
    <path style="fill:#EBEBEB;"
          d="M322.56,335.787L256,452.267l-66.56-116.48l-10.24,1.28V512h153.6V337.067L322.56,335.787z"/>
    <path style="fill:#DBDBDB;" d="M213.333,375.467l-23.893-39.68l-10.24,1.28V512h34.133V375.467z"/>
    <path style="fill:#F5C4B0;"
          d="M298.667,307.2v-34.133h-85.333V307.2C239.215,324.275,272.785,324.275,298.667,307.2z"/>
    <g>
	<path style="fill:#FEDAC6;" d="M358.4,145.067h-17.067v51.2H358.4c14.14,0,25.6-11.46,25.6-25.6
		C384,156.527,372.54,145.067,358.4,145.067z"/>
        <path style="fill:#FEDAC6;" d="M349.867,145.067l-3.499,59.136c-2.842,48.247-42.803,85.922-91.136,85.931l0,0
		c-47.701-0.034-87.356-36.753-91.051-84.309l-2.048-26.624c0,0,85.333-51.2,128-110.933
		C290.133,68.267,315.733,119.467,349.867,145.067z"/>
</g>
    <path style="fill:#F5C4B0;" d="M194.048,157.952c-18.688,13.312-31.915,21.248-31.915,21.248l2.048,26.624
	c2.466,32.529,22.17,61.252,51.627,75.264C198.673,242.415,191.206,200.158,194.048,157.952z"/>
    <circle cx="204.8" cy="162.133" r="17.067"/>
    <circle cx="307.2" cy="162.133" r="17.067"/>
    <path d="M264.533,213.333h-25.6c-2.961,0-5.7-1.536-7.262-4.045c-1.553-2.517-1.698-5.658-0.375-8.303l17.067-34.133l15.266,7.637
	l-10.889,21.777h11.793V213.333z"/>
    <path d="M255.232,298.667c-51.814-0.034-95.539-40.525-99.558-92.177l-2.048-26.633c-0.247-3.217,1.348-6.306,4.113-7.97
	c0.836-0.503,84.335-51.021,125.449-108.578c1.732-2.432,4.574-3.789,7.612-3.55c2.987,0.23,5.623,2.005,6.963,4.685
	c0.247,0.495,25.148,49.732,57.225,73.796c2.295,1.715,3.575,4.471,3.396,7.33l-3.499,59.136
	C351.787,257.382,308.011,298.658,255.232,298.667z M171.042,183.731l1.647,21.436c3.328,42.829,39.586,76.399,82.543,76.433
	c43.742-0.009,80.034-34.227,82.611-77.892l3.234-54.673c-23.689-19.234-42.692-48.777-52.122-65.118
	C249.882,132.489,188.297,172.902,171.042,183.731z"/>
    <path d="M94.635,361.941c-16.794-36.787-12.834-80.23,10.325-113.391l5.726-7.356c11.145-14.362,17.289-32.29,17.314-50.483V128
	C128,57.421,185.421,0,256,0s128,57.421,128,128v25.6h-17.067V128c0-61.167-49.766-110.933-110.933-110.933
	S145.067,66.833,145.067,128v62.72c-0.017,21.965-7.45,43.605-20.907,60.954l-5.47,7.014c-19.456,27.861-22.818,64.853-8.525,96.171
	L94.635,361.941z"/>
    <path d="M417.434,361.788l-15.667-6.784l1.365-3.157c13.696-32,8.926-68.992-12.467-96.503
	c-14.916-19.217-23.339-43.179-23.731-67.482L384,187.588c0.333,20.634,7.484,40.977,20.139,57.284
	c25.199,32.401,30.814,75.981,14.669,113.724L417.434,361.788z"/>
    <path d="M358.4,204.8h-8.533v-17.067h8.533c9.412,0,17.067-7.654,17.067-17.067c0-9.412-7.654-17.067-17.067-17.067h-8.533v-17.067
	h8.533c18.825,0,34.133,15.309,34.133,34.133S377.225,204.8,358.4,204.8z"/>
    <path d="M245.444,247.467c-0.009,0-0.017,0-0.026,0h-6.485V230.4h6.485c0.009,0,0.017,0,0.026,0c11.17,0,22.357-2.637,32.341-7.637
	l7.637,15.266C273.075,244.207,259.251,247.467,245.444,247.467z"/>
    <path d="M256,460.8c-3.063,0-5.888-1.638-7.407-4.301l-68.267-119.467l14.814-8.465L256,435.064l60.86-106.496l14.814,8.465
	l-68.267,119.467C261.888,459.162,259.063,460.8,256,460.8z"/>
    <path d="M85.333,512H68.267V410.112c-0.009-38.622,28.877-71.39,67.2-76.22l61.798-7.68c4.275-0.538,7.484-4.207,7.458-8.533V281.6
	h17.067v36.011c0.102,12.919-9.532,23.927-22.4,25.532l-61.79,7.68c-29.807,3.755-52.275,29.244-52.267,59.29V512z"/>
    <path d="M443.733,512h-17.067V410.112c0.009-30.046-22.46-55.535-52.267-59.281l-61.764-7.68
	c-12.885-1.604-22.519-12.621-22.417-25.6V281.6h17.067v36.011c-0.034,4.395,3.174,8.064,7.458,8.602l61.773,7.68
	c38.332,4.821,67.226,37.589,67.217,76.22V512z"/>
    <rect x="170.667" y="332.8" width="17.067" height="179.2"/>
    <rect x="324.267" y="332.8" width="17.067" height="179.2"/>
    <g>
</g>
    <g>
</g>
    <g>
</g>
    <g>
</g>
    <g>
</g>
    <g>
</g>
    <g>
</g>
    <g>
</g>
    <g>
</g>
    <g>
</g>
    <g>
</g>
    <g>
</g>
    <g>
</g>
    <g>
</g>
    <g>
</g>
</svg>
