<?xml version="1.0" encoding="iso-8859-1"?>
<!-- Generator: Adobe Illustrator 19.0.0, SVG Export Plug-In . SVG Version: 6.00 Build 0)  -->
<svg version="1.1" id="Capa_1" xmlns="http://www.w3.org/2000/svg" xmlns:xlink="http://www.w3.org/1999/xlink" x="0px"
     y="0px"
     viewBox="0 0 512 512" style="enable-background:new 0 0 512 512;" xml:space="preserve">
<path style="fill:#F288B7;" d="M375.467,342.357l-16.299-1.963l-0.768,0.939c-42.419,56.55-122.65,68.019-179.2,25.6
	c-9.702-7.279-18.321-15.898-25.6-25.6l-0.768-0.939l-16.213,1.963c-34.142,4.301-59.742,33.34-59.733,67.755V512H435.2V410.112
	C435.209,375.697,409.609,346.658,375.467,342.357z"/>
    <path style="fill:#ED7BB2;" d="M128,344.064C97.877,351.838,76.826,379,76.8,410.112V512H128V344.064z"/>
    <g>
	<rect x="76.8" y="494.933" style="fill:#DB6EA2;" width="358.4" height="17.067"/>
        <rect x="76.8" y="452.267" style="fill:#DB6EA2;" width="358.4" height="17.067"/>
        <rect x="76.8" y="409.6" style="fill:#DB6EA2;" width="358.4" height="17.067"/>
        <rect x="81.749" y="366.933" style="fill:#DB6EA2;" width="344.917" height="17.067"/>
</g>
    <path style="fill:#A15D30;" d="M358.4,85.333v51.2l-8.533,51.2v34.133c0,37.7,30.566,68.267,68.267,68.267V153.6
	C418.133,121.771,392.533,85.333,358.4,85.333z"/>
    <path style="fill:#8F4F24;" d="M401.067,265.045c-16.486-22.417-25.446-49.485-25.6-77.312V88.491
	c-5.461-2.048-11.238-3.115-17.067-3.157v51.2l-8.533,51.2v34.133c0,37.7,30.566,68.267,68.267,68.267v-1.024L401.067,265.045z"/>
    <path style="fill:#FEDAC6;" d="M358.4,341.333l0.683-0.939l-45.483-5.717c-8.585-1.084-15.002-8.414-14.933-17.067V281.6h-85.333
	v36.096c0.068,8.653-6.349,15.983-14.933,17.067l-45.568,5.717l0.768,0.853c42.419,56.55,122.65,68.019,179.2,25.6
	C342.502,359.654,351.121,351.036,358.4,341.333z"/>
    <path style="fill:#F5C4B0;"
          d="M298.667,302.933v-29.867h-85.333v29.867C239.215,320.009,272.785,320.009,298.667,302.933z"/>
    <path style="fill:#FEDAC6;" d="M349.867,136.533l-4.693,68.267c-2.099,47.727-41.404,85.333-89.173,85.333l0,0
	c-47.77,0-87.074-37.606-89.173-85.333l-4.693-68.267c0,0,51.2-51.2,59.733-76.8C221.867,59.733,298.667,128,349.867,136.533z"/>
    <path style="fill:#F5C4B0;" d="M162.133,136.533l4.693,68.267c1.357,33.041,20.907,62.609,50.773,76.8
	c-23.723-52.309-29.099-125.781-30.037-168.96C174.251,126.123,162.133,136.533,162.133,136.533z"/>
    <path style="fill:#A15D30;" d="M358.4,136.533l0.683-5.376c7.919-59.281-33.715-113.749-92.996-121.668
	c-4.762-0.64-9.557-0.956-14.353-0.956l0,0c-59.802-0.009-108.297,48.469-108.305,108.271c0,4.796,0.316,9.591,0.956,14.353
	l0.683,5.376h17.067c17.067-17.579,52.053-53.077,59.733-76.8c1.109,3.925,79.275,76.8,128,76.8H358.4z"/>
    <path style="fill:#F5C4B0;"
          d="M162.133,187.733H153.6c-14.14,0-25.6-11.46-25.6-25.6l0,0c0-14.14,11.46-25.6,25.6-25.6h8.533"/>
    <g>
	<path style="fill:#EBEBEB;" d="M213.333,187.733h-25.6c-14.14,0-25.6-11.46-25.6-25.6v-25.6h76.8v25.6
		C238.933,176.273,227.473,187.733,213.333,187.733z"/>
        <path style="fill:#EBEBEB;" d="M315.733,187.733h-25.6c-14.14,0-25.6-11.46-25.6-25.6v-25.6h76.8v25.6
		C341.333,176.273,329.873,187.733,315.733,187.733z"/>
</g>
    <path style="fill:#FEDAC6;"
          d="M349.867,187.733h8.533c14.14,0,25.6-11.46,25.6-25.6l0,0c0-14.14-11.46-25.6-25.6-25.6h-8.533"/>
    <path style="fill:#8F4F24;" d="M198.571,22.528c-38.605,21.692-60.075,64.742-54.187,108.629l0.683,5.376h17.067
	c9.131-9.131,23.04-23.04,35.328-37.973C194.645,73.267,195.021,47.727,198.571,22.528z"/>
    <path d="M349.867,145.067c-41.216,0-101.06-46.473-125.38-70.246c-13.329,24.764-40.602,52.036-56.32,67.746L156.1,130.5
	c16.154-16.162,49.775-49.775,57.668-73.463c1.186-3.55,4.48-6.127,8.294-5.837c3.055,0.068,5.794,1.766,7.245,4.352
	C235.87,63.65,307.524,128,349.867,128V145.067z"/>
    <rect x="238.933" y="128" width="25.6" height="17.067"/>
    <path d="M366.865,137.609l-16.93-2.15l0.683-5.376c0.589-4.42,0.887-8.866,0.887-13.278c-0.017-54.997-44.766-99.738-99.755-99.738
	c-0.009,0-0.009,0-0.017,0c-4.42,0-8.866,0.299-13.218,0.879c-26.411,3.524-49.869,17.126-66.048,38.298
	c-16.179,21.163-23.151,47.369-19.627,73.779l0.691,5.427l-16.93,2.15l-0.683-5.376c-4.122-30.874,4.036-61.559,22.989-86.357
	s46.421-40.721,77.346-44.851C241.348,0.35,246.562,0,251.733,0c0,0,0.009,0,0.017,0c31.198,0,60.527,12.143,82.594,34.202
	c22.067,22.059,34.219,51.396,34.227,82.603c0,5.163-0.341,10.368-1.024,15.471L366.865,137.609z"/>
    <path d="M253.303,212.898l-25.6-8.533c-4.335-1.442-6.758-6.042-5.504-10.445l17.067-59.733l16.41,4.693l-14.822,51.874
	l17.852,5.948L253.303,212.898z"/>
    <path d="M358.4,196.267h-8.533V179.2h8.533c9.412,0,17.067-7.654,17.067-17.067c0-9.412-7.654-17.067-17.067-17.067h-8.533V128
	h8.533c18.825,0,34.133,15.309,34.133,34.133S377.225,196.267,358.4,196.267z"/>
    <path d="M256,298.667c-52.471,0-95.386-41.071-97.698-93.491l-4.676-68.062l17.024-1.169l4.693,68.267
	C177.254,247.697,212.685,281.6,256,281.6s78.746-33.903,80.649-77.175l4.702-76.945l17.033,1.041l-4.693,76.8
	C351.394,257.604,308.471,298.667,256,298.667z"/>
    <path d="M162.133,196.267H153.6c-18.825,0-34.133-15.309-34.133-34.133S134.775,128,153.6,128h8.533v17.067H153.6
	c-9.412,0-17.067,7.654-17.067,17.067c0,9.412,7.654,17.067,17.067,17.067h8.533V196.267z"/>
    <path d="M245.444,238.933c-0.009,0-0.017,0-0.026,0h-6.485v-17.067h6.485c0.009,0,0.017,0,0.026,0
	c11.17,0,22.357-2.637,32.341-7.637l7.637,15.266C273.075,235.674,259.251,238.933,245.444,238.933z"/>
    <path d="M418.133,298.667c-42.351,0-76.8-34.449-76.8-76.8v-34.133H358.4v34.133c0,30.046,22.289,54.972,51.2,59.127V153.6
	c0-27.622-22.366-59.733-51.2-59.733V76.8c39.074,0,68.267,40.542,68.267,76.8v136.533
	C426.667,294.852,422.852,298.667,418.133,298.667z"/>
    <path d="M213.333,196.267h-25.6c-18.825,0-34.133-15.309-34.133-34.133v-25.6c0-4.71,3.823-8.533,8.533-8.533h76.8
	c4.71,0,8.533,3.823,8.533,8.533v25.6C247.467,180.958,232.158,196.267,213.333,196.267z M170.667,145.067v17.067
	c0,9.412,7.654,17.067,17.067,17.067h25.6c9.412,0,17.067-7.654,17.067-17.067v-17.067H170.667z"/>
    <path d="M315.733,196.267h-25.6c-18.825,0-34.133-15.309-34.133-34.133v-25.6c0-4.71,3.823-8.533,8.533-8.533h76.8
	c4.719,0,8.533,3.823,8.533,8.533v25.6C349.867,180.958,334.558,196.267,315.733,196.267z M273.067,145.067v17.067
	c0,9.412,7.654,17.067,17.067,17.067h25.6c9.412,0,17.067-7.654,17.067-17.067v-17.067H273.067z"/>
    <path d="M256.171,401.015c-41.549,0-82.603-18.842-109.397-54.571l13.653-10.232c19.149,25.523,47.095,42.069,78.686,46.583
	c31.565,4.497,63.044-3.541,88.576-22.69c9.062-6.801,17.092-14.831,23.893-23.893l13.653,10.232
	c-7.765,10.359-16.947,19.541-27.307,27.307C313.421,392.141,284.672,401.015,256.171,401.015z"/>
    <path d="M85.333,512H68.267V410.112c-0.009-38.622,28.877-71.39,67.2-76.22l61.798-7.68c4.275-0.538,7.484-4.207,7.458-8.533V281.6
	h17.067v36.011c0.102,12.919-9.532,23.927-22.4,25.532l-61.79,7.68c-29.807,3.755-52.275,29.244-52.267,59.29V512z"/>
    <path d="M443.733,512h-17.067V410.112c0.009-30.046-22.46-55.535-52.267-59.281l-61.764-7.68
	c-12.885-1.604-22.519-12.621-22.417-25.6V281.6h17.067v36.011c-0.034,4.395,3.174,8.064,7.458,8.602l61.773,7.68
	c38.332,4.821,67.226,37.589,67.217,76.22V512z"/>
    <circle cx="204.8" cy="153.6" r="17.067"/>
    <circle cx="307.2" cy="153.6" r="17.067"/>
    <g>
</g>
    <g>
</g>
    <g>
</g>
    <g>
</g>
    <g>
</g>
    <g>
</g>
    <g>
</g>
    <g>
</g>
    <g>
</g>
    <g>
</g>
    <g>
</g>
    <g>
</g>
    <g>
</g>
    <g>
</g>
    <g>
</g>
</svg>
