<?xml version="1.0" encoding="iso-8859-1"?>
<!-- Generator: Adobe Illustrator 19.0.0, SVG Export Plug-In . SVG Version: 6.00 Build 0)  -->
<svg version="1.1" id="Capa_1" xmlns="http://www.w3.org/2000/svg" xmlns:xlink="http://www.w3.org/1999/xlink" x="0px"
     y="0px"
     viewBox="0 0 512.006 512.006" style="enable-background:new 0 0 512.006 512.006;" xml:space="preserve">
<path style="fill:#DBDBDB;" d="M390.275,352.774l-59.221-7.424l-3.755,8.533c-16.939,39.398-62.609,57.609-102.007,40.67
	c-18.261-7.851-32.811-22.409-40.67-40.67l-3.755-8.533l-59.221,7.424c-25.788,3.2-45.082,25.216-44.885,51.2v108.032h358.4V403.632
	C435.186,377.776,415.935,355.965,390.275,352.774z"/>
    <path style="fill:#BFBFBF;" d="M76.76,408.923v103.083h34.133v-153.6C85.293,366.939,76.76,384.006,76.76,408.923z"/>
    <g>
	<rect x="76.76" y="409.606" style="fill:#8C8C8C;" width="358.4" height="17.067"/>
        <rect x="76.76" y="452.272" style="fill:#8C8C8C;" width="358.4" height="17.067"/>
        <rect x="76.76" y="494.939" style="fill:#8C8C8C;" width="358.4" height="17.067"/>
        <rect x="85.293" y="366.939" style="fill:#8C8C8C;" width="341.333" height="17.067"/>
</g>
    <path style="fill:#FEDAC6;" d="M255.96,401.072c31.044,0.017,59.11-18.483,71.339-47.019l3.755-8.533l-17.067-2.133
	c-8.585-1.084-15.002-8.414-14.933-17.067v-44.715h-85.76v44.629c0.068,8.653-6.349,15.983-14.933,17.067l-17.493,2.133l3.755,8.533
	C196.824,382.538,224.899,401.072,255.96,401.072z"/>
    <path style="fill:#F5C4B0;"
          d="M298.627,328.88v-47.275h-85.333v47.275C245.293,345.52,266.627,345.52,298.627,328.88z"/>
    <path style="fill:#70432C;" d="M366.893,136.539v-17.067c0-61.269-49.664-110.933-110.933-110.933l0,0
	c-61.269,0-110.933,49.664-110.933,110.933v42.667h221.867V136.539z"/>
    <path style="fill:#FEDAC6;" d="M349.827,136.539l-1.621,66.389c0.247,35.849-20.139,68.651-52.395,84.309l-17.067,8.533
	l16.128-8.107l-16.128,8.107c-14.396,7.185-31.343,7.185-45.739,0l-17.067-8.533c-32.256-15.659-52.642-48.461-52.395-84.309
	l-1.451-57.856l21.163-49.408c2.697-6.272,8.875-10.334,15.701-10.325h114.688c6.477,0,12.39,3.669,15.275,9.472L349.827,136.539z"
    />
    <path style="fill:#F5C4B0;" d="M196.227,213.339c-4.574-42.667-3.046-85.76,4.523-128h-1.792
	c-6.972-0.137-13.321,3.985-16.043,10.411l-20.821,49.323l1.621,57.941c-0.179,35.831,20.181,68.608,52.395,84.309l3.072,1.536
	l-5.888-11.093C202.029,257.968,199.811,237.744,196.227,213.339z"/>
    <circle style="fill:#5C3724;" cx="371.16" cy="46.939" r="38.4"/>
    <path style="fill:#4F2E20;" d="M349.827,17.072c0-0.597,0-1.195,0-1.792c-10.667,6.997-17.084,18.901-17.067,31.659
	c-0.102,21.111,16.939,38.306,38.05,38.409c9.6,0.043,18.859-3.524,25.95-9.993C369.377,69.348,349.861,45.104,349.827,17.072z"/>
    <path style="fill:#5C3724;" d="M171.651,47.536c-17.195,20.019-26.641,45.542-26.624,71.936v42.667h44.885
	C177.266,125.275,171.088,86.508,171.651,47.536z"/>
    <path style="fill:#F5C4B0;" d="M127.96,162.139c0,14.14,11.46,25.6,25.6,25.6h17.067v-51.2H153.56
	C139.42,136.539,127.96,147.999,127.96,162.139z"/>
    <path style="fill:#FEDAC6;"
          d="M358.36,136.539h-17.067v51.2h17.067c14.14,0,25.6-11.46,25.6-25.6S372.5,136.539,358.36,136.539z"/>
    <g>
	<path style="fill:#EBEBEB;" d="M213.293,187.739h-25.6c-14.14,0-25.6-11.46-25.6-25.6v-17.067c0-4.71,3.823-8.533,8.533-8.533
		h68.267v25.6C238.893,176.279,227.433,187.739,213.293,187.739z"/>
        <path style="fill:#EBEBEB;" d="M324.227,187.739h-25.6c-14.14,0-25.6-11.46-25.6-25.6v-25.6h68.267c4.71,0,8.533,3.823,8.533,8.533
		v17.067C349.827,176.279,338.367,187.739,324.227,187.739z"/>
</g>
    <g>
	<rect x="247.427" y="8.539" style="fill:#5C3724;" width="17.067" height="76.8"/>

        <rect x="204.754" y="24.417" transform="matrix(-0.9615 0.2747 -0.2747 -0.9615 433.6086 50.2293)"
              style="fill:#5C3724;" width="17.066" height="62.121"/>

        <rect x="270.395" y="46.932" transform="matrix(-0.3941 0.9191 -0.9191 -0.3941 473.2338 -201.0553)"
              style="fill:#5C3724;" width="64.992" height="17.067"/>
</g>
    <path d="M241.394,219.372l-17.067-17.067c-3.337-3.337-3.337-8.73,0-12.066l17.067-17.067l12.066,12.066l-11.034,11.034
	l11.034,11.034L241.394,219.372z"/>
    <path d="M85.293,512.006H68.227V403.632c-0.23-30.251,22.281-55.927,52.369-59.665l76.8-9.549c4.275-0.538,7.484-4.207,7.458-8.533
	v-35.746h17.067v35.678c0.102,12.902-9.532,23.91-22.4,25.532l-76.809,9.549c-21.495,2.671-37.572,21.018-37.41,42.667v108.442
	H85.293z"/>
    <path d="M443.779,512.006h-17.067V404.059c0.171-21.726-15.906-40.064-37.402-42.735l-76.8-9.557
	c-12.885-1.621-22.519-12.629-22.417-25.6v-36.028h17.067v36.096c-0.034,4.395,3.174,8.055,7.467,8.602l76.783,9.557
	c30.08,3.738,52.599,29.406,52.369,59.733L443.779,512.006L443.779,512.006z"/>
    <path d="M256.003,409.606c-0.034,0-0.068,0-0.094,0c-34.483,0-65.545-20.48-79.13-52.19l-5.461-12.706l15.684-6.733l5.461,12.715
	c10.897,25.421,35.806,41.847,63.454,41.847c0.026,0,0.051,0,0.077,0c27.665,0,52.574-16.418,63.462-41.839l5.461-12.723
	l15.684,6.733l-5.461,12.715C321.564,389.117,290.495,409.606,256.003,409.606z"/>
    <path d="M245.404,247.472c-0.009,0-0.017,0-0.026,0h-6.485v-17.067h6.485c0.009,0,0.017,0,0.026,0
	c11.17,0,22.349-2.637,32.341-7.637l7.637,15.266C273.035,244.213,259.211,247.472,245.404,247.472z"/>
    <polygon points="324.747,273.072 324.227,273.072 324.227,256.006 "/>
    <path d="M153.56,145.072h-17.067v-25.6c0-65.877,53.589-119.467,119.467-119.467s119.467,53.589,119.467,119.467v17.067H358.36
	v-17.067c0-56.465-45.935-102.4-102.4-102.4s-102.4,45.935-102.4,102.4L153.56,145.072L153.56,145.072z"/>
    <path d="M255.875,309.663c-9.165,0-18.321-2.082-26.675-6.255l-17.067-8.533c-34.347-16.683-56.636-51.891-57.114-90.069h-1.459
	c-18.825,0-34.133-15.309-34.133-34.133s15.309-34.133,34.133-34.133h8.533c4.625,0,8.414,3.695,8.533,8.32l1.451,57.856
	c-0.213,32.649,18.458,62.703,47.59,76.843l17.161,8.576c11.921,5.965,26.163,5.965,38.093,0.009l16.128-8.107
	c0.247-0.128,0.503-0.23,0.751-0.333l0.196-0.102c29.218-14.182,47.898-44.245,47.684-76.621l1.613-66.654
	c0.119-4.625,3.9-8.329,8.533-8.329h8.533c18.825,0,34.133,15.309,34.133,34.133s-15.309,34.133-34.133,34.133h-1.451l-0.171,6.861
	c0.256,38.647-22.195,74.786-57.207,91.776l-16.973,8.491c-0.009,0-0.017,0.009-0.017,0.009
	C274.187,307.581,265.031,309.663,255.875,309.663z M153.56,153.606c-9.412,0-17.067,7.654-17.067,17.067
	c0,9.412,7.654,17.067,17.067,17.067h1.075L153.56,153.606z M357.328,179.206h1.033c9.412,0,17.067-7.654,17.067-17.067
	s-7.654-17.067-17.067-17.067h-0.205L357.328,179.206z"/>
    <path d="M169.936,148.434l-15.684-6.724l18.944-44.203c5.393-12.595,17.69-20.702,31.377-20.702c0.085,0,0.171,0,0.256,0h103.62
	c13.013,0.017,24.704,7.253,30.498,18.884l18.517,37.026l-15.266,7.637l-18.517-37.035c-2.901-5.82-8.738-9.438-15.241-9.446H204.76
	c-0.043,0-0.085,0-0.128,0c-6.903,0-13.047,4.053-15.744,10.351L169.936,148.434z"/>
    <path d="M369.061,93.941c-0.845,0-1.749-0.026-2.671-0.077l0.998-17.041c1.092,0.068,2.193,0.068,3.268,0
	c13.141-0.009,24.465-8.013,28.681-19.925c2.662-7.526,2.236-15.633-1.212-22.835c-3.439-7.194-9.472-12.621-16.99-15.283
	c-15.505-5.487-32.623,2.679-38.127,18.202l-16.085-5.692c8.636-24.405,35.524-37.222,59.895-28.604
	c11.827,4.181,21.308,12.706,26.709,24.021c5.402,11.315,6.076,24.055,1.894,35.874c-6.605,18.722-24.388,31.292-44.245,31.292
	c-0.009,0-0.017,0-0.026,0C370.563,93.915,369.846,93.941,369.061,93.941z"/>
    <path d="M213.293,196.272h-25.6c-18.825,0-34.133-15.309-34.133-34.133v-17.067c0-9.412,7.654-17.067,17.067-17.067h68.267
	c4.71,0,8.533,3.823,8.533,8.533v25.6C247.427,180.964,232.118,196.272,213.293,196.272z M170.627,145.072v17.067
	c0,9.412,7.654,17.067,17.067,17.067h25.6c9.412,0,17.067-7.654,17.067-17.067v-17.067H170.627z"/>
    <path d="M324.227,196.272h-25.6c-18.825,0-34.133-15.309-34.133-34.133v-25.6c0-4.71,3.823-8.533,8.533-8.533h68.267
	c9.412,0,17.067,7.654,17.067,17.067v17.067C358.36,180.964,343.051,196.272,324.227,196.272z M281.56,145.072v17.067
	c0,9.412,7.654,17.067,17.067,17.067h25.6c9.412,0,17.067-7.654,17.067-17.067v-17.067H281.56z"/>
    <rect x="238.893" y="128.006" width="34.133" height="17.067"/>
    <circle cx="204.76" cy="153.606" r="17.067"/>
    <circle cx="307.16" cy="153.606" r="17.067"/>
    <g>
</g>
    <g>
</g>
    <g>
</g>
    <g>
</g>
    <g>
</g>
    <g>
</g>
    <g>
</g>
    <g>
</g>
    <g>
</g>
    <g>
</g>
    <g>
</g>
    <g>
</g>
    <g>
</g>
    <g>
</g>
    <g>
</g>
</svg>
