<?xml version="1.0" encoding="iso-8859-1"?>
<!-- Generator: Adobe Illustrator 19.0.0, SVG Export Plug-In . SVG Version: 6.00 Build 0)  -->
<svg version="1.1" id="Capa_1" xmlns="http://www.w3.org/2000/svg" xmlns:xlink="http://www.w3.org/1999/xlink" x="0px"
     y="0px"
     viewBox="0 0 512 512" style="enable-background:new 0 0 512 512;" xml:space="preserve">
<path style="fill:#70432C;" d="M85.351,380.416c-21.547-9.54-31.283-34.739-21.751-56.286c3.746-8.474,10.155-15.497,18.253-20.002
	c-17.058-16.256-17.715-43.264-1.459-60.322c7.134-7.492,16.759-12.134,27.059-13.065c-3.243-5.231-4.983-11.255-5.035-17.408
	c0-18.85,15.283-34.133,34.133-34.133V128c0-65.98,53.487-119.467,119.467-119.467l0,0c65.98,0,119.467,53.487,119.467,119.467v51.2
	c18.85,0,34.133,15.283,34.133,34.133c-0.085,6.033-1.801,11.921-4.949,17.067c23.467,2.116,40.781,22.852,38.665,46.327
	c-0.93,10.308-5.572,19.925-13.065,27.059c20.676,11.298,28.279,37.222,16.981,57.899c-4.574,8.363-11.81,14.959-20.565,18.731
	H85.351z"/>
    <path style="fill:#5C3724;" d="M175.293,40.107c-24.644,22.588-38.69,54.468-38.741,87.893v51.2
	c-18.85,0-34.133,15.283-34.133,34.133c0.085,6.033,1.801,11.921,4.949,17.067c-23.467,2.116-40.781,22.852-38.665,46.327
	c0.93,10.308,5.572,19.925,13.065,27.059c-20.676,11.298-28.279,37.222-16.981,57.899c4.574,8.363,11.81,14.959,20.565,18.731
	h221.867c-5.717-4.267-11.435-8.533-17.067-13.483C176.743,276.224,171.111,114.859,175.293,40.107z"/>
    <path style="fill:#FEDAC6;" d="M358.418,145.067h-17.067v51.2h17.067c14.14,0,25.6-11.46,25.6-25.6
	C384.018,156.527,372.558,145.067,358.418,145.067z"/>
    <path style="fill:#F5C4B0;" d="M128.018,170.667c0,14.14,11.46,25.6,25.6,25.6h17.067v-51.2h-17.067
	C139.478,145.067,128.018,156.527,128.018,170.667z"/>
    <path style="fill:#A15D30;" d="M390.333,352.768l-59.221-7.424l-3.755,8.533c-16.939,39.398-62.609,57.609-102.007,40.67
	c-18.261-7.851-32.811-22.409-40.67-40.67l-3.755-8.533l-59.221,7.424c-25.788,3.2-45.082,25.216-44.885,51.2V512h358.4V403.627
	C435.244,377.771,415.984,355.96,390.333,352.768z"/>
    <path style="fill:#FEDAC6;" d="M256.018,401.067c31.044,0.017,59.11-18.483,71.339-47.019l3.755-8.533l-17.067-2.133
	c-8.585-1.084-15.002-8.414-14.933-17.067V281.6h-85.76v44.629c0.068,8.653-6.349,15.983-14.933,17.067l-17.493,2.133l3.755,8.533
	C196.882,382.532,224.948,401.067,256.018,401.067z"/>
    <path style="fill:#F5C4B0;"
          d="M298.685,328.875V281.6h-85.333v47.275C245.351,345.515,266.685,345.515,298.685,328.875z"/>
    <path style="fill:#8F4F24;" d="M76.818,408.917V512h34.133V358.4C85.351,366.933,76.818,384,76.818,408.917z"/>
    <path style="fill:#FEDAC6;" d="M349.885,145.067l-4.693,68.267c-2.099,47.727-41.404,85.333-89.173,85.333l0,0
	c-47.77,0-87.074-37.606-89.173-85.333l-4.693-68.267l93.867-76.8L349.885,145.067z"/>
    <path style="fill:#F5C4B0;" d="M196.285,116.907l-34.133,28.16l4.693,68.267c1.417,31.983,19.891,60.749,48.384,75.349
	c-4.079-10.692-7.552-21.606-10.411-32.683C199.186,233.472,197.309,162.133,196.285,116.907z"/>
    <g>
	
		<rect x="307.194" y="-3.444" transform="matrix(-0.6178 0.7863 -0.7863 -0.6178 567.8113 -130.9423)"
              style="fill:#5C3724;" width="17.066" height="151.923"/>

        <rect x="130.574" y="59.728" transform="matrix(-0.7925 0.6099 -0.6099 -0.7925 401.1201 0.0435)"
              style="fill:#5C3724;" width="139.958" height="17.067"/>
</g>
    <circle cx="307.201" cy="162.133" r="17.067"/>
    <path d="M261.846,212.898l-25.6-8.533c-4.471-1.493-6.886-6.323-5.393-10.795l17.067-51.2l16.188,5.402l-14.37,43.102l17.502,5.837
	L261.846,212.898z"/>
    <path d="M85.351,512H68.285V403.627c-0.23-30.242,22.281-55.927,52.361-59.665l76.8-9.557c4.284-0.538,7.492-4.207,7.458-8.533
	v-35.738h17.067v35.669c0.102,12.919-9.523,23.927-22.409,25.532l-76.8,9.557c-21.495,2.671-37.572,21.018-37.402,42.667V512H85.351
	z"/>
    <path d="M443.837,512H426.77V404.053c0.171-21.717-15.915-40.055-37.402-42.735l-76.8-9.549
	c-12.885-1.621-22.519-12.629-22.417-25.6v-36.036h17.067v36.096c-0.034,4.395,3.174,8.055,7.467,8.602l76.783,9.549
	c30.089,3.738,52.599,29.423,52.369,59.733L443.837,512L443.837,512z"/>
    <path d="M358.418,204.8h-8.533v-17.067h8.533c9.412,0,17.067-7.654,17.067-17.067c0-9.412-7.654-17.067-17.067-17.067h-8.533
	v-17.067h8.533c18.825,0,34.133,15.309,34.133,34.133S377.243,204.8,358.418,204.8z"/>
    <path d="M256.061,409.6c-0.034,0-0.068,0-0.094,0c-34.492,0-65.545-20.48-79.13-52.19l-5.461-12.706l15.684-6.733l5.461,12.715
	c10.897,25.421,35.797,41.847,63.454,41.847c0.026,0,0.051,0,0.077,0c27.657,0,52.565-16.427,63.462-41.847l5.461-12.715
	l15.684,6.733l-5.461,12.715C321.605,389.12,290.544,409.6,256.061,409.6z"/>
    <path d="M256.018,307.2c-52.471,0-95.386-41.071-97.698-93.491l-4.685-76.655l17.033-1.041l4.693,76.8
	c1.911,43.418,37.342,77.321,80.657,77.321s78.746-33.903,80.649-77.175l4.702-76.945l17.033,1.041l-4.693,76.8
	C351.404,266.138,308.49,307.2,256.018,307.2z"/>
    <path d="M245.454,247.467c-0.009,0-0.017,0-0.026,0h-6.477V230.4h6.485c0.009,0,0.017,0,0.026,0c11.17,0,22.357-2.637,32.341-7.637
	l7.637,15.266C273.093,244.207,259.269,247.467,245.454,247.467z"/>
    <circle cx="204.801" cy="162.133" r="17.067"/>
    <path d="M344.483,151.671l-88.465-72.38l-88.465,72.38l-10.812-13.21l93.867-76.8c3.14-2.577,7.663-2.577,10.812,0l93.867,76.8
	L344.483,151.671z"/>
    <path d="M162.151,204.8h-8.533c-18.825,0-34.133-15.309-34.133-34.133s15.309-34.133,34.133-34.133h8.533V153.6h-8.533
	c-9.412,0-17.067,7.654-17.067,17.067c0,9.412,7.654,17.067,17.067,17.067h8.533V204.8z"/>
    <path d="M384.018,153.6h-17.067V128c0-61.167-49.766-110.933-110.933-110.933S145.085,66.833,145.085,128v25.6h-17.067V128
	c0-70.579,57.421-128,128-128s128,57.421,128,128V153.6z"/>
    <rect x="247.468" y="8.533" width="17.067" height="59.733"/>
    <path d="M81.981,388.258c-10.462-4.497-19.217-12.484-24.687-22.485c-6.562-11.998-8.047-25.83-4.198-38.955
	c2.867-9.779,8.439-18.287,16.06-24.704c-5.035-7.245-8.149-15.718-8.951-24.627c-2.176-24.243,12.988-46.123,35.234-53.316
	c-0.973-3.482-1.493-7.083-1.553-10.718c0-23.646,19.14-42.795,42.667-42.795v17.067c-14.114,0-25.6,11.486-25.6,25.6
	c0.06,4.369,1.34,8.772,3.695,12.612c1.545,2.517,1.673,5.658,0.35,8.286c-1.323,2.637-3.917,4.403-6.861,4.668
	c-18.748,1.69-32.623,18.313-30.933,37.06c0.742,8.252,4.454,15.932,10.453,21.641c1.971,1.886,2.935,4.591,2.577,7.287
	c-0.358,2.697-1.98,5.077-4.369,6.383c-8.004,4.369-13.824,11.588-16.384,20.343c-2.56,8.755-1.57,17.971,2.799,25.975
	c3.644,6.665,9.481,11.989,16.452,14.985L81.981,388.258z"/>
    <path d="M430.055,388.258l-6.75-15.684c6.963-2.995,12.809-8.32,16.461-14.985c9.02-16.521,2.927-37.291-13.594-46.319
	c-2.389-1.306-4.019-3.686-4.369-6.383c-0.358-2.697,0.597-5.41,2.577-7.287c5.99-5.7,9.711-13.389,10.453-21.641
	c1.69-18.739-12.186-35.371-30.933-37.06c-2.944-0.265-5.53-2.031-6.861-4.668c-1.331-2.637-1.195-5.769,0.35-8.286
	c2.347-3.831,3.627-8.235,3.695-12.74c0-13.986-11.486-25.472-25.6-25.472v-17.067c23.526,0,42.667,19.14,42.667,42.667
	c-0.06,3.703-0.58,7.339-1.562,10.846c22.246,7.194,37.427,29.073,35.243,53.316c-0.811,8.917-3.925,17.391-8.96,24.636
	c18.185,15.377,23.714,41.967,11.87,63.65C449.264,375.782,440.5,383.77,430.055,388.258z"/>
    <g>
</g>
    <g>
</g>
    <g>
</g>
    <g>
</g>
    <g>
</g>
    <g>
</g>
    <g>
</g>
    <g>
</g>
    <g>
</g>
    <g>
</g>
    <g>
</g>
    <g>
</g>
    <g>
</g>
    <g>
</g>
    <g>
</g>
</svg>
