<?xml version="1.0" encoding="iso-8859-1"?>
<!-- Generator: Adobe Illustrator 19.0.0, SVG Export Plug-In . SVG Version: 6.00 Build 0)  -->
<svg version="1.1" id="Capa_1" xmlns="http://www.w3.org/2000/svg" xmlns:xlink="http://www.w3.org/1999/xlink" x="0px"
     y="0px"
     viewBox="0 0 512 512" style="enable-background:new 0 0 512 512;" xml:space="preserve">
<path style="fill:#215280;" d="M375.979,350.464l-49.664-6.571c-3.849-0.444-7.501-1.92-10.581-4.267L256,409.6l-59.733-70.315
	c-3.149,2.449-6.886,4.036-10.837,4.608l-49.664,6.571c-33.809,4.651-58.982,33.544-58.965,67.669V512h358.4v-93.867
	C435.2,383.923,409.882,354.995,375.979,350.464z"/>
    <path style="fill:#FEDAC6;" d="M315.733,339.627c-5.427-4.207-8.585-10.709-8.533-17.579V281.6H204.8v40.448
	c-0.137,6.682-3.277,12.945-8.533,17.067L256,409.6L315.733,339.627z"/>
    <path style="fill:#F5C4B0;" d="M307.2,328.875V281.6H204.8v47.275C243.2,345.515,268.8,345.515,307.2,328.875z"/>
    <path style="fill:#1C496E;" d="M110.933,359.083C89.83,371.268,76.826,393.771,76.8,418.133V512h34.133V359.083z"/>
    <rect x="110.933" y="469.333" style="fill:#FEDAC6;" width="34.133" height="42.667"/>
    <rect x="76.8" y="469.333" style="fill:#F5C4B0;" width="34.133" height="42.667"/>
    <g>
	<rect x="366.933" y="469.333" style="fill:#FEDAC6;" width="68.267" height="42.667"/>
        <path style="fill:#FEDAC6;" d="M170.667,252.501c-5.632-12.288-8.542-25.651-8.533-39.168V102.4l0,0
		c0-18.85,15.283-34.133,34.133-34.133h17.067l2.901,4.267c8.866,13.303,23.782,21.308,39.765,21.333l0,0
		c15.983-0.026,30.899-8.03,39.765-21.333l2.901-4.267h17.067c18.85,0,34.133,15.283,34.133,34.133l0,0v110.933
		c0,51.84-42.027,93.867-93.867,93.867l0,0c-30.558,0.009-59.213-14.857-76.8-39.851"/>
</g>
    <path style="fill:#F5C4B0;" d="M196.267,184.747V68.267c-18.85,0-34.133,15.283-34.133,34.133v110.933
	c-0.009,13.517,2.901,26.88,8.533,39.168l8.533,14.848c14.686,20.813,37.205,34.773,62.379,38.656l-21.845-36.523
	C204.373,243.891,196.258,214.596,196.267,184.747z"/>
    <path style="fill:#DBDBDB;" d="M162.133,145.067V102.4c0-18.85,15.283-34.133,34.133-34.133h17.067l2.901,4.267
	c14.549,21.965,44.151,27.972,66.108,13.423c5.325-3.533,9.89-8.09,13.423-13.423l2.901-4.267h17.067
	c18.85,0,34.133,15.283,34.133,34.133v42.667h8.533c6.323,0.06,12.407,2.466,17.067,6.741l3.499-38.315
	c2.842-31.445-16.247-60.732-46.165-70.827C316.681,21.18,291.396,8.533,264.533,8.533h-17.067
	c-26.863,0-52.147,12.646-68.267,34.133c-29.986,10.027-49.152,39.339-46.336,70.827l3.669,38.315
	c4.659-4.275,10.743-6.682,17.067-6.741H162.133z"/>
    <path style="fill:#FEDAC6;" d="M358.4,145.067h-8.533v51.2h8.533c14.14,0,25.6-11.46,25.6-25.6
	C384,156.527,372.54,145.067,358.4,145.067z"/>
    <path style="fill:#F5C4B0;" d="M128,170.667c0,14.14,11.46,25.6,25.6,25.6h8.533v-51.2H153.6
	C139.46,145.067,128,156.527,128,170.667z"/>
    <g>
	<path style="fill:#DBDBDB;" d="M170.667,264.533H204.8c23.561,0,42.667-19.106,42.667-42.667h-34.133
		C189.773,221.867,170.667,240.973,170.667,264.533z"/>
        <path style="fill:#DBDBDB;" d="M324.267,264.533h-34.133c-23.561,0-42.667-19.106-42.667-42.667H281.6
		C305.161,221.867,324.267,240.973,324.267,264.533z"/>
</g>
    <g>
	<path style="fill:#BFBFBF;" d="M179.2,42.667c-29.986,10.027-49.152,39.339-46.336,70.827l3.669,38.315
		c4.659-4.275,10.743-6.682,17.067-6.741h8.533V102.4c0-18.85,15.283-34.133,34.133-34.133V25.6
		C189.79,30.438,184.038,36.19,179.2,42.667z"/>
        <path style="fill:#BFBFBF;" d="M214.272,247.467h-40.021c-2.372,5.376-3.593,11.187-3.584,17.067H204.8
		c17.015,0.06,32.444-10.001,39.253-25.6C235.179,244.634,224.819,247.603,214.272,247.467z"/>
        <path style="fill:#BFBFBF;" d="M280.661,247.467h40.021c2.372,5.376,3.593,11.187,3.584,17.067h-34.133
		c-17.015,0.06-32.444-10.001-39.253-25.6C259.755,244.634,270.114,247.603,280.661,247.467z"/>
</g>
    <path d="M264.533,230.4H230.4c-2.799,0-5.419-1.374-7.014-3.669c-1.596-2.304-1.954-5.239-0.981-7.859l25.6-68.267l15.983,5.99
	l-21.274,56.738h21.82V230.4z"/>
    <path d="M358.4,204.8h-8.533v-17.067h8.533c9.412,0,17.067-7.654,17.067-17.067c0-9.412-7.654-17.067-17.067-17.067h-8.533v-17.067
	h8.533c18.825,0,34.133,15.309,34.133,34.133S377.225,204.8,358.4,204.8z"/>
    <path d="M162.133,204.8H153.6c-18.825,0-34.133-15.309-34.133-34.133s15.309-34.133,34.133-34.133h8.533V153.6H153.6
	c-9.412,0-17.067,7.654-17.067,17.067c0,9.412,7.654,17.067,17.067,17.067h8.533V204.8z"/>
    <path d="M204.8,273.067h-34.133c-4.71,0-8.533-3.814-8.533-8.533c0-28.237,22.963-51.2,51.2-51.2h34.133
	c4.71,0,8.533,3.823,8.533,8.533C256,250.103,233.037,273.067,204.8,273.067z M180.275,256H204.8
	c15.872,0,29.252-10.897,33.058-25.6h-24.525C197.461,230.4,184.081,241.297,180.275,256z"/>
    <path d="M324.267,273.067h-34.133c-28.237,0-51.2-22.963-51.2-51.2c0-4.71,3.823-8.533,8.533-8.533H281.6
	c28.237,0,51.2,22.963,51.2,51.2C332.8,269.252,328.986,273.067,324.267,273.067z M257.075,230.4
	c3.797,14.703,17.178,25.6,33.058,25.6h24.516c-3.789-14.703-17.178-25.6-33.05-25.6H257.075z"/>
    <circle cx="204.8" cy="170.667" r="17.067"/>
    <circle cx="298.667" cy="170.667" r="17.067"/>
    <path d="M255.974,315.733c-33.289,0-64.589-16.247-83.746-43.477l13.961-9.813c15.949,22.682,42.044,36.224,69.786,36.224
	c0.009,0,0.009,0,0.017,0c47.053,0,85.333-38.281,85.333-85.333V102.4c0-14.114-11.486-25.6-25.6-25.6h-12.553l-0.358,0.529
	C292.386,92.971,274.876,102.374,256,102.4c-18.901-0.026-36.42-9.421-46.882-25.139l-0.299-0.461h-12.553
	c-14.114,0-25.6,11.486-25.6,25.6v110.933c-0.009,12.211,2.671,24.525,7.757,35.61l-15.514,7.108
	c-6.101-13.303-9.318-28.075-9.31-42.718V102.4c0-23.526,19.14-42.667,42.667-42.667h17.067c2.825,0,5.47,1.399,7.057,3.738
	l2.901,4.267c7.339,11.025,19.558,17.579,32.717,17.596c13.141-0.017,25.353-6.579,32.657-17.536l2.944-4.326
	c1.587-2.338,4.233-3.738,7.057-3.738h17.067c23.526,0,42.667,19.14,42.667,42.667v110.933c0,56.465-45.935,102.4-102.4,102.4
	C255.991,315.733,255.983,315.733,255.974,315.733z"/>
    <path d="M128.034,154.377l-3.669-40.107c-3.106-34.714,17.195-66.731,49.613-78.814C191.693,13.21,218.957,0,247.467,0h17.067
	c28.51,0,55.774,13.21,73.481,35.456c32.427,12.083,52.727,44.1,49.613,78.797l-3.669,40.124l-16.998-1.553l3.669-40.107
	c2.483-27.657-14.191-53.146-40.542-61.961c-1.638-0.546-3.072-1.587-4.113-2.97c-14.43-19.234-37.402-30.72-61.44-30.72h-17.067
	c-24.047,0-47.01,11.486-61.44,30.72c-1.041,1.382-2.475,2.423-4.113,2.97c-26.351,8.815-43.025,34.304-40.542,61.978l3.669,40.09
	L128.034,154.377z"/>
    <rect x="187.733" y="119.467" width="136.533" height="17.067"/>
    <path d="M85.333,512H68.267v-93.867c0-38.315,28.638-71.04,66.628-76.126l49.673-6.579c6.639-0.905,11.691-6.665,11.708-13.397
	v-31.898h17.067v31.915c-0.034,15.223-11.426,28.245-26.496,30.302l-49.698,6.579c-29.542,3.942-51.814,29.397-51.814,59.204V512z"
    />
    <path d="M443.733,512h-17.067v-93.867c0-29.807-22.272-55.262-51.823-59.204l-49.638-6.579
	c-15.113-2.057-26.496-15.078-26.53-30.285v-31.932h17.067v31.915c0.017,6.716,5.06,12.476,11.733,13.38l49.621,6.579
	c37.999,5.077,66.637,37.811,66.637,76.126V512z"/>
    <rect x="136.533" y="443.733" width="17.067" height="68.267"/>
    <rect x="358.4" y="443.733" width="17.067" height="68.267"/>
    <path d="M256,418.133c-2.466,0-4.804-1.058-6.417-2.918l-59.733-68.267l12.843-11.23L256,396.638l53.308-60.928l12.851,11.23
	l-59.733,68.267C260.804,417.075,258.466,418.133,256,418.133z"/>
    <path d="M204.8,426.667c-3.328,0-6.409-1.954-7.791-5.069l-34.133-76.8l15.59-6.938l31.454,70.767l44.681-7.45l2.807,16.836
	l-51.2,8.533C205.73,426.624,205.261,426.667,204.8,426.667z"/>
    <path d="M307.2,426.667c-0.461,0-0.93-0.043-1.399-0.119l-51.2-8.533l2.807-16.836l44.681,7.45l31.454-70.767l15.599,6.938
	l-34.133,76.8C313.609,424.713,310.537,426.667,307.2,426.667z"/>
    <rect x="247.467" y="409.6" width="17.067" height="102.4"/>
    <path d="M153.6,512h-17.067v-34.133h-51.2V512H68.267v-42.667c0-4.719,3.823-8.533,8.533-8.533h68.267
	c4.71,0,8.533,3.814,8.533,8.533V512z"/>
    <path d="M443.733,512h-17.067v-34.133h-51.2V512H358.4v-42.667c0-4.719,3.814-8.533,8.533-8.533H435.2
	c4.719,0,8.533,3.814,8.533,8.533V512z"/>
    <path d="M226.133,460.8c-7.057,0-12.8-5.743-12.8-12.8s5.743-12.8,12.8-12.8s12.8,5.743,12.8,12.8S233.19,460.8,226.133,460.8z
	 M226.133,443.733c-2.355,0-4.267,1.92-4.267,4.267s1.911,4.267,4.267,4.267s4.267-1.92,4.267-4.267
	S228.489,443.733,226.133,443.733z"/>
    <g>
</g>
    <g>
</g>
    <g>
</g>
    <g>
</g>
    <g>
</g>
    <g>
</g>
    <g>
</g>
    <g>
</g>
    <g>
</g>
    <g>
</g>
    <g>
</g>
    <g>
</g>
    <g>
</g>
    <g>
</g>
    <g>
</g>
</svg>
