<?xml version="1.0" encoding="iso-8859-1"?>
<!-- Generator: Adobe Illustrator 19.0.0, SVG Export Plug-In . SVG Version: 6.00 Build 0)  -->
<svg version="1.1" id="Capa_1" xmlns="http://www.w3.org/2000/svg" xmlns:xlink="http://www.w3.org/1999/xlink" x="0px"
     y="0px"
     viewBox="0 0 512 512" style="enable-background:new 0 0 512 512;" xml:space="preserve">
<path style="fill:#E56B2E;" d="M375.974,367.531l-53.931-7.168l0,0c-28.86,36.48-81.835,42.65-118.306,13.79
	c-5.111-4.045-9.737-8.67-13.79-13.79l0,0l-53.931,7.168c-33.903,4.531-59.221,33.459-59.221,67.669V512h358.4v-76.8
	C435.196,400.99,409.877,372.062,375.974,367.531z"/>
    <path style="fill:#FEDAC6;" d="M322.044,360.363L322.044,360.363c-8.55-1.118-14.925-8.439-14.848-17.067v-44.629h-102.4v44.8
	c0.077,8.627-6.298,15.949-14.848,17.067l0,0c28.911,36.437,81.886,42.547,118.332,13.636
	C313.382,370.116,318.007,365.483,322.044,360.363z"/>
    <path style="fill:#F5C4B0;"
          d="M307.196,344.917v-46.251h-102.4v46.251C243.196,362.923,268.796,362.923,307.196,344.917z"/>
    <g>
	<path style="fill:#FEDAC6;" d="M349.862,153.6h-8.533v51.2h8.533c14.14,0,25.6-11.46,25.6-25.6
		C375.462,165.06,364.002,153.6,349.862,153.6z"/>
        <path style="fill:#FEDAC6;"
              d="M162.129,153.6c-14.14,0-25.6,11.46-25.6,25.6c0,14.14,11.46,25.6,25.6,25.6h8.533v-51.2H162.129z"
        />
        <path style="fill:#FEDAC6;" d="M341.329,119.467l8.533,34.133v91.733c0.111,12.544-4.378,24.687-12.629,34.133l-36.864,41.643
		c-6.451,7.398-15.787,11.657-25.6,11.691h-37.376c-9.813-0.034-19.149-4.292-25.6-11.691l-37.035-42.069
		c-8.252-9.446-12.74-21.589-12.629-34.133V153.6l8.533-34.133H341.329z"/>
</g>
    <path style="fill:#F5C4B0;" d="M196.262,230.4l8.533-110.933h-42.667l-3.328,121.515c0.043,19.618,8.533,38.272,23.296,51.2
	c0,0,34.731,38.059,39.765,40.619l-18.688-53.504C197.491,263.654,195.136,247.006,196.262,230.4z"/>
    <g>
	<path style="fill:#EBEBEB;" d="M162.129,153.6h76.8l0,0v34.133c0,14.14-11.46,25.6-25.6,25.6h-25.6c-14.14,0-25.6-11.46-25.6-25.6
		V153.6L162.129,153.6z"/>
        <path style="fill:#EBEBEB;" d="M324.262,213.333h-25.6c-14.14,0-25.6-11.46-25.6-25.6V153.6h76.8v34.133
		C349.862,201.873,338.402,213.333,324.262,213.333z"/>
</g>
    <path style="fill:#FECB66;" d="M366.929,162.133l8.533-51.2l0,0c0-56.55-45.85-102.4-102.4-102.4h-34.133
	c-56.55,0-102.4,45.85-102.4,102.4v8.533l8.533,42.667l17.067,25.6l8.533-68.267h170.667l8.533,59.733L366.929,162.133z"/>
    <path style="fill:#F5AD76;" d="M215.548,11.349c-46.251,10.846-78.967,52.079-79.019,99.584v8.533l8.533,42.667l17.067,25.6
	l8.533-68.267h17.067C177.574,71.339,187.729,42.667,215.548,11.349z"/>
    <path style="fill:#D65B25;" d="M76.796,435.2V512h34.133V376.149C89.826,388.335,76.821,410.837,76.796,435.2z"/>
    <path d="M349.862,213.333h-8.533v-17.067h8.533c9.412,0,17.067-7.654,17.067-17.067s-7.654-17.067-17.067-17.067h-8.533v-17.067
	h8.533c18.825,0,34.133,15.309,34.133,34.133S368.687,213.333,349.862,213.333z"/>
    <path d="M170.662,213.333h-8.533c-18.825,0-34.133-15.309-34.133-34.133s15.309-34.133,34.133-34.133h8.533v17.067h-8.533
	c-9.412,0-17.067,7.654-17.067,17.067s7.654,17.067,17.067,17.067h8.533V213.333z"/>
    <path d="M264.529,230.4h-25.6c-2.449,0-4.779-1.05-6.4-2.884s-2.372-4.275-2.074-6.707l8.533-68.267l16.93,2.116l-7.322,58.675
	h15.932V230.4z"/>
    <path d="M213.329,221.867h-25.6c-18.825,0-34.133-15.309-34.133-34.133V153.6c0-4.71,3.823-8.533,8.533-8.533h76.8
	c4.71,0,8.533,3.823,8.533,8.533v34.133C247.462,206.558,232.154,221.867,213.329,221.867z M170.662,162.133v25.6
	c0,9.412,7.654,17.067,17.067,17.067h25.6c9.412,0,17.067-7.654,17.067-17.067v-25.6H170.662z"/>
    <path d="M324.262,221.867h-25.6c-18.825,0-34.133-15.309-34.133-34.133V153.6c0-4.71,3.814-8.533,8.533-8.533h76.8
	c4.719,0,8.533,3.823,8.533,8.533v34.133C358.396,206.558,343.087,221.867,324.262,221.867z M281.596,162.133v25.6
	c0,9.412,7.654,17.067,17.067,17.067h25.6c9.412,0,17.067-7.654,17.067-17.067v-25.6H281.596z"/>
    <rect x="230.396" y="145.067" width="42.667" height="17.067"/>
    <path d="M136.7,163.806l-8.533-42.667c-0.119-0.555-0.171-1.109-0.171-1.673v-8.533C127.996,49.766,177.762,0,238.929,0h34.133
	c61.167,0,110.933,49.766,110.933,110.933c0,0.469-0.043,0.939-0.119,1.408l-8.533,51.2l-16.836-2.807l8.422-50.492
	c-0.375-51.439-42.342-93.175-93.867-93.175h-34.133c-51.755,0-93.867,42.112-93.867,93.867v7.689l8.363,41.839L136.7,163.806z"/>
    <path d="M237.393,341.333c-12.297-0.043-23.962-5.367-32.026-14.618l-37.009-42.035c-9.66-11.068-14.891-25.207-14.754-39.851V153.6
	c0-0.7,0.085-1.391,0.256-2.074l8.533-34.133c0.939-3.789,4.352-6.46,8.269-6.46h170.667c3.917,0,7.322,2.671,8.277,6.46
	l8.533,34.133c0.171,0.683,0.256,1.374,0.256,2.074v91.733c0.137,14.558-5.103,28.698-14.746,39.74l-36.89,41.694
	c-8.03,9.199-19.695,14.524-31.966,14.566L237.393,341.333L237.393,341.333z M170.662,154.65v90.257
	c-0.094,10.53,3.644,20.634,10.522,28.527l37.009,42.035c4.864,5.572,11.87,8.772,19.226,8.798h37.35
	c7.33-0.026,14.327-3.226,19.174-8.764l36.89-41.694c6.852-7.842,10.59-17.946,10.487-28.399V154.65L334.665,128H177.327
	L170.662,154.65z"/>
    <rect x="230.396" y="247.467" width="51.2" height="17.067"/>
    <path d="M185.237,125.5l-12.075-12.058c9.387-9.404,14.566-21.905,14.575-35.191V76.8h17.067v1.451
	C204.787,96.094,197.841,112.87,185.237,125.5z"/>
    <path d="M227.904,125.5l-12.075-12.058c9.387-9.404,14.566-21.905,14.575-35.191V76.8h17.067v1.451
	C247.454,96.094,240.508,112.87,227.904,125.5z"/>
    <path d="M270.562,125.5l-12.075-12.058c9.387-9.404,14.566-21.897,14.575-35.191V76.8h17.067v1.451
	C290.121,96.102,283.174,112.879,270.562,125.5z"/>
    <path d="M313.229,125.5l-12.066-12.058c9.387-9.404,14.558-21.897,14.566-35.191V76.8h17.067v1.451
	C332.787,96.102,325.841,112.879,313.229,125.5z"/>
    <path d="M85.329,512H68.262v-76.8c0-38.315,28.638-71.04,66.628-76.126l53.931-7.168c4.284-0.563,7.475-4.233,7.441-8.533v-27.639
	h17.067v27.563c0.111,12.834-9.463,23.842-22.272,25.523l-53.914,7.168c-29.542,3.951-51.814,29.406-51.814,59.213V512z"/>
    <path d="M443.729,512h-17.067v-76.8c-0.077-29.705-22.349-55.1-51.823-59.042l-53.914-7.168
	c-12.791-1.664-22.366-12.672-22.255-25.6v-27.657h17.067v27.733c-0.043,4.386,3.149,8.047,7.424,8.61l53.939,7.168
	c37.897,5.069,66.543,37.709,66.637,75.938V512H443.729z"/>
    <rect x="136.529" y="443.733" width="17.067" height="68.267"/>
    <rect x="358.396" y="443.733" width="17.067" height="68.267"/>
    <path d="M256.09,400.819c-27.401,0-54.554-12.049-72.832-35.157l13.38-10.581c25.89,32.725,73.6,38.255,106.325,12.382
	c4.582-3.635,8.755-7.799,12.399-12.39l13.363,10.598c-4.446,5.623-9.557,10.726-15.172,15.172
	C296.546,394.291,276.245,400.819,256.09,400.819z"/>
    <g>
</g>
    <g>
</g>
    <g>
</g>
    <g>
</g>
    <g>
</g>
    <g>
</g>
    <g>
</g>
    <g>
</g>
    <g>
</g>
    <g>
</g>
    <g>
</g>
    <g>
</g>
    <g>
</g>
    <g>
</g>
    <g>
</g>
</svg>
