<?xml version="1.0" encoding="iso-8859-1"?>
<!-- Generator: Adobe Illustrator 19.0.0, SVG Export Plug-In . SVG Version: 6.00 Build 0)  -->
<svg version="1.1" id="Capa_1" xmlns="http://www.w3.org/2000/svg" xmlns:xlink="http://www.w3.org/1999/xlink" x="0px"
     y="0px"
     viewBox="0 0 512 512" style="enable-background:new 0 0 512 512;" xml:space="preserve">
<path style="fill:#FECB66;" d="M375.467,281.6V128C375.467,62.02,321.98,8.533,256,8.533l0,0
	C190.02,8.533,136.533,62.02,136.533,128v153.6H375.467z"/>
    <g>
	<path style="fill:#F5AD76;" d="M290.133,53.077C230.4,86.357,177.067,93.867,145.067,91.819c-2.799,8.951-4.233,18.27-4.267,27.648
		v26.283l21.333-0.683l128-68.267V53.077z"/>
        <rect x="136.533" y="170.667" style="fill:#F5AD76;" width="119.467" height="110.933"/>
</g>
    <path style="fill:#787D82;" d="M375.467,342.357l-36.437-4.523l-16.043-1.963L256,486.4l-66.901-150.528l-16.043,1.963
	l-36.523,4.523c-34.142,4.301-59.742,33.34-59.733,67.755V512h358.4V410.112C435.209,375.697,409.609,346.658,375.467,342.357z"/>
    <g>
	<polygon style="fill:#868C91;" points="196.267,418.133 187.733,452.267 256,486.4 189.099,335.787 173.056,337.835 
		136.533,418.133 	"/>
        <polygon style="fill:#868C91;" points="315.733,418.133 375.467,418.133 338.944,337.835 322.901,335.787 256,486.4
		324.267,452.267 	"/>
</g>
    <polygon style="fill:#EBEBEB;" points="256,486.4 290.133,409.6 221.867,409.6 "/>
    <path style="fill:#FEDAC6;" d="M313.6,334.677c-8.585-1.084-15.002-8.414-14.933-17.067V281.6h-85.333v36.096
	c0.068,8.653-6.349,15.983-14.933,17.067l-9.301,1.195l32.768,73.643h68.267l32.768-73.728L313.6,334.677z"/>
    <path style="fill:#F5C4B0;"
          d="M298.667,320.341V281.6h-85.333v38.741C245.333,336.981,266.667,336.981,298.667,320.341z"/>
    <path style="fill:#717478;" d="M76.8,408.917V512h34.133V349.867C89.83,362.052,76.826,384.555,76.8,408.917z"/>
    <path style="fill:#FEDAC6;" d="M162.133,136.533l4.693,76.8c2.159,49.246,43.827,87.424,93.073,85.274
	c46.234-2.022,83.251-39.04,85.274-85.274l4.693-76.8L290.133,76.8L162.133,136.533z"/>
    <path style="fill:#F5C4B0;" d="M207.36,172.885l-2.56-59.733c-13.662,8.781-27.921,16.589-42.667,23.381l7.168,79.104
	c1.86,40.201,30.37,74.197,69.632,83.029l-11.349-21.077C208.64,242.517,207.36,212.821,207.36,172.885z"/>
    <g>
	<circle style="fill:#EBEBEB;" cx="204.8" cy="162.133" r="34.133"/>
        <circle style="fill:#EBEBEB;" cx="307.2" cy="162.133" r="34.133"/>
</g>
    <path style="fill:#FEDAC6;" d="M358.4,145.067h-8.533v51.2h8.533c14.14,0,25.6-11.46,25.6-25.6
	C384,156.527,372.54,145.067,358.4,145.067z"/>
    <path style="fill:#F5C4B0;" d="M128,170.667c0,14.14,11.46,25.6,25.6,25.6h8.533v-51.2H153.6
	C139.46,145.067,128,156.527,128,170.667z"/>
    <path d="M253.303,212.898l-25.6-8.533c-4.471-1.493-6.886-6.323-5.393-10.795l17.067-51.2l16.188,5.402l-14.37,43.102l17.502,5.837
	L253.303,212.898z"/>
    <path d="M358.4,204.8h-8.533v-17.067h8.533c9.412,0,17.067-7.654,17.067-17.067c0-9.412-7.654-17.067-17.067-17.067h-8.533v-17.067
	h8.533c18.825,0,34.133,15.309,34.133,34.133S377.225,204.8,358.4,204.8z"/>
    <path d="M256,307.2c-52.471,0-95.386-41.071-97.698-93.491l-4.685-76.655l17.033-1.041l4.693,76.8
	c1.911,43.418,37.342,77.321,80.657,77.321s78.746-33.903,80.649-77.175l4.702-76.945l17.033,1.041l-4.693,76.8
	C351.394,266.138,308.471,307.2,256,307.2z"/>
    <path d="M245.444,247.467c-0.009,0-0.017,0-0.026,0h-6.485V230.4h6.485c0.009,0,0.017,0,0.026,0c11.17,0,22.357-2.637,32.341-7.637
	l7.637,15.266C273.075,244.207,259.251,247.467,245.444,247.467z"/>
    <path d="M166.153,152.593l-8.03-15.061l128-68.267c3.49-1.852,7.834-1.075,10.445,1.911l59.733,68.267l-12.851,11.238l-55.27-63.172
	L166.153,152.593z"/>
    <path d="M162.133,204.8H153.6c-18.825,0-34.133-15.309-34.133-34.133s15.309-34.133,34.133-34.133h8.533V153.6H153.6
	c-9.412,0-17.067,7.654-17.067,17.067c0,9.412,7.654,17.067,17.067,17.067h8.533V204.8z"/>
    <path id="SVGCleanerId_0" d="M384,153.6h-17.067V128c0-61.167-49.766-110.933-110.933-110.933S145.067,66.833,145.067,128v25.6H128
	V128C128,57.421,185.421,0,256,0s128,57.421,128,128V153.6z"/>
    <rect x="281.6" y="17.067" width="17.067" height="59.733"/>
    <path id="SVGCleanerId_1"
          d="M204.8,290.133h-68.267c-4.71,0-8.533-3.814-8.533-8.533v-93.867h17.067v85.333H204.8V290.133z"/>
    <path id="SVGCleanerId_2" d="M375.467,290.133H307.2v-17.067h59.733v-85.333H384V281.6C384,286.319,380.186,290.133,375.467,290.133
	z"/>
    <path d="M204.8,204.8c-23.526,0-42.667-19.14-42.667-42.667s19.14-42.667,42.667-42.667s42.667,19.14,42.667,42.667
	S228.326,204.8,204.8,204.8z M204.8,136.533c-14.114,0-25.6,11.486-25.6,25.6c0,14.114,11.486,25.6,25.6,25.6
	c14.114,0,25.6-11.486,25.6-25.6C230.4,148.019,218.914,136.533,204.8,136.533z"/>
    <path d="M307.2,204.8c-23.526,0-42.667-19.14-42.667-42.667s19.14-42.667,42.667-42.667s42.667,19.14,42.667,42.667
	S330.726,204.8,307.2,204.8z M307.2,136.533c-14.114,0-25.6,11.486-25.6,25.6c0,14.114,11.486,25.6,25.6,25.6s25.6-11.486,25.6-25.6
	C332.8,148.019,321.314,136.533,307.2,136.533z"/>
    <rect x="230.4" y="136.533" width="42.667" height="17.067"/>
    <path d="M256,494.933c-3.371,0-6.426-1.98-7.799-5.069l-68.267-153.6l15.59-6.938L256,465.391l60.467-136.055l15.599,6.938
	l-68.267,153.6C262.426,492.954,259.371,494.933,256,494.933z"/>
    <path d="M85.333,512H68.267V410.112c-0.009-38.622,28.877-71.39,67.2-76.22l61.798-7.68c4.275-0.538,7.484-4.207,7.458-8.533
	v-27.546h17.067v27.477c0.102,12.919-9.532,23.927-22.4,25.532l-61.79,7.68c-29.807,3.755-52.275,29.244-52.267,59.29V512z"/>
    <path d="M443.733,512h-17.067V410.112c0.009-30.046-22.46-55.535-52.267-59.281l-61.764-7.68
	c-12.885-1.604-22.519-12.621-22.417-25.6v-27.418h17.067v27.477c-0.034,4.395,3.174,8.064,7.458,8.602l61.773,7.68
	c38.332,4.821,67.226,37.589,67.217,76.22V512z"/>
    <path d="M252.186,494.037l-68.267-34.133c-3.575-1.792-5.436-5.828-4.463-9.702l5.879-23.535h-48.802
	c-2.884,0-5.581-1.459-7.151-3.883c-1.57-2.423-1.818-5.478-0.64-8.115l34.133-76.8l15.59,6.938l-28.8,64.794h46.601
	c2.628,0,5.111,1.212,6.724,3.285c1.613,2.065,2.193,4.77,1.553,7.313l-6.878,27.494l62.148,31.078L252.186,494.037z"/>
    <rect x="247.467" y="486.4" width="17.067" height="25.6"/>
    <path d="M259.814,494.037l-7.637-15.266l62.14-31.078l-6.869-27.494c-0.64-2.551-0.068-5.248,1.553-7.313
	c1.621-2.074,4.105-3.285,6.733-3.285h46.601l-28.8-64.802l15.599-6.938l34.133,76.8c1.178,2.645,0.93,5.692-0.64,8.115
	s-4.267,3.891-7.159,3.891h-48.802l5.871,23.535c0.973,3.874-0.887,7.91-4.454,9.702L259.814,494.037z"/>
    <rect x="221.867" y="401.067" width="68.267" height="17.067"/>
    <g>
	<path id="SVGCleanerId_0_1_" d="M384,153.6h-17.067V128c0-61.167-49.766-110.933-110.933-110.933S145.067,66.833,145.067,128v25.6
		H128V128C128,57.421,185.421,0,256,0s128,57.421,128,128V153.6z"/>
</g>
    <g>
	<path id="SVGCleanerId_1_1_"
          d="M204.8,290.133h-68.267c-4.71,0-8.533-3.814-8.533-8.533v-93.867h17.067v85.333H204.8V290.133z"/>
</g>
    <g>
	<path id="SVGCleanerId_2_1_" d="M375.467,290.133H307.2v-17.067h59.733v-85.333H384V281.6
		C384,286.319,380.186,290.133,375.467,290.133z"/>
</g>
    <g>
</g>
    <g>
</g>
    <g>
</g>
    <g>
</g>
    <g>
</g>
    <g>
</g>
    <g>
</g>
    <g>
</g>
    <g>
</g>
    <g>
</g>
    <g>
</g>
    <g>
</g>
    <g>
</g>
    <g>
</g>
    <g>
</g>
</svg>
