<?xml version="1.0" encoding="iso-8859-1"?>
<!-- Generator: Adobe Illustrator 19.0.0, SVG Export Plug-In . SVG Version: 6.00 Build 0)  -->
<svg version="1.1" id="Capa_1" xmlns="http://www.w3.org/2000/svg" xmlns:xlink="http://www.w3.org/1999/xlink" x="0px"
     y="0px"
     viewBox="0 0 512.002 512.002" style="enable-background:new 0 0 512.002 512.002;" xml:space="preserve">
<path style="fill:#FEDAC6;" d="M358.403,145.063v119.469c0.017,11.136-2.313,22.161-6.827,32.342l0,0
	c-16.581,37.36-53.59,61.467-94.466,61.526l0,0c-37.539-0.009-72.125-20.352-90.37-53.164l-3.157-5.632
	c-6.562-11.793-10.001-25.071-9.984-38.571v-115.97l59.734-68.268h85.335L358.403,145.063z"/>
    <path style="fill:#F5C4B0;" d="M181.589,113.062l-27.99,32.001v115.97c-0.017,13.5,3.422,26.778,9.984,38.571l3.157,5.632
	c6.818,12.228,16.086,22.921,27.222,31.403C187.733,281.599,170.666,213.331,181.589,113.062z"/>
    <path style="fill:#FEDAC6;" d="M358.403,145.063h-8.533v51.201h8.533c14.14,0,25.6-11.46,25.6-25.6S372.543,145.063,358.403,145.063
	z"/>
    <path style="fill:#F5C4B0;" d="M127.999,170.663c0,14.14,11.46,25.6,25.6,25.6h8.533v-51.201h-8.533
	C139.46,145.063,127.999,156.532,127.999,170.663z"/>
    <path style="fill:#FEDAC6;" d="M256.001,415.915c31.045,0.017,59.111-18.483,71.34-47.019l2.901-6.741l-19.627-2.304
	c-7.757-0.939-14.968-4.454-20.48-9.984h-68.268c-5.513,5.53-12.723,9.046-20.48,9.984l-19.627,2.304l2.901,6.741
	C196.89,397.44,224.948,415.932,256.001,415.915z"/>
    <path style="fill:#215280;" d="M375.982,367.531l-45.739-5.376l-2.901,6.741c-16.939,39.399-62.61,57.609-102.009,40.671
	c-18.262-7.851-32.811-22.409-40.671-40.671l-2.901-6.741l-45.739,5.376c-33.903,4.531-59.222,33.46-59.222,67.67v76.801h358.406
	v-76.801C435.204,400.999,409.885,372.07,375.982,367.531z"/>
    <g>
	<path style="fill:#70432C;" d="M325.634,76.795H189.099c-5.479-0.009-10.889-1.289-15.787-3.755l0,0
		c-17.366-8.789-24.32-29.995-15.531-47.361c1.604-3.166,3.678-6.076,6.144-8.619l8.107-8.533l8.533,17.067h108.119
		c26.539,0,52.652,26.027,44.118,51.201H325.634z"/>
        <path style="fill:#70432C;" d="M332.802,76.795c17.861,5.828,29.381,23.177,27.819,41.899l-2.219,26.368l-59.734-68.268
		C298.669,76.795,332.802,76.795,332.802,76.795z"/>
</g>
    <path style="fill:#5C3724;" d="M213.334,76.795l-59.734,68.268l-2.219-26.368c-1.536-18.774,13.056-34.134,27.819-41.899
	C179.2,76.795,213.334,76.795,213.334,76.795z"/>
    <path style="fill:#70432C;" d="M324.269,258.729c-2.517,3.985-7.791,5.171-11.776,2.645c-1.562-0.99-2.756-2.458-3.413-4.181
	l-6.059-15.787c-2.534-6.69-8.977-11.076-16.128-11.008H225.11c-7.091,0-13.44,4.378-15.958,11.008l-6.059,15.787
	c-1.673,4.403-6.596,6.622-11.008,4.949c-1.724-0.657-3.2-1.852-4.181-3.413l-34.134-56.833v59.137
	c-0.017,13.5,3.422,26.778,9.984,38.571l3.157,5.632c27.862,49.861,90.873,67.696,140.734,39.834
	c19.55-10.923,35.021-27.896,44.101-48.368l0,0c4.437-10.146,6.707-21.103,6.656-32.171v-58.881L324.269,258.729z"/>
    <g>
	<path style="fill:#5C3724;" d="M153.599,201.896v59.137c-0.017,13.5,3.422,26.778,9.984,38.571l3.157,5.632
		c7.006,12.612,16.606,23.612,28.16,32.257c-6.161-27.341-9.421-55.263-9.728-83.287L153.599,201.896z"/>
        <path style="fill:#5C3724;" d="M158.464,23.546c-9.899,16.811-4.292,38.469,12.527,48.368c5.41,3.183,11.571,4.873,17.852,4.881
		h92.759C204.8,68.262,167.424,42.661,158.464,23.546z"/>
</g>
    <rect x="110.932" y="469.335" style="fill:#FEDAC6;" width="34.134" height="42.667"/>
    <rect x="76.798" y="469.335" style="fill:#F5C4B0;" width="34.134" height="42.667"/>
    <rect x="366.936" y="469.335" style="fill:#FEDAC6;" width="68.268" height="42.667"/>
    <path style="fill:#F5C4B0;" d="M290.135,349.866h-68.268c-5.513,5.53-12.723,9.046-20.48,9.984l-19.627,2.304l2.901,6.741
	c5.487,12.834,14.328,23.945,25.6,32.171c22.443-3.243,64.086-11.008,96.599-42.667
	C301.109,355.908,295.528,353.058,290.135,349.866z"/>
    <path style="fill:#1C496E;" d="M110.932,381.013c-20.438,7.228-34.108,26.539-34.134,48.214v40.107h34.134V381.013z"/>
    <circle cx="204.8" cy="170.663" r="17.067"/>
    <circle cx="307.202" cy="170.663" r="17.067"/>
    <path d="M256.001,238.931h-8.533c-2.449,0-4.779-1.05-6.4-2.884c-1.621-1.835-2.372-4.275-2.074-6.707l8.533-68.268l16.93,2.116
	l-8.457,67.747V238.931z"/>
    <path d="M358.403,204.797h-8.533V187.73h8.533c9.412,0,17.067-7.655,17.067-17.067s-7.655-17.067-17.067-17.067h-8.533v-17.067
	h8.533c18.825,0,34.134,15.309,34.134,34.134S377.228,204.797,358.403,204.797z"/>
    <path d="M162.133,204.797h-8.533c-18.825,0-34.134-15.309-34.134-34.134s15.309-34.134,34.134-34.134h8.533v17.067h-8.533
	c-9.412,0-17.067,7.655-17.067,17.067s7.655,17.067,17.067,17.067h8.533V204.797z"/>
    <path d="M257.119,366.933c-40.619-0.009-78.107-22.059-97.836-57.55l-3.14-5.598c-7.271-13.065-11.085-27.845-11.076-42.761V136.529
	h17.067v124.503c-0.009,12.015,3.072,23.928,8.909,34.433l3.14,5.589c16.743,30.106,48.513,48.803,82.928,48.811
	c37.445-0.051,71.468-22.221,86.666-56.449c4.062-9.148,6.11-18.859,6.093-28.869V136.529h17.067v128.002
	c0.017,12.399-2.526,24.448-7.561,35.798C341.438,340.735,301.305,366.874,257.119,366.933z"/>
    <path d="M256.001,281.556c-9.592,0-19.183-1.527-28.306-4.574l5.41-16.179c14.763,4.932,31.028,4.932,45.799,0l5.402,16.179
	C275.176,280.028,265.593,281.556,256.001,281.556z"/>
    <path d="M316.879,271.247c-2.381,0-4.77-0.503-6.997-1.51c-4.164-1.877-7.339-5.257-8.96-9.523l-6.042-15.744
	c-1.254-3.32-4.463-5.53-7.996-5.53h-61.782c-3.823-0.196-6.887,2.167-8.149,5.504l-6.076,15.813
	c-1.28,3.396-3.712,6.375-6.827,8.346c-3.84,2.432-8.414,3.209-12.86,2.236c-4.446-0.998-8.243-3.678-10.684-7.527l-34.134-53.94
	l14.422-9.122l34.134,53.932l6.067-15.821c3.772-9.959,13.184-16.691,24.175-16.487h61.697c10.564,0,20.182,6.639,23.936,16.512
	l6.05,15.753l34.322-53.914l14.405,9.156l-34.305,53.94c-1.963,3.089-4.941,5.513-8.354,6.81
	C320.967,270.88,318.927,271.247,316.879,271.247z"/>
    <path d="M332.802,85.329H189.099c-6.793-0.009-13.568-1.621-19.618-4.659c-21.556-10.914-30.217-37.308-19.311-58.838
	c1.988-3.934,4.557-7.544,7.629-10.71l8.047-8.474c1.92-2.014,4.693-2.953,7.45-2.56c2.748,0.41,5.129,2.133,6.375,4.625
	l6.178,12.348h102.837c17.246,0,35.107,9.37,45.501,23.86c8.67,12.083,11.042,25.797,6.699,38.605
	C339.706,83.007,336.455,85.329,332.802,85.329z M169.839,23.23c-1.809,1.92-3.285,4.019-4.446,6.306
	c-6.656,13.142-1.374,29.244,11.768,35.9c3.669,1.843,7.808,2.825,11.947,2.833h136.757c0.469-7.569-3.055-13.91-5.547-17.391
	c-7.185-10.01-19.892-16.743-31.634-16.743H180.565c-3.234,0-6.187-1.826-7.637-4.719L169.839,23.23z"/>
    <path d="M358.403,153.596c-2.415,0-4.779-1.033-6.426-2.91l-59.734-68.268l12.851-11.239l46.49,53.138l0.538-6.332
	c1.34-15.352-7.808-29.756-22.255-35.047l5.88-16.026c21.667,7.945,35.388,29.551,33.374,52.541l-2.219,26.334
	c-0.282,3.413-2.586,6.323-5.837,7.39C360.195,153.46,359.29,153.596,358.403,153.596z"/>
    <path d="M153.599,153.596c-0.887,0-1.783-0.137-2.662-0.427c-3.251-1.067-5.555-3.977-5.845-7.39l-2.219-26.368
	c-1.826-21.103,9.267-40.841,28.263-50.262l7.586,15.292c-12.664,6.281-20.062,19.439-18.842,33.519l0.538,6.357l46.49-53.138
	l12.843,11.239l-59.734,68.268C158.37,152.572,156.014,153.596,153.599,153.596z"/>
    <path d="M85.332,512.002H68.265v-76.801c0-38.315,28.638-71.041,66.629-76.127l65.503-7.697c5.803-0.7,11.29-3.379,15.429-7.535
	l12.092,12.049c-6.835,6.861-15.889,11.273-25.507,12.433l-65.392,7.68c-29.415,3.942-51.696,29.389-51.687,59.197V512.002z"/>
    <path d="M256.044,424.457c-0.034,0-0.068,0-0.094,0c-34.492,0-65.546-20.48-79.131-52.191l-5.461-12.706l15.685-6.733l5.461,12.715
	c10.897,25.421,35.798,41.848,63.455,41.848c0.026,0,0.051,0,0.077,0c27.657,0,52.566-16.427,63.463-41.848l5.461-12.715
	l15.685,6.733l-5.461,12.715C321.589,403.969,290.528,424.457,256.044,424.457z"/>
    <path d="M153.599,512.002h-17.067v-34.134H76.798v-17.067h68.268c4.71,0,8.533,3.814,8.533,8.533V512.002z"/>
    <path d="M443.738,512.002h-17.067v-76.801c0-29.807-22.272-55.263-51.824-59.205l-65.23-7.663
	c-9.626-1.161-18.68-5.572-25.524-12.433l12.083-12.049c4.147,4.156,9.643,6.835,15.463,7.535l65.341,7.68
	c38.111,5.086,66.757,37.82,66.757,76.136V512.002z"/>
    <path d="M375.47,512.002h-17.067v-42.667c0-4.719,3.814-8.533,8.533-8.533h68.268v17.067H375.47V512.002z"/>
    <g>
</g>
    <g>
</g>
    <g>
</g>
    <g>
</g>
    <g>
</g>
    <g>
</g>
    <g>
</g>
    <g>
</g>
    <g>
</g>
    <g>
</g>
    <g>
</g>
    <g>
</g>
    <g>
</g>
    <g>
</g>
    <g>
</g>
</svg>
