<?xml version="1.0" encoding="iso-8859-1"?>
<!-- Generator: Adobe Illustrator 19.0.0, SVG Export Plug-In . SVG Version: 6.00 Build 0)  -->
<svg version="1.1" id="Capa_1" xmlns="http://www.w3.org/2000/svg" xmlns:xlink="http://www.w3.org/1999/xlink" x="0px"
     y="0px"
     viewBox="0 0 512 512" style="enable-background:new 0 0 512 512;" xml:space="preserve">
<path style="fill:#70432C;" d="M358.396,170.667l17.067-59.733V102.4c0-14.14-11.46-25.6-25.6-25.6l0,0
	c4.727-14.123-2.884-29.406-17.007-34.133c-5.555-1.86-11.571-1.86-17.126,0l0,0l-1.792-5.376
	c-4.062-12.058-15.351-20.19-28.075-20.224l0,0c-12.715,0-25.6,4.949-29.867,17.067c0,0,0-25.6-29.867-25.6l0,0
	c-16.495,0-29.867,13.372-29.867,29.867v4.267l0,0c-14.123-4.727-29.406,2.884-34.133,17.007c-1.86,5.555-1.86,11.571,0,17.126l0,0
	c-14.14,0-25.6,11.46-25.6,25.6v8.533l17.067,68.267h8.533l17.067-93.867c25.207,5.658,50.961,8.516,76.8,8.533
	c25.839-0.017,51.593-2.876,76.8-8.533l17.067,85.333H358.396z"/>
    <path style="fill:#5C3724;" d="M162.129,76.8c-14.14,0-25.6,11.46-25.6,25.6v8.533l17.067,68.267h8.533l17.067-93.867
	c10.112,2.33,20.335,4.156,30.635,5.461c-6.912-15.266-11.494-31.497-13.568-48.128c-14.199-4.659-29.474,3.081-34.133,17.271
	C160.337,65.417,160.337,71.322,162.129,76.8z"/>
    <path style="fill:#FEDAC6;" d="M255.996,401.067c31.044,0.017,59.11-18.483,71.339-47.019l4.096-9.472l-9.387-1.28
	c-8.55-1.118-14.925-8.439-14.848-17.067V281.6h-102.4v44.8c0.077,8.627-6.298,15.949-14.848,17.067l-9.387,1.28l4.096,9.472
	C196.937,382.686,224.994,401.109,255.996,401.067z"/>
    <path style="fill:#DE4C3C;" d="M375.974,350.464l-44.544-5.888l-4.096,9.472c-16.939,39.398-62.609,57.609-102.007,40.67
	c-18.261-7.851-32.811-22.409-40.67-40.67l-4.096-9.472l-44.544,5.888c-33.903,4.531-59.221,33.459-59.221,67.669V512h358.4v-93.867
	C435.196,383.923,409.877,354.995,375.974,350.464z"/>
    <path style="fill:#F5C4B0;"
          d="M307.196,328.875V281.6h-102.4v47.275C243.196,345.515,268.796,345.515,307.196,328.875z"/>
    <path style="fill:#C94536;" d="M76.796,418.133V512h34.133V359.083C89.826,371.268,76.821,393.771,76.796,418.133z"/>
    <rect x="110.929" y="469.333" style="fill:#FEDAC6;" width="34.133" height="42.667"/>
    <rect x="76.796" y="469.333" style="fill:#F5C4B0;" width="34.133" height="42.667"/>
    <g>
	<rect x="366.929" y="469.333" style="fill:#FEDAC6;" width="68.267" height="42.667"/>
        <path style="fill:#FEDAC6;" d="M349.862,145.067h-8.533v51.2h8.533c14.14,0,25.6-11.46,25.6-25.6
		C375.462,156.527,364.002,145.067,349.862,145.067z"/>
</g>
    <path style="fill:#F5C4B0;" d="M136.529,179.2c0,14.14,11.46,25.6,25.6,25.6h8.533v-51.2h-8.533
	C147.989,153.6,136.529,165.06,136.529,179.2z"/>
    <path style="fill:#FEDAC6;" d="M349.862,153.6l-7.424,79.957c-0.742,9.011-4.326,17.562-10.24,24.405L289.276,307.2
	c-4.907,5.487-11.93,8.593-19.285,8.533h-27.989c-7.356,0.06-14.379-3.046-19.285-8.533l-42.667-49.067
	c-5.914-6.844-9.498-15.394-10.24-24.405l-7.68-80.128l17.067-68.267l0,0c51.046,5.632,102.554,5.632,153.6,0l0,0L349.862,153.6z"/>
    <path style="fill:#F5C4B0;" d="M199.249,87.296c-6.741-0.597-13.397-1.195-20.053-1.963L162.129,153.6l7.424,79.957
	c0.742,9.011,4.326,17.562,10.24,24.405l22.443,25.6C193.643,218.479,192.644,152.61,199.249,87.296z"/>
    <path d="M349.862,204.8h-8.533v-17.067h8.533c9.412,0,17.067-7.654,17.067-17.067c0-9.412-7.654-17.067-17.067-17.067h-8.533
	v-17.067h8.533c18.825,0,34.133,15.309,34.133,34.133S368.687,204.8,349.862,204.8z"/>
    <path d="M170.662,213.333h-8.533c-18.825,0-34.133-15.309-34.133-34.133s15.309-34.133,34.133-34.133h8.533v17.067h-8.533
	c-9.412,0-17.067,7.654-17.067,17.067s7.654,17.067,17.067,17.067h8.533V213.333z"/>
    <path d="M264.529,221.867h-25.6c-2.534,0-4.932-1.126-6.554-3.072c-1.621-1.946-2.295-4.514-1.835-7.006l11.349-61.867l16.785,3.081
	l-9.506,51.797h15.36V221.867z"/>
    <rect x="230.396" y="238.933" width="51.2" height="17.067"/>
    <path d="M241.737,324.267c-9.643,0-18.901-4.13-25.378-11.375l-42.743-49.161c-7.159-8.286-11.409-18.415-12.305-29.303
	l-7.671-80.017c-0.094-0.964-0.017-1.946,0.213-2.884l17.067-68.267c1.033-4.139,4.966-6.878,9.216-6.409
	c50.338,5.555,101.376,5.547,151.731,0c4.139-0.486,8.166,2.261,9.207,6.409l17.067,68.267c0.23,0.93,0.307,1.903,0.222,2.859
	l-7.424,79.957c-0.887,10.803-5.146,20.932-12.279,29.193l-42.94,49.263c-6.562,7.339-15.821,11.469-25.532,11.469
	c-0.085,0-0.179,0-0.265,0h-27.921C241.916,324.267,241.822,324.267,241.737,324.267z M170.765,154.249l7.543,78.669
	c0.606,7.373,3.439,14.123,8.201,19.635l42.65,49.05c3.191,3.567,7.697,5.504,12.783,5.598h28.058c0.043,0,0.094,0,0.145,0
	c4.915,0,9.549-2.065,12.791-5.692l42.846-49.152c4.745-5.487,7.578-12.237,8.166-19.499l7.296-78.601l-14.916-59.665
	c-46.703,4.651-93.935,4.651-140.638,0L170.765,154.249z"/>
    <circle cx="204.796" cy="162.133" r="17.067"/>
    <circle cx="298.662" cy="162.133" r="17.067"/>
    <rect x="204.274" y="226.122" transform="matrix(-0.9701 0.2427 -0.2427 -0.9701 494.0485 408.448)" width="35.183"
          height="17.067"/>
    <rect x="281.573" y="217.078" transform="matrix(-0.2425 0.9701 -0.9701 -0.2425 588.1233 10.133)" width="17.066"
          height="35.181"/>
    <path d="M136.649,163.541l-8.533-51.2c-0.085-0.469-0.119-0.939-0.119-1.408V102.4c0-15.386,10.231-28.425,24.243-32.674
	c-0.179-4.309,0.418-8.661,1.792-12.766c3.012-8.986,9.344-16.265,17.835-20.497c5.137-2.56,10.718-3.789,16.273-3.738
	C190.903,14.225,206.886,0,226.129,0c17.741,0,27.682,7.817,32.973,16.341c6.869-5.035,16.077-7.808,26.761-7.808
	c15.804,0.034,29.858,9.745,35.541,24.329c4.762-0.367,9.609,0.188,14.157,1.715c8.994,3.012,16.273,9.344,20.506,17.826
	c2.714,5.461,3.968,11.392,3.712,17.331c14.003,4.258,24.218,17.289,24.218,32.666v8.533c0,0.563-0.06,1.118-0.171,1.673
	l-8.533,42.667l-16.734-3.354l8.371-41.83V102.4c0-9.412-7.654-17.067-17.067-17.067c-2.739,0-5.325-1.323-6.929-3.55
	c-1.604-2.227-2.039-5.094-1.161-7.697c1.57-4.668,1.22-9.66-0.973-14.071c-2.202-4.412-5.982-7.697-10.65-9.259
	c-3.772-1.263-7.919-1.263-11.708,0c-2.15,0.708-4.489,0.555-6.519-0.452c-2.022-1.015-3.567-2.79-4.284-4.941l-1.792-5.376
	c-2.893-8.576-10.931-14.37-20.002-14.387c-4.164,0-18.082,0.819-21.803,11.366c-1.382,3.917-5.35,6.289-9.489,5.581
	c-4.096-0.7-7.091-4.258-7.091-8.414c-0.085-3.934-1.886-17.067-21.333-17.067c-11.759,0-21.333,9.574-21.333,21.333v4.267
	c0,2.748-1.323,5.325-3.55,6.929c-2.227,1.604-5.094,2.031-7.689,1.169c-9.668-3.243-20.105,1.988-23.33,11.622
	c-1.263,3.78-1.263,7.936,0,11.708c0.862,2.594,0.435,5.461-1.169,7.689s-4.181,3.55-6.929,3.55
	c-9.412,0-17.067,7.654-17.067,17.067v7.825l8.414,50.5L136.649,163.541z"/>
    <rect x="247.462" y="290.133" width="17.067" height="17.067"/>
    <rect x="212.632" y="285.883" transform="matrix(-0.3164 0.9486 -0.9486 -0.3164 576.9603 173.0661)" width="26.982"
          height="17.066"/>
    <rect x="277.324" y="280.922" transform="matrix(-0.9487 0.3162 -0.3162 -0.9487 650.1324 483.3361)" width="17.058"
          height="26.983"/>
    <path d="M85.329,512H68.262v-93.867c0-38.315,28.638-71.04,66.628-76.126l53.931-7.168c4.284-0.563,7.475-4.233,7.441-8.533v-36.173
	h17.067v36.096c0.111,12.834-9.463,23.842-22.272,25.523l-53.914,7.168c-29.542,3.951-51.814,29.406-51.814,59.213V512z"/>
    <path d="M443.729,512h-17.067v-93.867c-0.077-29.705-22.349-55.1-51.823-59.042l-53.914-7.168
	c-12.791-1.664-22.366-12.672-22.255-25.6v-36.19h17.067V326.4c-0.043,4.386,3.149,8.047,7.424,8.61l53.939,7.168
	c37.897,5.069,66.543,37.709,66.637,75.938V512H443.729z"/>
    <path d="M256.038,409.6c-0.034,0-0.068,0-0.094,0c-34.492,0-65.545-20.48-79.13-52.19l-5.461-12.706l15.684-6.733l5.461,12.715
	c10.897,25.421,35.797,41.847,63.454,41.847c0.026,0,0.051,0,0.077,0c27.657,0,52.565-16.427,63.471-41.847l5.461-12.715
	l15.684,6.733l-5.461,12.715C321.591,389.12,290.522,409.6,256.038,409.6z"/>
    <rect x="136.529" y="443.733" width="17.067" height="68.267"/>
    <rect x="76.796" y="460.8" width="68.267" height="17.067"/>
    <rect x="358.396" y="443.733" width="17.067" height="68.267"/>
    <rect x="366.929" y="460.8" width="68.267" height="17.067"/>
    <g>
</g>
    <g>
</g>
    <g>
</g>
    <g>
</g>
    <g>
</g>
    <g>
</g>
    <g>
</g>
    <g>
</g>
    <g>
</g>
    <g>
</g>
    <g>
</g>
    <g>
</g>
    <g>
</g>
    <g>
</g>
    <g>
</g>
</svg>
