<?xml version="1.0" encoding="iso-8859-1"?>
<!-- Generator: Adobe Illustrator 19.0.0, SVG Export Plug-In . SVG Version: 6.00 Build 0)  -->
<svg version="1.1" id="Capa_1" xmlns="http://www.w3.org/2000/svg" xmlns:xlink="http://www.w3.org/1999/xlink" x="0px"
     y="0px"
     viewBox="0 0 512 512" style="enable-background:new 0 0 512 512;" xml:space="preserve">
<path style="fill:#FEDAC6;" d="M255.996,401.067c31.044,0.017,59.11-18.483,71.339-47.019l4.096-9.472l-9.387-1.28
	c-8.55-1.118-14.925-8.439-14.848-17.067V281.6h-102.4v44.8c0.077,8.627-6.298,15.949-14.848,17.067l-9.387,1.28l4.096,9.472
	C196.937,382.686,224.994,401.109,255.996,401.067z"/>
    <path style="fill:#787D82;" d="M375.974,350.464l-44.544-5.888l-4.096,9.472c-16.939,39.398-62.609,57.609-102.007,40.67
	c-18.261-7.851-32.811-22.409-40.67-40.67l-4.096-9.472l-44.544,5.888c-33.903,4.531-59.221,33.459-59.221,67.669V512h358.4v-93.867
	C435.196,383.923,409.877,354.995,375.974,350.464z"/>
    <path style="fill:#F5C4B0;"
          d="M307.196,324.267V281.6h-102.4v42.667C243.196,341.333,268.796,341.333,307.196,324.267z"/>
    <path style="fill:#717478;" d="M76.796,418.133V512h34.133V359.083C89.826,371.268,76.821,393.771,76.796,418.133z"/>
    <rect x="110.929" y="469.333" style="fill:#FEDAC6;" width="34.133" height="42.667"/>
    <rect x="76.796" y="469.333" style="fill:#F5C4B0;" width="34.133" height="42.667"/>
    <g>
	<rect x="366.929" y="469.333" style="fill:#FEDAC6;" width="68.267" height="42.667"/>
        <path style="fill:#FEDAC6;" d="M358.396,119.467h-8.533v51.2h8.533c14.14,0,25.6-11.46,25.6-25.6
		C383.996,130.927,372.535,119.467,358.396,119.467z"/>
</g>
    <path style="fill:#F5C4B0;" d="M127.996,145.067c0,14.14,11.46,25.6,25.6,25.6h8.533v-51.2h-8.533
	C139.456,119.467,127.996,130.927,127.996,145.067z"/>
    <path style="fill:#A15D30;" d="M198.737,82.688l6.059-14.421c33.903,5.632,68.497,5.632,102.4,0
	c5.564,16.674,16.068,31.258,30.123,41.813l12.544,10.667v-1.28c11.213-48.777-19.234-97.408-68.011-108.629
	c-6.63-1.527-13.414-2.295-20.224-2.304h-11.264c-50.048,0.043-90.59,40.661-90.539,90.709c0.009,6.81,0.777,13.594,2.304,20.224
	V128l17.067-17.067C187.541,102.929,194.189,93.321,198.737,82.688z"/>
    <g>
	<path id="SVGCleanerId_0" style="fill:#F5C4B0;" d="M337.318,110.08c-14.054-10.556-24.559-25.139-30.123-41.813
		c-33.903,5.632-68.497,5.632-102.4,0l-6.059,14.421c-4.548,10.633-11.196,20.241-19.541,28.245L162.129,128v88.491
		c0.043,19.618,8.533,38.272,23.296,51.2l25.6,22.443c25.719,22.443,64.051,22.443,89.771,0l25.6-22.443
		c14.763-12.928,23.253-31.582,23.296-51.2v-95.744L337.318,110.08z"/>
</g>
    <path style="fill:#8F4F24;" d="M196.262,87.893v-8.021c-0.017-18.901,4.028-37.581,11.861-54.784l3.584-8.021
	c-38.588,18.193-59.238,60.851-49.579,102.4V128l17.067-17.067C186.142,104.269,191.91,96.478,196.262,87.893z"/>
    <path id="SVGCleanerId_1" style="fill:#F5C4B0;" d="M196.262,203.947V87.893c-4.352,8.585-10.121,16.375-17.067,23.04L162.129,128
	v88.491c0.043,19.618,8.533,38.272,23.296,51.2l25.6,22.443c4.292,3.712,9.02,6.895,14.08,9.472l-18.773-44.971
	C199.701,238.558,196.279,221.338,196.262,203.947z"/>
    <path style="fill:#F5C4B0;" d="M307.196,68.267c-33.903,5.632-68.497,5.632-102.4,0l-6.059,14.421
	c-0.683,1.792-1.621,3.499-2.475,5.205v116.053c-0.026,17.57,3.43,34.97,10.155,51.2l18.773,44.971
	c24.909,12.407,54.852,8.457,75.691-9.984l25.6-22.443c14.763-12.928,23.253-31.582,23.296-51.2v-95.744l-12.459-10.667
	C323.264,99.524,312.759,84.941,307.196,68.267z"/>
    <g>
	<g>
		<path id="SVGCleanerId_0_1_" style="fill:#FEDAC6;" d="M337.318,110.08c-14.054-10.556-24.559-25.139-30.123-41.813
			c-33.903,5.632-68.497,5.632-102.4,0l-6.059,14.421c-4.548,10.633-11.196,20.241-19.541,28.245L162.129,128v88.491
			c0.043,19.618,8.533,38.272,23.296,51.2l25.6,22.443c25.719,22.443,64.051,22.443,89.771,0l25.6-22.443
			c14.763-12.928,23.253-31.582,23.296-51.2v-95.744L337.318,110.08z"/>
	</g>
        <g>
		<path id="SVGCleanerId_0_2_" style="fill:#FEDAC6;" d="M337.318,110.08c-14.054-10.556-24.559-25.139-30.123-41.813
			c-33.903,5.632-68.497,5.632-102.4,0l-6.059,14.421c-4.548,10.633-11.196,20.241-19.541,28.245L162.129,128v88.491
			c0.043,19.618,8.533,38.272,23.296,51.2l25.6,22.443c25.719,22.443,64.051,22.443,89.771,0l25.6-22.443
			c14.763-12.928,23.253-31.582,23.296-51.2v-95.744L337.318,110.08z"/>
	</g>
</g>
    <g>
	<path id="SVGCleanerId_1_1_" style="fill:#F5C4B0;" d="M196.262,203.947V87.893c-4.352,8.585-10.121,16.375-17.067,23.04
		L162.129,128v88.491c0.043,19.618,8.533,38.272,23.296,51.2l25.6,22.443c4.292,3.712,9.02,6.895,14.08,9.472l-18.773-44.971
		C199.701,238.558,196.279,221.338,196.262,203.947z"/>
</g>
    <path style="fill:#A15D30;" d="M273.062,204.8h-34.133c-18.85,0-34.133,15.283-34.133,34.133v45.909l6.315,5.461
	c25.719,22.443,64.051,22.443,89.771,0l6.315-5.461v-45.909C307.196,220.083,291.913,204.8,273.062,204.8L273.062,204.8z"/>
    <path d="M253.299,204.365l-25.6-8.533c-2.261-0.751-4.105-2.423-5.086-4.599c-0.981-2.176-0.998-4.659-0.06-6.861l25.6-59.733
	l15.684,6.724l-21.948,51.209l16.802,5.598L253.299,204.365z"/>
    <path d="M358.396,179.2h-8.533v-17.067h8.533c9.412,0,17.067-7.654,17.067-17.067c0-9.412-7.654-17.067-17.067-17.067h-8.533
	v-17.067h8.533c18.825,0,34.133,15.309,34.133,34.133S377.22,179.2,358.396,179.2z"/>
    <path d="M162.129,179.2h-8.533c-18.825,0-34.133-15.309-34.133-34.133s15.309-34.133,34.133-34.133h8.533V128h-8.533
	c-9.412,0-17.067,7.654-17.067,17.067c0,9.412,7.654,17.067,17.067,17.067h8.533V179.2z"/>
    <circle cx="204.796" cy="145.067" r="17.067"/>
    <circle cx="298.662" cy="145.067" r="17.067"/>
    <path d="M236.907,247.467c-0.009,0-0.017,0-0.026,0h-6.485V230.4h6.485c0.009,0,0.017,0,0.026,0c11.17,0,22.357-2.637,32.341-7.637
	l7.637,15.266C264.538,244.207,250.714,247.467,236.907,247.467z"/>
    <path d="M256.03,315.733c-18.697-0.051-36.659-6.869-50.654-19.2l-25.583-22.426c-16.597-14.532-26.155-35.533-26.206-57.6v-96.094
	c-1.527-6.946-2.304-14.063-2.304-21.163C151.241,44.578,195.682,0.051,250.355,0h11.273c7.407,0.009,14.822,0.862,22.05,2.517
	c52.966,12.177,86.263,64.93,74.633,117.888v96.085c-0.06,22.093-9.609,43.093-26.214,57.626l-25.591,22.434
	C292.561,308.838,274.641,315.657,256.03,315.733z M250.364,17.067c-45.252,0.043-82.048,36.898-82.005,82.167
	c0,6.153,0.708,12.314,2.091,18.321c0.145,0.631,0.213,1.271,0.213,1.911v97.024c0.043,17.143,7.467,33.476,20.386,44.783
	l25.6,22.443c10.897,9.609,24.875,14.916,39.364,14.95c14.413-0.06,28.365-5.359,39.219-14.933l25.617-22.46
	c12.919-11.307,20.352-27.639,20.395-44.8v-97.007c0-0.64,0.077-1.28,0.213-1.911c10.138-44.109-17.493-88.252-61.602-98.398
	c-5.982-1.382-12.117-2.082-18.244-2.091H250.364z"/>
    <path d="M168.162,134.033l-12.066-12.066l17.067-17.067c7.569-7.39,13.406-16,17.442-25.668l6.391-14.421
	c1.579-3.55,5.342-5.581,9.199-4.958c33.05,5.495,66.56,5.495,99.601,0c4.156-0.691,8.166,1.732,9.489,5.717
	c5.035,15.104,14.421,28.126,27.162,37.692l12.535,9.378l-10.24,13.662l-12.544-9.387c-13.577-10.197-24.03-23.629-30.549-39.151
	c-30.464,4.378-61.252,4.361-91.708-0.06l-3.669,8.269c-4.847,11.622-11.972,22.135-21.12,31.061L168.162,134.033z"/>
    <path d="M315.729,281.6h-17.067v-42.667c0-14.114-11.486-25.6-25.6-25.6h-34.133c-14.114,0-25.6,11.486-25.6,25.6V281.6h-17.067
	v-42.667c0-23.526,19.14-42.667,42.667-42.667h34.133c23.526,0,42.667,19.14,42.667,42.667V281.6z"/>
    <rect x="247.462" y="264.533" width="17.067" height="42.667"/>
    <path d="M85.329,512H68.262v-93.867c0-38.315,28.638-71.04,66.628-76.126l53.931-7.168c4.284-0.563,7.475-4.233,7.441-8.533V281.6
	h17.067v44.629c0.111,12.834-9.463,23.842-22.272,25.523l-53.914,7.168c-29.542,3.951-51.814,29.406-51.814,59.213V512z"/>
    <path d="M443.729,512h-17.067v-93.867c-0.077-29.705-22.349-55.1-51.823-59.042l-53.914-7.168
	c-12.791-1.664-22.366-12.672-22.255-25.6V281.6h17.067v44.8c-0.043,4.386,3.149,8.047,7.424,8.61l53.939,7.168
	c37.897,5.069,66.543,37.709,66.637,75.938V512H443.729z"/>
    <path d="M256.038,409.6c-0.034,0-0.068,0-0.094,0c-34.492,0-65.545-20.48-79.13-52.19l-5.461-12.706l15.684-6.733l5.461,12.715
	c10.897,25.421,35.797,41.847,63.454,41.847c0.026,0,0.051,0,0.077,0c27.657,0,52.565-16.427,63.471-41.847l5.461-12.715
	l15.684,6.733l-5.461,12.715C321.591,389.12,290.522,409.6,256.038,409.6z"/>
    <rect x="136.529" y="443.733" width="17.067" height="68.267"/>
    <rect x="76.796" y="460.8" width="68.267" height="17.067"/>
    <rect x="358.396" y="443.733" width="17.067" height="68.267"/>
    <rect x="366.929" y="460.8" width="68.267" height="17.067"/>
    <g>
</g>
    <g>
</g>
    <g>
</g>
    <g>
</g>
    <g>
</g>
    <g>
</g>
    <g>
</g>
    <g>
</g>
    <g>
</g>
    <g>
</g>
    <g>
</g>
    <g>
</g>
    <g>
</g>
    <g>
</g>
    <g>
</g>
</svg>
