<?xml version="1.0" encoding="iso-8859-1"?>
<!-- Generator: Adobe Illustrator 19.0.0, SVG Export Plug-In . SVG Version: 6.00 Build 0)  -->
<svg version="1.1" id="Capa_1" xmlns="http://www.w3.org/2000/svg" xmlns:xlink="http://www.w3.org/1999/xlink" x="0px"
     y="0px"
     viewBox="0 0 512 512" style="enable-background:new 0 0 512 512;" xml:space="preserve">
<path style="fill:#E56B2E;" d="M375.979,350.464l-9.045-0.597V332.8c0-14.14-11.46-25.6-25.6-25.6H170.667
	c-14.14,0-25.6,11.46-25.6,25.6v17.067l-9.045,1.024c-33.749,4.514-59.008,33.195-59.221,67.243V512h358.4v-93.867
	C435.2,383.923,409.882,354.995,375.979,350.464z"/>
    <path style="fill:#EBEBEB;" d="M256,401.067c-23.1,0-44.996-10.291-59.733-28.075V512h119.467V372.992
	C300.996,390.775,279.1,401.067,256,401.067z"/>
    <path style="fill:#FEDAC6;" d="M313.685,343.125c-8.619-1.041-15.078-8.388-15.019-17.067v-61.525h-85.333v61.611
	c0.06,8.678-6.4,16.026-15.019,17.067h-2.048v29.611c27.332,32.99,76.228,37.581,109.218,10.249
	c3.729-3.089,7.159-6.519,10.249-10.249v-29.44L313.685,343.125z"/>
    <path style="fill:#DBDBDB;" d="M230.4,396.715c-13.346-4.617-25.156-12.826-34.133-23.723V512H230.4V396.715z"/>
    <path style="fill:#D65B25;" d="M76.8,418.133V512h34.133V359.168C89.856,371.337,76.851,393.796,76.8,418.133z"/>
    <path style="fill:#FEDAC6;"
          d="M341.333,196.267H358.4c14.14,0,25.6-11.46,25.6-25.6l0,0c0-14.14-11.46-25.6-25.6-25.6h-8.533"/>
    <path style="fill:#F5C4B0;"
          d="M170.667,196.267H153.6c-14.14,0-25.6-11.46-25.6-25.6l0,0c0-14.14,11.46-25.6,25.6-25.6h8.533"/>
    <path style="fill:#FECB66;" d="M349.867,93.867H179.2c-28.279,0-51.2-22.921-51.2-51.2h34.133c-14.14,0-25.6-11.46-25.6-25.6V8.533
	h128C311.663,8.533,349.867,46.737,349.867,93.867z"/>
    <path style="fill:#FEDAC6;" d="M162.133,93.867V179.2l2.048,26.624c4.352,50.756,49.033,88.38,99.789,84.028
	c2.765-0.239,5.513-0.597,8.243-1.084c42.044-8.132,73.25-43.699,75.861-86.443l1.792-23.125V93.867H162.133z"/>
    <path style="fill:#F5C4B0;" d="M196.267,190.72V85.333h-34.133V179.2l2.048,26.624c3.004,36.369,27.307,67.482,61.867,79.189
	l-15.872-35.243C201.028,231.433,196.267,211.217,196.267,190.72z"/>
    <path style="fill:#F5AD76;" d="M196.267,85.333c0.333,24.636-12.74,47.514-34.133,59.733V85.333H196.267z"/>
    <path style="fill:#FECB66;" d="M349.867,145.067c0,0-34.133-17.067-34.133-51.2h34.133V145.067z"/>
    <path style="fill:#F5C4B0;" d="M298.667,307.2v-25.6h-85.333v25.6C245.333,324.267,266.667,324.267,298.667,307.2z"/>
    <path style="fill:#F5AD76;" d="M128,42.667c1.963,27.418,23.782,49.237,51.2,51.2h162.133C268.791,83.43,197.376,66.295,128,42.667z
	"/>
    <path style="fill:#D65B25;" d="M198.656,344.491c1.493-2.603,3.601-4.804,6.144-6.4c5.308-3.302,8.533-9.114,8.533-15.36V307.2
	h-35.499c-18.142-0.026-32.879,14.652-32.905,32.802c-0.009,6.554,1.937,12.962,5.598,18.398l10.411,15.531
	C169.071,359.467,182.656,348.868,198.656,344.491z"/>
    <path d="M349.867,102.4H179.2c-32.939,0-59.733-26.795-59.733-59.733c0-4.71,3.823-8.533,8.533-8.533h4.582
	C129.664,29.107,128,23.279,128,17.067V8.533C128,3.823,131.823,0,136.533,0h128C316.288,0,358.4,42.112,358.4,93.867
	C358.4,98.577,354.586,102.4,349.867,102.4z M137.395,51.2c3.959,19.447,21.205,34.133,41.805,34.133h161.655
	C336.597,46.985,304,17.067,264.533,17.067H145.067c0,9.412,7.654,17.067,17.067,17.067c4.71,0,8.533,3.823,8.533,8.533
	s-3.823,8.533-8.533,8.533H137.395z"/>
    <path d="M165.948,152.704l-7.637-15.266l3.823,7.629l-3.84-7.62c0.29-0.154,29.44-15.283,29.44-43.58H204.8
	C204.8,132.821,167.535,151.902,165.948,152.704z"/>
    <path d="M346.052,152.704c-1.587-0.802-38.852-19.883-38.852-58.837h17.067c0,28.297,29.141,43.426,29.44,43.58L346.052,152.704z"/>
    <circle cx="204.8" cy="162.133" r="17.067"/>
    <circle cx="307.2" cy="162.133" r="17.067"/>
    <path d="M264.533,204.8h-25.6c-2.833,0-5.478-1.408-7.066-3.746s-1.911-5.325-0.862-7.953l17.067-42.667l15.846,6.34l-12.382,30.959
	h12.996V204.8z"/>
    <path d="M240.384,238.933h-1.451v-17.067h1.451c13.286-0.009,25.779-5.18,35.183-14.575l12.066,12.075
	C275.012,231.979,258.236,238.925,240.384,238.933z"/>
    <path d="M358.4,204.8h-8.533v-17.067h8.533c9.412,0,17.067-7.654,17.067-17.067c0-9.412-7.654-17.067-17.067-17.067h-8.533v-17.067
	h8.533c18.825,0,34.133,15.309,34.133,34.133S377.225,204.8,358.4,204.8z"/>
    <path d="M162.133,204.8H153.6c-18.825,0-34.133-15.309-34.133-34.133s15.309-34.133,34.133-34.133h8.533V153.6H153.6
	c-9.412,0-17.067,7.654-17.067,17.067c0,9.412,7.654,17.067,17.067,17.067h8.533V204.8z"/>
    <path d="M256.094,298.718c-47.991,0-90.573-34.381-99.234-83.157c-0.529-2.987-0.93-5.999-1.186-9.02l-2.057-26.684l-0.017-85.99
	h17.067V179.2l2.022,25.967c0.205,2.441,0.538,4.932,0.973,7.407c8.073,45.449,51.558,75.836,97.058,67.789
	c38.101-7.373,66.458-39.689,68.83-78.566l1.801-23.262l-0.017-84.668H358.4V179.2l-1.818,23.782
	c-2.833,46.507-36.864,85.282-82.748,94.157C267.887,298.197,261.948,298.718,256.094,298.718z"/>
    <path d="M204.8,512h-17.067V343.211c0-4.719,3.823-8.533,8.533-8.533h1.451c4.096-0.7,7.108-4.275,7.083-8.474V281.6h17.067v44.544
	c0.077,11.068-6.963,20.71-17.067,24.269V512z"/>
    <path d="M85.333,512H68.267v-93.867c0-38.315,28.638-71.04,66.628-76.126l9.609-0.657l1.135,17.033l-9.045,0.597
	c-28.988,3.891-51.26,29.346-51.26,59.153V512z"/>
    <path d="M256,409.6c-25.728,0-49.894-11.358-66.304-31.164l13.141-10.88c13.158,15.872,32.538,24.977,53.163,24.977
	c20.625,0,40.004-9.105,53.163-24.994l13.133,10.897C305.886,398.242,281.719,409.6,256,409.6z"/>
    <path d="M189.175,431.42l-45.739-68.267c-4.608-6.938-6.989-14.967-6.912-23.27c0-22.69,18.526-41.216,41.301-41.216h35.507v17.067
	h-35.499c-13.363,0-24.235,10.871-24.235,24.235c-0.051,4.949,1.348,9.668,4.036,13.705l45.722,68.241L189.175,431.42z"/>
    <path d="M170.667,494.933c-4.71,0-8.533-3.814-8.533-8.533v-51.2c0-4.719,3.823-8.533,8.533-8.533s8.533,3.814,8.533,8.533v51.2
	C179.2,491.119,175.377,494.933,170.667,494.933z"/>
    <path d="M324.267,512H307.2V350.404c-10.112-3.558-17.152-13.21-17.067-24.337V281.6H307.2v44.544
	c-0.034,4.258,2.987,7.834,7.083,8.533h1.451c4.719,0,8.533,3.814,8.533,8.533V512z"/>
    <path d="M443.733,512h-17.067v-93.867c0-29.807-22.272-55.262-51.823-59.204l-8.474-0.538l1.135-17.033l9.045,0.597
	c38.545,5.129,67.183,37.862,67.183,76.177V512z"/>
    <path d="M322.825,431.42l-14.182-9.498l45.739-68.267c2.671-4.019,4.07-8.73,4.019-13.602c0-13.44-10.871-24.32-24.235-24.32
	h-35.499v-17.067h35.499c22.775,0,41.301,18.526,41.301,41.301c0.085,8.209-2.304,16.247-6.886,23.159L322.825,431.42z"/>
    <path d="M341.333,494.933c-4.719,0-8.533-3.814-8.533-8.533v-51.2c0-4.719,3.814-8.533,8.533-8.533c4.719,0,8.533,3.814,8.533,8.533
	v51.2C349.867,491.119,346.052,494.933,341.333,494.933z"/>
    <g>
</g>
    <g>
</g>
    <g>
</g>
    <g>
</g>
    <g>
</g>
    <g>
</g>
    <g>
</g>
    <g>
</g>
    <g>
</g>
    <g>
</g>
    <g>
</g>
    <g>
</g>
    <g>
</g>
    <g>
</g>
    <g>
</g>
</svg>
