<?xml version="1.0" encoding="iso-8859-1"?>
<!-- Generator: Adobe Illustrator 19.0.0, SVG Export Plug-In . SVG Version: 6.00 Build 0)  -->
<svg version="1.1" id="Capa_1" xmlns="http://www.w3.org/2000/svg" xmlns:xlink="http://www.w3.org/1999/xlink" x="0px"
     y="0px"
     viewBox="0 0 512 512" style="enable-background:new 0 0 512 512;" xml:space="preserve">
<path style="fill:#5C3724;" d="M358.357,187.733v59.051c0.009,29.943,21.666,55.492,51.2,60.416l0,0V76.8
	c0-28.279-22.921-51.2-51.2-51.2h-42.667l42.667,85.333V187.733z"/>
    <path style="fill:#70432C;" d="M366.891,136.533v-17.067c0-61.269-49.664-110.933-110.933-110.933l0,0
	c-61.269,0-110.933,49.664-110.933,110.933v42.667h221.867V136.533z"/>
    <path style="fill:#5C3724;" d="M215.509,16.213c-42.496,16.64-70.468,57.617-70.485,103.253v42.667h47.616
	C192.162,112.563,199.885,63.258,215.509,16.213z"/>
    <rect x="110.891" y="443.733" style="fill:#FEDAC6;" width="34.133" height="68.267"/>
    <rect x="76.757" y="443.733" style="fill:#F5C4B0;" width="34.133" height="68.267"/>
    <rect x="366.891" y="443.733" style="fill:#FEDAC6;" width="68.267" height="68.267"/>
    <path style="fill:#2E6AA3;" d="M435.157,403.627c0.196-25.984-19.098-48-44.885-51.2l-59.221-7.424l-3.755,8.533
	c-16.939,39.398-62.609,57.609-102.007,40.67c-18.261-7.851-32.811-22.409-40.67-40.67l-3.755-8.533l-59.221,7.424
	c-25.788,3.2-45.082,25.216-44.885,51.2v40.107h68.267l-1.792,3.584c-10.052,20.079-15.283,42.231-15.275,64.683h256
	c0.009-22.451-5.222-44.604-15.275-64.683l-1.792-3.584h68.267V403.627z"/>
    <path style="fill:#245E8F;" d="M110.891,355.413c-20.437,7.228-34.108,26.539-34.133,48.213v40.107h34.133V355.413z"/>
    <path style="fill:#FEDAC6;" d="M255.957,401.067c31.044,0.017,59.11-18.483,71.339-47.019l3.755-8.533l-17.067-2.133
	c-8.585-1.084-15.002-8.414-14.933-17.067V281.6h-85.76v44.629c0.068,8.653-6.349,15.983-14.933,17.067l-17.493,2.133l3.755,8.533
	C196.821,382.532,224.896,401.067,255.957,401.067z"/>
    <path style="fill:#F5C4B0;"
          d="M298.624,328.875V281.6h-85.333v47.275C245.291,345.515,266.624,345.515,298.624,328.875z"/>
    <path style="fill:#245E8F;" d="M136.491,462.592c-5.803,15.821-8.695,32.555-8.533,49.408h57.003
	C162.287,503.518,144.538,485.427,136.491,462.592z"/>
    <circle cx="307.157" cy="162.133" r="17.067"/>
    <path id="SVGCleanerId_0" d="M253.261,221.431l-25.6-8.533c-2.347-0.785-4.241-2.543-5.18-4.83
	c-0.947-2.287-0.853-4.873,0.247-7.083l25.6-51.2l15.266,7.637l-21.197,42.402l16.265,5.419L253.261,221.431z"/>
    <circle cx="196.224" cy="162.133" r="17.067"/>
    <path style="fill:#FEDAC6;" d="M349.824,136.533l-1.621,66.389c0.247,35.849-20.139,68.651-52.395,84.309l-17.067,8.533
	l16.128-8.107l-16.128,8.107c-14.396,7.185-31.343,7.185-45.739,0l-17.067-8.533c-32.256-15.659-52.642-48.461-52.395-84.309
	l-1.451-57.856l21.163-49.408c2.697-6.272,8.875-10.334,15.701-10.325h114.688c6.477,0,12.39,3.669,15.275,9.472L349.824,136.533z"
    />
    <path style="fill:#F5C4B0;" d="M127.957,162.133c0,14.14,11.46,25.6,25.6,25.6h17.067v-51.2h-17.067
	C139.418,136.533,127.957,147.994,127.957,162.133z"/>
    <path style="fill:#FEDAC6;" d="M358.357,136.533h-17.067v51.2h17.067c14.14,0,25.6-11.46,25.6-25.6
	C383.957,147.994,372.497,136.533,358.357,136.533z"/>
    <path style="fill:#F5C4B0;" d="M196.224,212.821c-4.531-42.496-3.004-85.419,4.523-127.488h-1.792
	c-6.972-0.137-13.321,3.985-16.043,10.411l-20.821,49.323l1.621,57.856c-0.247,35.849,20.139,68.651,52.395,84.309l3.072,1.621
	l-5.888-11.093C202.027,257.877,199.808,237.739,196.224,212.821z"/>
    <circle cx="307.157" cy="162.133" r="17.067"/>
    <g>
	<path id="SVGCleanerId_0_1_" d="M253.261,221.431l-25.6-8.533c-2.347-0.785-4.241-2.543-5.18-4.83
		c-0.947-2.287-0.853-4.873,0.247-7.083l25.6-51.2l15.266,7.637l-21.197,42.402l16.265,5.419L253.261,221.431z"/>
</g>
    <circle cx="196.224" cy="162.133" r="17.067"/>
    <polygon points="324.745,273.067 324.224,273.067 324.224,256 "/>
    <path d="M153.557,145.067h-17.067v-25.6C136.491,53.589,190.08,0,255.957,0s119.467,53.589,119.467,119.467v17.067h-17.067v-17.067
	c0-56.465-45.935-102.4-102.4-102.4s-102.4,45.935-102.4,102.4L153.557,145.067L153.557,145.067z"/>
    <path d="M255.863,309.649c-9.165,0-18.321-2.082-26.667-6.246l-17.075-8.533c-34.927-16.956-57.378-53.086-57.105-92.006
	l-0.154-6.596h-1.306c-18.825,0-34.133-15.309-34.133-34.133S134.733,128,153.557,128h8.533c4.642,0,8.431,3.712,8.533,8.346
	l1.451,66.389c-0.222,32.623,18.458,62.686,47.582,76.826l17.161,8.576c11.921,5.948,26.18,5.939,38.101,0l16.119-8.098
	c0.247-0.128,0.503-0.23,0.751-0.333l0.196-0.102c29.218-14.182,47.898-44.245,47.684-76.621l1.613-66.654
	c0.119-4.625,3.9-8.329,8.533-8.329h8.533c18.825,0,34.133,15.309,34.133,34.133s-15.309,34.133-34.133,34.133h-1.451l-0.171,6.861
	c0.256,38.656-22.195,74.786-57.207,91.776l-16.973,8.491c-0.017,0.009-0.034,0.017-0.051,0.026
	C274.159,307.575,265.011,309.649,255.863,309.649z M357.325,179.2h1.033c9.412,0,17.067-7.654,17.067-17.067
	c0-9.412-7.654-17.067-17.067-17.067h-0.205L357.325,179.2z M153.557,145.067c-9.412,0-17.067,7.654-17.067,17.067
	c0,9.412,7.654,17.067,17.067,17.067h0.93L153.557,145.067z"/>
    <path d="M247.424,85.333h-17.067c0-11.008-10.522-24.021-14.575-28.109l12.083-12.058C229.862,47.164,247.424,65.306,247.424,85.333
	z"/>
    <path d="M281.557,85.333h-17.067c0-20.028,17.57-38.17,19.567-40.166l12.075,12.058C292.087,61.312,281.557,74.325,281.557,85.333z"
    />
    <path d="M321.997,91.076l-12.621-11.494c5.871-6.451,13.892-10.462,22.571-11.281l1.613,16.99
	C329.122,85.717,325.018,87.774,321.997,91.076z"/>
    <path d="M198.443,91.076c-3.012-3.302-7.108-5.359-11.554-5.777l1.604-16.99c8.687,0.819,16.7,4.83,22.579,11.29L198.443,91.076z"/>
    <rect x="147.65" y="115.208" transform="matrix(-0.3715 0.9284 -0.9284 -0.3715 348.8991 11.2994)" width="45.951"
          height="17.066"/>
    <rect x="332.743" y="100.385" transform="matrix(-0.8944 0.4472 -0.4472 -0.8944 699.9498 73.6948)" width="17.066"
          height="38.16"/>
    <path d="M409.557,315.733c-0.469,0-0.93-0.043-1.399-0.119c-33.792-5.632-58.325-34.586-58.334-68.83v-59.051h17.067v59.051
	c0.009,22.374,13.875,41.762,34.133,49.34V76.8c0-23.526-19.14-42.667-42.667-42.667h-42.667V17.067h42.667
	c32.93,0,59.733,26.795,59.733,59.733v230.4c0,2.509-1.101,4.89-3.021,6.511C413.525,315.025,411.563,315.733,409.557,315.733z"/>
    <path d="M261.001,247.467h-22.11V230.4h22.101c5.402,0,10.701-2.202,14.524-6.033l12.083,12.058
	C280.602,243.439,270.908,247.467,261.001,247.467z"/>
    <path d="M85.291,512H68.224V403.627c-0.23-30.251,22.281-55.927,52.369-59.665l76.8-9.557c4.275-0.538,7.484-4.207,7.458-8.533
	v-35.738h17.067v35.669c0.102,12.919-9.532,23.927-22.4,25.532l-76.809,9.557c-21.495,2.671-37.572,21.018-37.41,42.667V512H85.291z
	"/>
    <path d="M443.776,512h-17.067V404.053c0.171-21.717-15.915-40.055-37.402-42.735l-76.8-9.549
	c-12.885-1.621-22.519-12.629-22.417-25.6v-36.036h17.067v36.096c-0.034,4.395,3.174,8.055,7.467,8.602l76.783,9.549
	c30.089,3.738,52.599,29.423,52.369,59.733L443.776,512L443.776,512z"/>
    <path d="M256,409.6c-0.034,0-0.068,0-0.094,0c-34.483,0-65.545-20.48-79.13-52.19l-5.461-12.706l15.684-6.733l5.461,12.715
	c10.897,25.421,35.806,41.847,63.454,41.847c0.026,0,0.051,0,0.077,0c27.665,0,52.574-16.418,63.471-41.839l5.461-12.723
	l15.684,6.733l-5.461,12.715C321.562,389.12,290.492,409.6,256,409.6z"/>
    <path d="M119.424,512c0-23.654,5.589-47.343,16.179-68.497l0.887-1.783v-23.586h17.067v25.6c0,1.323-0.307,2.637-0.896,3.814
	l-1.792,3.584c-9.412,18.799-14.379,39.851-14.379,60.868H119.424L119.424,512z"/>
    <rect x="76.757" y="435.2" width="68.267" height="17.067"/>
    <rect x="366.891" y="435.2" width="68.267" height="17.067"/>
    <path d="M392.491,512h-17.067c0.009-21.018-4.958-42.061-14.379-60.868l-1.792-3.584c-0.589-1.186-0.896-2.492-0.896-3.814v-25.6
	h17.067v23.586l0.887,1.783C386.91,464.666,392.499,488.354,392.491,512z"/>
    <g>
</g>
    <g>
</g>
    <g>
</g>
    <g>
</g>
    <g>
</g>
    <g>
</g>
    <g>
</g>
    <g>
</g>
    <g>
</g>
    <g>
</g>
    <g>
</g>
    <g>
</g>
    <g>
</g>
    <g>
</g>
    <g>
</g>
</svg>
