<?xml version="1.0" encoding="iso-8859-1"?>
<!-- Generator: Adobe Illustrator 19.0.0, SVG Export Plug-In . SVG Version: 6.00 Build 0)  -->
<svg version="1.1" id="Capa_1" xmlns="http://www.w3.org/2000/svg" xmlns:xlink="http://www.w3.org/1999/xlink" x="0px"
     y="0px"
     viewBox="0 0 512 512" style="enable-background:new 0 0 512 512;" xml:space="preserve">
<path style="fill:#2E6AA3;" d="M375.979,333.397l-68.779-9.131l-51.2,76.8l-51.2-76.8l-68.779,9.131
	c-33.903,4.531-59.221,33.459-59.221,67.669V512h358.4V401.067C435.2,366.857,409.882,337.929,375.979,333.397z"/>
    <polygon style="fill:#FEDAC6;" points="307.2,324.267 307.2,256 204.8,256 204.8,324.267 256,401.067 "/>
    <path style="fill:#245E8F;" d="M76.8,400.384V512h34.133V341.333C89.83,353.519,76.826,376.021,76.8,400.384z"/>
    <rect x="110.933" y="452.267" style="fill:#FEDAC6;" width="34.133" height="59.733"/>
    <rect x="76.8" y="452.267" style="fill:#F5C4B0;" width="34.133" height="59.733"/>
    <rect x="366.933" y="452.267" style="fill:#FEDAC6;" width="68.267" height="59.733"/>
    <path style="fill:#F5C4B0;" d="M307.2,310.784V256H204.8v54.784C243.2,328.789,268.8,328.789,307.2,310.784z"/>
    <path style="fill:#FEDAC6;" d="M349.867,128h-8.533v51.2h8.533c14.14,0,25.6-11.46,25.6-25.6
	C375.467,139.46,364.006,128,349.867,128z"/>
    <path style="fill:#F5C4B0;" d="M136.533,162.133c0,14.14,11.46,25.6,25.6,25.6h8.533v-51.2h-8.533
	C147.994,136.533,136.533,147.994,136.533,162.133z"/>
    <path style="fill:#FEDAC6;" d="M325.291,59.733H186.197l-24.064,80.725l7.083,76.032c0.742,9.011,4.326,17.562,10.24,24.405
	l42.667,49.067c4.907,5.487,11.93,8.593,19.285,8.533h27.989c7.356,0.06,14.379-3.046,19.285-8.533l42.667-49.067
	c5.914-6.844,9.498-15.394,10.24-24.405l8.277-79.957l2.048-6.059L325.291,59.733z"/>
    <g>
	<path style="fill:#FECB66;" d="M176.811,59.733c-16.068,0.034-29.073,13.09-29.03,29.167c0.009,3.081,0.503,6.144,1.468,9.062
		l12.885,38.571v3.925l24.064-80.725H176.811z"/>
        <path style="fill:#FECB66;" d="M362.752,97.963c5.043-15.258-3.243-31.718-18.5-36.762c-2.918-0.964-5.982-1.459-9.062-1.468
		h-9.899l26.624,70.741L362.752,97.963z"/>
        <path style="fill:#FECB66;"
              d="M324.267,59.733c0-28.279-22.921-51.2-51.2-51.2h-128c0,28.279,22.921,51.2,51.2,51.2H324.267z"/>
</g>
    <g>
	<path style="fill:#F5B776;" d="M281.856,61.833c-4.693-18.517-15.693-35.021-30.976-46.473l10.24-13.653
		c18.389,13.781,31.633,33.647,37.291,55.927L281.856,61.833z"/>
        <path style="fill:#F5B776;" d="M239.198,61.833c-4.693-18.509-15.693-35.012-30.976-46.464l10.231-13.662
		c18.398,13.79,31.642,33.655,37.291,55.936L239.198,61.833z"/>
        <path style="fill:#F5B776;" d="M196.531,61.833c-4.693-18.509-15.693-35.012-30.976-46.464l10.231-13.662
		c18.398,13.79,31.642,33.655,37.291,55.936L196.531,61.833z"/>
</g>
    <path style="fill:#F5C4B0;" d="M208.128,196.267L204.8,59.733h-17.067l-25.6,76.8l8.533,70.315
	c0.043,19.618,8.533,38.272,23.296,51.2c0,0,34.731,38.059,39.765,40.619l-18.773-53.504
	C209.348,229.504,207.019,212.864,208.128,196.267z"/>
    <path d="M349.867,187.733h-8.533v-17.067h8.533c9.412,0,17.067-7.654,17.067-17.067s-7.654-17.067-17.067-17.067h-8.533v-17.067
	h8.533c18.825,0,34.133,15.309,34.133,34.133S368.691,187.733,349.867,187.733z"/>
    <path d="M170.667,196.267h-8.533c-18.825,0-34.133-15.309-34.133-34.133S143.309,128,162.133,128h8.533v17.067h-8.533
	c-9.412,0-17.067,7.654-17.067,17.067c0,9.412,7.654,17.067,17.067,17.067h8.533V196.267z"/>
    <path d="M264.533,204.8h-25.6c-2.534,0-4.932-1.126-6.554-3.072c-1.621-1.946-2.295-4.514-1.835-7.006l11.349-61.867l16.785,3.081
	l-9.506,51.797h15.36V204.8z"/>
    <path d="M269.577,238.933H230.4v-17.067h39.168c5.41,0,10.709-2.202,14.524-6.033l12.083,12.058
	C289.067,235.008,279.629,238.933,269.577,238.933z"/>
    <path d="M241.741,307.2c-9.643,0-18.901-4.13-25.378-11.375l-42.743-49.161c-7.159-8.286-11.409-18.415-12.305-29.303l-7.578-79.044
	l-12.578-37.649c-3.166-9.574-2.415-19.772,2.108-28.749c4.514-8.977,12.262-15.659,21.803-18.816
	c3.789-1.254,7.731-1.894,11.716-1.903h158.404c20.77,0.051,37.606,16.964,37.564,37.717c-0.009,3.985-0.649,7.927-1.911,11.725
	l-12.578,37.666l-7.33,78.976c-0.887,10.803-5.146,20.932-12.279,29.193l-42.94,49.263c-6.554,7.33-15.812,11.46-25.523,11.46
	c-0.085,0-0.179,0-0.265,0h-27.921C241.92,307.2,241.826,307.2,241.741,307.2z M176.811,68.267c-2.159,0-4.318,0.358-6.391,1.041
	c-5.214,1.724-9.446,5.367-11.913,10.283c-2.475,4.907-2.876,10.479-1.161,15.693l12.877,38.545
	c0.205,0.614,0.341,1.246,0.401,1.894l7.68,80.128c0.606,7.373,3.439,14.123,8.201,19.635l42.65,49.05
	c3.191,3.567,7.697,5.649,12.783,5.598h28.058c0.043,0,0.094,0,0.145,0c4.915,0,9.549-2.065,12.791-5.692l42.846-49.152
	c4.745-5.487,7.578-12.237,8.166-19.499l7.433-80.043c0.068-0.657,0.196-1.297,0.41-1.92l12.885-38.571
	c0.674-2.048,1.024-4.207,1.033-6.383c0.017-11.332-9.199-20.582-20.531-20.608H176.811z"/>
    <circle cx="204.8" cy="145.067" r="17.067"/>
    <circle cx="298.667" cy="145.067" r="17.067"/>
    <rect x="134.459" y="89.607" transform="matrix(-0.3164 0.9486 -0.9486 -0.3164 323.3848 -36.7552)" width="80.954"
          height="17.066"/>
    <path d="M341.871,130.995l-25.6-68.267c-0.358-0.956-0.538-1.971-0.538-2.995c0-23.526-19.14-42.667-42.667-42.667H154.462
	c3.959,19.447,21.197,34.133,41.805,34.133h25.6v17.067h-25.6c-32.939,0-59.733-26.795-59.733-59.733
	c0-4.71,3.823-8.533,8.533-8.533h128c32.401,0,58.854,25.933,59.708,58.129l25.079,66.876L341.871,130.995z"/>
    <path d="M85.333,512H68.267V401.067c0-38.315,28.638-71.04,66.628-76.126l61.372-8.149v-43.725h17.067v51.2
	c0,4.275-3.166,7.893-7.407,8.457l-68.779,9.131c-29.542,3.951-51.814,29.406-51.814,59.213V512z"/>
    <path d="M443.733,512h-17.067V401.067c0-29.807-22.272-55.262-51.823-59.204l-68.77-9.131c-4.241-0.572-7.407-4.19-7.407-8.465
	v-51.2h17.067v43.725l61.363,8.149c37.999,5.077,66.637,37.811,66.637,76.126V512z"/>
    <rect x="136.533" y="426.667" width="17.067" height="85.333"/>
    <rect x="76.8" y="443.733" width="68.267" height="17.067"/>
    <rect x="358.4" y="426.667" width="17.067" height="85.333"/>
    <rect x="366.933" y="443.733" width="68.267" height="17.067"/>
    <path d="M256,409.6c-2.85,0-5.513-1.425-7.1-3.797l-51.2-76.8l14.199-9.463l44.1,66.142l44.1-66.15l14.199,9.464l-51.2,76.8
	C261.513,408.175,258.85,409.6,256,409.6z"/>
    <path d="M204.8,426.667c-1.51,0-3.021-0.401-4.343-1.195c-2.133-1.254-3.61-3.379-4.053-5.82l-17.067-93.867l16.794-3.046
	l15.309,84.181l41.865-13.952l5.402,16.179l-51.2,17.067C206.618,426.522,205.705,426.667,204.8,426.667z"/>
    <path d="M307.2,426.667c-0.905,0-1.818-0.145-2.697-0.444l-51.2-17.067l5.402-16.179l41.865,13.952l15.309-84.181l16.785,3.046
	l-17.067,93.867c-0.444,2.432-1.92,4.557-4.045,5.82C310.221,426.266,308.719,426.667,307.2,426.667z"/>
    <rect x="247.467" y="401.067" width="17.067" height="68.267"/>
    <path d="M226.133,460.8c-7.057,0-12.8-5.743-12.8-12.8s5.743-12.8,12.8-12.8s12.8,5.743,12.8,12.8S233.19,460.8,226.133,460.8z
	 M226.133,443.733c-2.355,0-4.267,1.92-4.267,4.267s1.911,4.267,4.267,4.267s4.267-1.92,4.267-4.267
	S228.489,443.733,226.133,443.733z"/>
    <g>
</g>
    <g>
</g>
    <g>
</g>
    <g>
</g>
    <g>
</g>
    <g>
</g>
    <g>
</g>
    <g>
</g>
    <g>
</g>
    <g>
</g>
    <g>
</g>
    <g>
</g>
    <g>
</g>
    <g>
</g>
    <g>
</g>
</svg>
