<?xml version="1.0" encoding="iso-8859-1"?>
<!-- Generator: Adobe Illustrator 19.0.0, SVG Export Plug-In . SVG Version: 6.00 Build 0)  -->
<svg version="1.1" id="Capa_1" xmlns="http://www.w3.org/2000/svg" xmlns:xlink="http://www.w3.org/1999/xlink" x="0px"
     y="0px"
     viewBox="0 0 512 512" style="enable-background:new 0 0 512 512;" xml:space="preserve">
<path style="fill:#FEDAC6;"
      d="M349.867,196.267h8.533c14.14,0,25.6-11.46,25.6-25.6l0,0c0-14.14-11.46-25.6-25.6-25.6h-8.533"/>
    <path style="fill:#F5C4B0;"
          d="M162.133,196.267H153.6c-14.14,0-25.6-11.46-25.6-25.6l0,0c0-14.14,11.46-25.6,25.6-25.6h8.533"/>
    <path style="fill:#FEDAC6;" d="M162.133,110.933V179.2l2.048,26.624c4.352,50.756,49.033,88.38,99.789,84.028
	c2.765-0.239,5.513-0.597,8.243-1.084c42.044-8.132,73.25-43.699,75.861-86.443l1.792-23.125v-68.267l-42.667-25.6L162.133,110.933z
	"/>
    <path style="fill:#F5C4B0;" d="M204.8,203.264v-99.84l-42.667,7.509V179.2l2.048,26.624c3.593,43.153,36.838,77.935,79.787,83.456
	l-17.067-22.187C212.617,248.883,204.834,226.415,204.8,203.264z"/>
    <path style="fill:#A15D30;" d="M307.2,25.6L307.2,25.6c-5.222-10.479-15.94-17.092-27.648-17.067H128
	c0,18.85,15.283,34.133,34.133,34.133H128c0,18.85,15.283,34.133,34.133,34.133H128c0,18.85,15.283,34.133,34.133,34.133h34.133
	c40.96,0,84.224-15.531,110.933-25.6c11.622,12.262,26.377,21.111,42.667,25.6V68.267C349.867,44.706,330.761,25.6,307.2,25.6z"/>
    <path style="fill:#8F4F24;" d="M128.427,80.64c1.946,17.178,16.418,30.191,33.707,30.293h34.133
	c28.501,0,86.528-17.664,110.933-25.6C245.931,86.784,157.099,86.528,128.427,80.64z"/>
    <g>
	<path style="fill:#EBEBEB;" d="M200.533,204.8L200.533,204.8c-21.163,0.051-38.349-17.067-38.4-38.229c0-0.06,0-0.111,0-0.171
		v-21.333h76.8V166.4c0.051,21.163-17.067,38.349-38.229,38.4C200.644,204.8,200.593,204.8,200.533,204.8z"/>
        <path style="fill:#EBEBEB;" d="M311.467,204.8L311.467,204.8c-21.163,0.051-38.349-17.067-38.4-38.229c0-0.06,0-0.111,0-0.171
		v-21.333h76.8V166.4c0.051,21.163-17.067,38.349-38.229,38.4C311.578,204.8,311.526,204.8,311.467,204.8z"/>
</g>
    <path style="fill:#FEDAC6;" d="M256,401.067c31.044,0.017,59.11-18.483,71.339-47.019l3.84-8.533l-17.493-2.048
	c-8.619-1.041-15.078-8.388-15.019-17.067v-44.8h-85.333v44.544c0.06,8.678-6.4,16.026-15.019,17.067l-17.067,2.048l3.84,8.533
	C197.18,382.285,225.05,400.87,256,401.067z"/>
    <path style="fill:#3CACDE;" d="M375.979,350.464l-44.8-5.291l-3.84,8.533c-16.939,39.398-62.609,57.609-102.007,40.67
	c-18.261-7.851-32.811-22.409-40.67-40.67l-3.84-8.533l-44.8,5.291c-33.903,4.531-59.221,33.459-59.221,67.669V512h358.4v-93.867
	C435.2,383.923,409.882,354.995,375.979,350.464z"/>
    <path style="fill:#329AC7;" d="M76.8,418.133V512h34.133V359.083C89.83,371.268,76.826,393.771,76.8,418.133z"/>
    <rect x="76.8" y="469.333" style="fill:#FEDAC6;" width="68.267" height="42.667"/>
    <g>
	<rect x="76.8" y="469.333" style="fill:#F5C4B0;" width="34.133" height="42.667"/>
        <path style="fill:#F5C4B0;"
              d="M298.667,307.2v-25.6h-85.333v25.6C245.333,324.267,266.667,324.267,298.667,307.2z"/>
</g>
    <rect x="366.933" y="469.333" style="fill:#FEDAC6;" width="68.267" height="42.667"/>
    <path d="M264.533,221.867h-25.6c-2.449,0-4.779-1.05-6.4-2.884c-1.621-1.835-2.372-4.275-2.074-6.707l8.533-68.267l16.93,2.116
	l-7.322,58.675h15.932V221.867z"/>
    <path d="M240.384,256h-1.451v-17.067h1.451c13.286-0.009,25.779-5.18,35.183-14.575l12.066,12.075
	C275.012,249.045,258.236,255.991,240.384,256z"/>
    <path d="M358.4,204.8h-8.533v-17.067h8.533c9.412,0,17.067-7.654,17.067-17.067c0-9.412-7.654-17.067-17.067-17.067h-8.533v-17.067
	h8.533c18.825,0,34.133,15.309,34.133,34.133S377.225,204.8,358.4,204.8z"/>
    <path d="M162.133,204.8H153.6c-18.825,0-34.133-15.309-34.133-34.133s15.309-34.133,34.133-34.133h8.533V153.6H153.6
	c-9.412,0-17.067,7.654-17.067,17.067c0,9.412,7.654,17.067,17.067,17.067h8.533V204.8z"/>
    <path d="M255.915,298.735c-23.689,0-46.404-8.26-64.734-23.697c-20.591-17.34-33.203-41.66-35.499-68.48l-2.057-26.701
	l-0.026-68.924h17.067V179.2l2.022,25.967c3.934,45.918,44.706,80.154,90.547,76.177c2.517-0.213,5.009-0.546,7.492-0.981
	c38.093-7.373,66.449-39.689,68.821-78.566l1.801-23.262l-0.017-93.201H358.4V179.2l-1.818,23.782
	c-2.833,46.507-36.864,85.282-82.748,94.157c-3.115,0.555-6.127,0.956-9.139,1.212C261.751,298.607,258.833,298.735,255.915,298.735
	z"/>
    <path d="M349.867,119.467c-0.759,0-1.519-0.102-2.27-0.307c-15.94-4.386-30.541-12.612-42.539-23.919
	c-33.143,12.288-71.45,24.226-108.791,24.226h-34.133c-23.526,0-42.667-19.14-42.667-42.667c0-4.71,3.823-8.533,8.533-8.533h0.017
	c-5.359-7.134-8.55-16-8.55-25.6c0-4.71,3.823-8.533,8.533-8.533h0.017c-5.359-7.134-8.55-16-8.55-25.6
	C119.467,3.823,123.29,0,128,0h151.552c0.034,0,0.068,0,0.102,0c13.261,0,25.327,6.519,32.58,17.314
	c25.873,2.534,46.165,24.422,46.165,50.953v42.667c0,2.662-1.246,5.171-3.362,6.784
	C353.536,118.869,351.718,119.467,349.867,119.467z M137.993,85.333c3.524,9.933,13.013,17.067,24.141,17.067h34.133
	c41.489,0,86.357-16.922,107.921-25.054c3.2-1.22,6.844-0.375,9.199,2.116c7.927,8.354,17.442,14.967,27.938,19.465v-30.66
	c0-18.825-15.309-34.133-34.133-34.133c-3.234,0-6.195-1.826-7.637-4.727c-3.797-7.629-11.716-12.237-19.977-12.339H137.993
	c3.524,9.933,13.013,17.067,24.141,17.067c4.71,0,8.533,3.823,8.533,8.533s-3.823,8.533-8.533,8.533h-24.141
	c3.524,9.933,13.013,17.067,24.141,17.067c4.71,0,8.533,3.823,8.533,8.533s-3.823,8.533-8.533,8.533H137.993z"/>
    <path d="M200.448,213.333c-12.476,0-24.209-4.847-33.05-13.645c-8.875-8.832-13.764-20.582-13.798-33.101v-21.521
	c0-4.71,3.823-8.533,8.533-8.533h76.8c4.71,0,8.533,3.823,8.533,8.533V166.4c0.026,12.493-4.821,24.269-13.645,33.135
	c-8.832,8.875-20.582,13.764-33.101,13.798h-0.171C200.516,213.333,200.482,213.333,200.448,213.333z M170.667,153.6v12.8
	c0.034,16.546,13.389,29.867,29.781,29.867c0.026,0,0.06,0,0.085,0h0.171c16.401-0.034,29.73-13.423,29.696-29.85V153.6H170.667z"/>
    <path d="M311.381,213.333c-25.779,0-46.788-20.949-46.848-46.746v-21.521c0-4.71,3.814-8.533,8.533-8.533h76.8
	c4.719,0,8.533,3.823,8.533,8.533V166.4c0.034,12.493-4.813,24.269-13.645,33.135c-8.832,8.875-20.582,13.764-33.101,13.798h-0.179
	C311.45,213.333,311.415,213.333,311.381,213.333z M281.6,153.6v12.8c0.043,16.546,13.389,29.867,29.781,29.867
	c0.034,0,0.051,0,0.085,0h0.179c7.936-0.017,15.411-3.132,21.018-8.764c5.615-5.641,8.695-13.124,8.678-21.077V153.6H281.6z"/>
    <rect x="238.933" y="136.533" width="34.133" height="17.067"/>
    <circle cx="204.8" cy="162.133" r="17.067"/>
    <circle cx="307.2" cy="162.133" r="17.067"/>
    <path d="M85.333,512H68.267v-93.867c0-38.315,28.638-71.04,66.628-76.126l62.421-7.356c4.284-0.521,7.518-4.181,7.484-8.533V281.6
	h17.067v44.459c0.094,12.971-9.591,23.979-22.528,25.54l-62.319,7.339c-29.414,3.934-51.686,29.389-51.686,59.196V512z"/>
    <path d="M443.733,512h-17.067v-93.867c-0.034-29.756-22.315-55.185-51.823-59.127l-62.157-7.322
	c-12.971-1.57-22.647-12.578-22.554-25.609V281.6H307.2v44.544c-0.034,4.412,3.191,8.073,7.509,8.593l62.268,7.339
	c38.067,5.086,66.705,37.769,66.756,76.049V512z"/>
    <path d="M256.043,409.6c-0.034,0-0.068,0-0.094,0c-34.492,0-65.545-20.48-79.13-52.19l-5.461-12.706l15.684-6.733l5.461,12.715
	c10.897,25.421,35.797,41.847,63.454,41.847c0.026,0,0.051,0,0.077,0c27.657,0,52.565-16.427,63.462-41.847l5.461-12.715
	l15.684,6.733l-5.461,12.715C321.596,389.12,290.526,409.6,256.043,409.6z"/>
    <rect x="136.533" y="443.733" width="17.067" height="68.267"/>
    <rect x="76.8" y="460.8" width="68.267" height="17.067"/>
    <rect x="358.4" y="443.733" width="17.067" height="68.267"/>
    <rect x="366.933" y="460.8" width="68.267" height="17.067"/>
    <g>
</g>
    <g>
</g>
    <g>
</g>
    <g>
</g>
    <g>
</g>
    <g>
</g>
    <g>
</g>
    <g>
</g>
    <g>
</g>
    <g>
</g>
    <g>
</g>
    <g>
</g>
    <g>
</g>
    <g>
</g>
    <g>
</g>
</svg>
