<?xml version="1.0" encoding="iso-8859-1"?>
<!-- Generator: Adobe Illustrator 19.0.0, SVG Export Plug-In . SVG Version: 6.00 Build 0)  -->
<svg version="1.1" id="Capa_1" xmlns="http://www.w3.org/2000/svg" xmlns:xlink="http://www.w3.org/1999/xlink" x="0px"
     y="0px"
     viewBox="0 0 512 512" style="enable-background:new 0 0 512 512;" xml:space="preserve">
<path style="fill:#FEDAC6;" d="M256,414.897c32.115,0.018,61.149-19.121,73.799-48.64l4.237-9.799l-9.71-1.324
	c-8.845-1.156-15.439-8.73-15.36-17.655v-37.341H203.034v37.87c0.079,8.925-6.515,16.499-15.36,17.655l-9.71,1.324l4.237,9.799
	C195.01,396.103,224.009,415.003,256,414.897z"/>
    <path style="fill:#F5C4B0;" d="M310.025,344.276c-0.706-1.863-1.068-3.84-1.059-5.826v-38.312H203.034v37.87
	c0.009,1.986-0.353,3.964-1.059,5.826C235.864,361.181,275.994,361.348,310.025,344.276z"/>
    <path style="fill:#E56B2E;" d="M395.388,365.021l-61.352-8.21l-4.237,9.799c-17.523,40.757-64.768,59.595-105.525,42.072
	c-18.891-8.121-33.942-23.181-42.072-42.072l-4.237-9.799l-61.352,8.21c-26.297,3.496-45.956,25.909-45.992,52.436V512h370.759
	v-94.543C441.344,390.93,421.685,368.516,395.388,365.021z"/>
    <path style="fill:#D65B25;" d="M105.931,367.669c-21.107,7.459-35.249,27.392-35.31,49.788V512h35.31V367.669z"/>
    <path style="fill:#FEDAC6;" d="M353.103,150.069h-8.828v52.966h8.828c14.627,0,26.483-11.855,26.483-26.483
	S367.731,150.069,353.103,150.069z"/>
    <path style="fill:#F5C4B0;" d="M132.414,176.552c0,14.627,11.855,26.483,26.483,26.483h8.828v-52.966h-8.828
	C144.269,150.069,132.414,161.924,132.414,176.552z"/>
    <path style="fill:#FEDAC6;" d="M308.966,79.448h-96.574c-3.778-0.026-7.556-0.327-11.299-0.883
	c-9.71,30.72-42.196,45.021-42.196,45.021v112.905c-0.115,12.977,4.529,25.538,13.065,35.31l38.135,43.608
	c6.691,7.618,16.34,11.997,26.483,12.006h38.488c10.143-0.009,19.791-4.387,26.483-12.006l38.135-43.608
	c8.536-9.772,13.18-22.334,13.065-35.31V123.586C320,114.759,308.966,79.448,308.966,79.448z"/>
    <path style="fill:#F5C4B0;" d="M194.207,93.131c-8.854,13.109-21.045,23.623-35.31,30.455v112.905
	c-0.115,12.977,4.529,25.538,13.065,35.31l22.246,24.894V93.131z"/>
    <path style="fill:#FECB66;" d="M353.103,79.448L353.103,79.448c0-39-31.62-70.621-70.621-70.621H132.414
	c5.032,40.342,39.327,70.621,79.978,70.621H353.103z"/>
    <g>
	<path style="fill:#F5AD76;" d="M201.092,78.566c-14.274-1.977-27.754-7.777-39.018-16.772h-0.971
		c-1.457,5.773-2.198,11.705-2.207,17.655v44.138C158.897,123.586,191.382,109.286,201.092,78.566z"/>
        <path style="fill:#F5AD76;" d="M308.966,79.448c0,0,11.034,35.31,44.138,44.138V79.448H308.966z"/>
        <path style="fill:#F5AD76;" d="M132.414,8.828c5.032,40.342,39.327,70.621,79.978,70.621h105.401
		C209.655,65.942,158.897,26.483,140.359,8.828H132.414z"/>
</g>
    <path d="M79.448,512H61.793v-94.543c-0.026-31.135,23.261-57.529,54.166-61.369l70.532-9.525c4.449-0.574,7.751-4.37,7.715-8.828
	v-28.769h17.655v28.69c0.115,13.294-9.79,24.682-23.049,26.403l-70.585,9.534c-22.166,2.763-38.797,21.61-38.78,43.855V512z"/>
    <path d="M450.207,512h-17.655v-94.543c0.018-22.254-16.614-41.101-38.691-43.855l-70.718-9.543
	c-13.215-1.721-23.119-13.109-23.005-26.483v-28.61h17.655v28.69c-0.044,4.537,3.257,8.324,7.68,8.907l70.656,9.534
	c30.817,3.84,54.104,30.226,54.078,61.369V512z"/>
    <path d="M353.103,211.862h-8.828v-17.655h8.828c9.737,0,17.655-7.918,17.655-17.655s-7.918-17.655-17.655-17.655h-8.828v-17.655
	h8.828c19.474,0,35.31,15.837,35.31,35.31S372.577,211.862,353.103,211.862z"/>
    <path d="M167.724,211.862h-8.828c-19.474,0-35.31-15.837-35.31-35.31s15.837-35.31,35.31-35.31h8.828v17.655h-8.828
	c-9.737,0-17.655,7.918-17.655,17.655s7.918,17.655,17.655,17.655h8.828V211.862z"/>
    <path d="M256.044,423.724c-0.035,0-0.071,0-0.097,0c-35.681,0-67.805-21.186-81.858-53.99l-5.65-13.144l16.225-6.965l5.65,13.153
	c11.273,26.297,37.032,43.29,65.642,43.29c0.026,0,0.053,0,0.079,0c28.61,0,54.378-16.993,65.66-43.29l5.65-13.153l16.225,6.965
	l-5.65,13.153C323.858,402.538,291.716,423.724,256.044,423.724z"/>
    <path d="M264.828,221.043h-26.483c-2.534,0-4.943-1.086-6.621-2.984s-2.454-4.423-2.145-6.938l8.828-70.621l17.514,2.189
	l-7.583,60.698h16.49V221.043z"/>
    <path d="M257.121,256c-0.159,0-0.318,0-0.477,0h-27.127v-17.655h27.189c14.327-0.062,27.26-5.279,37.235-15.113l12.394,12.57
	C293.129,248.832,275.668,256,257.121,256z"/>
    <path d="M275.076,336.243h-38.497c-12.676-0.009-24.744-5.473-33.112-14.998l-38.153-43.626
	c-9.966-11.423-15.378-26.059-15.245-41.198V79.448c0.009-6.682,0.839-13.347,2.472-19.818l17.117,4.317
	c-1.271,5.067-1.924,10.293-1.933,15.51v157.034c-0.097,10.893,3.769,21.345,10.884,29.511l38.126,43.599
	c5.005,5.703,12.244,8.978,19.844,8.986h38.479c7.583-0.009,14.83-3.284,19.853-9.004l38.118-43.591
	c7.115-8.157,10.982-18.609,10.876-29.422V79.448h17.655v157.043c0.141,15.06-5.27,29.687-15.236,41.11l-38.144,43.617
	C299.802,330.77,287.735,336.234,275.076,336.243z"/>
    <circle cx="203.034" cy="159.25" r="17.655"/>
    <circle cx="300.138" cy="159.25" r="17.655"/>
    <path d="M353.103,88.276H212.392c-45.021,0-83.165-33.686-88.735-78.354c-0.318-2.507,0.468-5.032,2.145-6.938
	C127.47,1.086,129.88,0,132.414,0h150.069c43.811,0,79.448,35.646,79.448,79.448C361.931,84.321,357.985,88.276,353.103,88.276z
	 M143.122,17.655c8.36,30.799,36.555,52.966,69.27,52.966h131.257c-4.299-29.908-30.084-52.966-61.166-52.966H143.122z"/>
    <path d="M162.428,131.681l-7.062-16.181l3.531,8.086l-3.549-8.086c0.344-0.15,33.933-15.351,38.983-46.301l17.426,2.834
	C205.135,112.596,164.167,130.922,162.428,131.681z"/>
    <path d="M350.826,132.114c-37.367-9.966-49.779-48.402-50.282-50.035l16.834-5.297c0.106,0.309,10.152,30.844,38.003,38.268
	L350.826,132.114z"/>
    <g>
</g>
    <g>
</g>
    <g>
</g>
    <g>
</g>
    <g>
</g>
    <g>
</g>
    <g>
</g>
    <g>
</g>
    <g>
</g>
    <g>
</g>
    <g>
</g>
    <g>
</g>
    <g>
</g>
    <g>
</g>
    <g>
</g>
</svg>
