<?xml version="1.0" encoding="iso-8859-1"?>
<!-- Generator: Adobe Illustrator 19.0.0, SVG Export Plug-In . SVG Version: 6.00 Build 0)  -->
<svg version="1.1" id="Capa_1" xmlns="http://www.w3.org/2000/svg" xmlns:xlink="http://www.w3.org/1999/xlink" x="0px"
     y="0px"
     viewBox="0 0 512 512" style="enable-background:new 0 0 512 512;" xml:space="preserve">
<path style="fill:#215280;" d="M375.467,342.357l-36.437-4.523l-16.043-1.963L256,486.4l-66.901-150.528l-16.043,1.963
	l-36.523,4.523c-34.142,4.301-59.742,33.34-59.733,67.755V512h358.4V410.112C435.209,375.697,409.609,346.658,375.467,342.357z"/>
    <g>
	<polygon style="fill:#3E76A3;" points="196.267,418.133 187.733,452.267 256,486.4 189.099,335.787 173.056,337.835 
		136.533,418.133 	"/>
        <polygon style="fill:#3E76A3;" points="315.733,418.133 375.467,418.133 338.944,337.835 322.901,335.787 256,486.4
		324.267,452.267 	"/>
</g>
    <polygon style="fill:#EBEBEB;" points="256,486.4 290.133,409.6 221.867,409.6 "/>
    <path style="fill:#FEDAC6;" d="M313.6,334.677c-8.585-1.084-15.002-8.414-14.933-17.067V281.6h-85.333v36.096
	c0.068,8.653-6.349,15.983-14.933,17.067l-9.301,1.195l32.768,73.643h68.267l32.768-73.728L313.6,334.677z"/>
    <path style="fill:#F5C4B0;"
          d="M298.667,320.341V281.6h-85.333v38.741C245.333,336.981,266.667,336.981,298.667,320.341z"/>
    <path style="fill:#D65B25;" d="M375.467,162.133V97.195c-0.094-27.733-16.956-52.659-42.667-63.061
	c-16.393-16.384-38.613-25.583-61.781-25.6h-14.592C201.472,8.533,119.467,51.2,128,170.667
	c3.098,49.596,20.924,97.135,51.2,136.533l8.533-42.667h136.533L332.8,307.2C384,256,375.467,162.133,375.467,162.133z"/>
    <path style="fill:#F5C4B0;" d="M170.667,204.8h-8.533c-14.14,0-25.6-11.46-25.6-25.6l0,0c0-14.14,11.46-25.6,25.6-25.6h8.533V204.8z
	"/>
    <g>
	<path style="fill:#FEDAC6;" d="M358.4,145.067h-17.067v51.2H358.4c14.14,0,25.6-11.46,25.6-25.6
		C384,156.527,372.54,145.067,358.4,145.067z"/>
        <path style="fill:#FEDAC6;" d="M349.867,136.533l-4.693,76.8c-2.099,47.727-41.404,85.333-89.173,85.333l0,0
		c-47.77,0-87.074-37.606-89.173-85.333l-4.693-59.733l153.6-95.317L349.867,136.533z"/>
</g>
    <path style="fill:#E56B2E;" d="M350.464,145.067c-34.133-51.2-34.133-85.333-34.133-85.333s-93.867,85.333-187.733,110.933
	C120.064,51.2,202.069,8.533,257.109,8.533h14.507c23.177-0.009,45.406,9.207,61.781,25.6l0,0
	c25.711,10.402,42.573,35.328,42.667,63.061V153.6"/>
    <path style="fill:#D65B25;" d="M128.597,170.667c0,0,144.469-59.733,178.603-110.933c0,0-102.4,59.733-179.2,59.733
	C123.068,136.209,123.273,154.044,128.597,170.667z"/>
    <path style="fill:#1C496E;" d="M76.8,408.917V512h34.133V349.867C89.83,362.052,76.826,384.555,76.8,408.917z"/>
    <circle cx="307.2" cy="162.133" r="17.067"/>
    <path d="M251.264,220.433l-25.6-17.067c-2.133-1.417-3.507-3.721-3.755-6.255c-0.247-2.543,0.649-5.069,2.458-6.878l25.6-25.6
	l12.066,12.066l-18.236,18.244l16.939,11.29L251.264,220.433z"/>
    <path d="M358.4,204.8h-8.533v-17.067h8.533c9.412,0,17.067-7.654,17.067-17.067c0-9.412-7.654-17.067-17.067-17.067h-8.533v-17.067
	h8.533c18.825,0,34.133,15.309,34.133,34.133S377.225,204.8,358.4,204.8z"/>
    <path d="M256,307.2c-52.471,0-95.386-41.071-97.698-93.491l-4.676-59.443l17.015-1.331l4.693,59.733
	c1.929,43.563,37.35,77.466,80.666,77.466s78.746-33.903,80.649-77.175l4.702-76.945l17.033,1.041l-4.693,76.8
	C351.394,266.138,308.471,307.2,256,307.2z"/>
    <path d="M245.47,247.467c-0.017,0-0.043,0-0.06,0h-6.477V230.4h6.485c0.017,0,0.034,0,0.043,0c11.162,0,22.332-2.637,32.324-7.637
	l7.637,15.266C273.075,244.207,259.26,247.467,245.47,247.467z"/>
    <path d="M128,179.2c-1.749,0-3.482-0.538-4.932-1.57c-2.082-1.476-3.396-3.806-3.575-6.357c-3.763-52.693,9.523-96.956,38.426-128
	C183.142,16.179,219.81,0,256,0h14.592c24.883,0.179,49.152,9.677,67.012,26.889c28.151,12.117,46.302,39.509,46.404,70.272V153.6
	h-17.067V97.195c-0.085-24.354-14.737-46.012-37.333-55.151c-1.058-0.427-2.022-1.067-2.833-1.877
	c-14.771-14.771-35.627-23.04-56.141-23.108H256c-31.539,0-63.531,14.148-85.598,37.837c-23.663,25.421-35.473,61.38-34.406,104.499
	C223.411,131.507,309.111,54.229,309.99,53.419c2.5-2.278,6.101-2.85,9.19-1.493c3.098,1.374,5.086,4.429,5.086,7.808
	c0,0.273,0.708,32.614,32.7,80.597l-14.199,9.463c-21.316-31.974-29.858-57.728-33.28-73.387
	c-28.501,23.851-103.168,81.741-179.234,102.485C129.502,179.098,128.751,179.2,128,179.2z"/>
    <circle cx="204.8" cy="162.133" r="17.067"/>
    <path d="M332.8,315.733c-0.828,0-1.655-0.119-2.475-0.367c-3.012-0.905-5.274-3.405-5.888-6.494l-8.533-42.667l16.734-3.354
	l5.06,25.284c28.783-40.713,29.235-99.746,29.235-100.403H384c0,3.277-0.521,80.853-45.167,125.5
	C337.212,314.854,335.036,315.733,332.8,315.733z"/>
    <path d="M179.2,315.733c-2.62,0-5.129-1.203-6.767-3.337c-31.428-40.9-49.741-89.728-52.949-141.201l17.033-1.067
	c2.594,41.566,15.727,81.271,38.204,115.951l4.642-23.228l16.734,3.354l-8.533,42.667c-0.657,3.285-3.174,5.871-6.426,6.63
	C180.489,315.657,179.84,315.733,179.2,315.733z"/>
    <path d="M162.133,204.8H153.6c-18.825,0-34.133-15.309-34.133-34.133h17.067c0,9.412,7.654,17.067,17.067,17.067h8.533V204.8z"/>
    <path d="M256,494.933c-3.371,0-6.426-1.98-7.799-5.069l-68.267-153.6l15.59-6.938L256,465.391l60.467-136.055l15.599,6.938
	l-68.267,153.6C262.426,492.954,259.371,494.933,256,494.933z"/>
    <path d="M85.333,512H68.267V410.121c-0.009-38.622,28.877-71.398,67.2-76.228l61.798-7.68c4.275-0.538,7.484-4.207,7.458-8.533
	V281.6h17.067v36.011c0.102,12.919-9.532,23.927-22.4,25.532l-61.79,7.68c-29.798,3.746-52.267,29.244-52.258,59.29V512H85.333z"/>
    <path d="M443.733,512h-17.067V410.121c0.009-30.046-22.46-55.543-52.267-59.29l-61.764-7.68
	c-12.885-1.604-22.519-12.621-22.417-25.6V281.6h17.067v36.011c-0.034,4.395,3.174,8.064,7.458,8.602l61.773,7.68
	c38.332,4.821,67.226,37.598,67.217,76.228V512z"/>
    <path d="M252.186,494.037l-68.267-34.133c-3.575-1.792-5.436-5.828-4.463-9.702l5.879-23.535h-48.802
	c-2.884,0-5.581-1.459-7.151-3.883c-1.57-2.423-1.818-5.478-0.64-8.115l34.133-76.8l15.59,6.938l-28.8,64.794h46.601
	c2.628,0,5.111,1.212,6.724,3.285c1.613,2.065,2.193,4.77,1.553,7.313l-6.878,27.494l62.148,31.078L252.186,494.037z"/>
    <rect x="247.467" y="486.4" width="17.067" height="25.6"/>
    <path d="M259.814,494.037l-7.637-15.266l62.14-31.078l-6.869-27.494c-0.64-2.551-0.068-5.248,1.553-7.313
	c1.621-2.074,4.105-3.285,6.733-3.285h46.601l-28.8-64.802l15.599-6.938l34.133,76.8c1.178,2.645,0.93,5.692-0.64,8.115
	s-4.267,3.891-7.159,3.891h-48.802l5.871,23.535c0.973,3.874-0.887,7.91-4.454,9.702L259.814,494.037z"/>
    <rect x="221.867" y="401.067" width="68.267" height="17.067"/>
    <g>
</g>
    <g>
</g>
    <g>
</g>
    <g>
</g>
    <g>
</g>
    <g>
</g>
    <g>
</g>
    <g>
</g>
    <g>
</g>
    <g>
</g>
    <g>
</g>
    <g>
</g>
    <g>
</g>
    <g>
</g>
    <g>
</g>
</svg>
