<?xml version="1.0" encoding="iso-8859-1"?>
<!-- Generator: Adobe Illustrator 19.0.0, SVG Export Plug-In . SVG Version: 6.00 Build 0)  -->
<svg version="1.1" id="Capa_1" xmlns="http://www.w3.org/2000/svg" xmlns:xlink="http://www.w3.org/1999/xlink" x="0px"
     y="0px"
     viewBox="0 0 511.988 511.988" style="enable-background:new 0 0 511.988 511.988;" xml:space="preserve">
<path style="fill:#FECB66;" d="M375.421,153.606l1.707-10.41c4.386-26.631,0.828-53.971-10.24-78.588l0,0
	c-10.487-23.628-33.876-38.902-59.73-38.995l0,0l-25.599-10.154c-16.776-8.388-36.342-9.198-53.757-2.219l0,0
	c-59.688,23.133-97.497,82.283-93.435,146.169l0,0c1.399,24.208-3.106,48.399-13.141,70.482l0,0
	c-16.972,37.272-12.74,80.781,11.093,114.085l4.181,5.888c0,0,34.132,42.665,127.994,42.665s120.57-65.277,120.57-65.277
	c10.222-23.841,10.862-50.703,1.792-75.004l0,0c-7.586-20.095-11.46-41.41-11.434-62.888v-1.621"/>
    <path style="fill:#F5AD76;" d="M240.259,74.762c-30.181,24.472-65.746,41.436-103.76,49.491
	c-2.031,11.605-2.688,23.397-1.963,35.156c1.399,24.208-3.106,48.399-13.141,70.482l0,0c-16.972,37.272-12.74,80.781,11.093,114.085
	l4.01,5.888c0,0,30.889,38.398,114.426,42.665C228.228,229.549,233.689,126.557,240.259,74.762z"/>
    <path style="fill:#FEDAC6;" d="M401.019,366.929l2.048-2.048c-4.087-1.766-8.388-2.978-12.799-3.584l-76.796-9.557
	c-8.584-1.084-15.001-8.413-14.933-17.066V281.6h-85.244v53.16c0.068,8.652-6.348,15.982-14.933,17.066l-76.796,9.557
	c-4.412,0.606-8.712,1.818-12.799,3.584l2.133,1.963c79.834,80.115,209.5,80.337,289.615,0.503
	C400.678,367.262,400.849,367.091,401.019,366.929z"/>
    <path style="fill:#F288B7;" d="M403.067,364.881l-2.048,2.048c-79.834,80.115-209.5,80.337-289.615,0.503
	c-0.171-0.171-0.333-0.333-0.503-0.503l-2.048-2.048c-19.31,7.773-31.99,26.461-32.084,47.272v99.835h358.382v-99.835
	C435.057,391.333,422.377,372.646,403.067,364.881z"/>
    <path style="fill:#F5C4B0;"
          d="M298.624,320.339V281.6h-85.329v38.739C245.294,336.978,266.626,336.978,298.624,320.339z"/>
    <g>
	<path style="fill:#FEDAC6;" d="M358.355,145.073h-8.533v51.197h8.533c14.139,0,25.599-11.46,25.599-25.599
		S372.485,145.073,358.355,145.073z"/>
        <path style="fill:#FEDAC6;" d="M349.822,145.073c-34.132-17.066-42.665-76.796-42.665-76.796l-25.599,8.533
		c0,0-8.533-34.132-34.132-25.599c-33.364,11.093-8.533,51.197-42.665,76.796c-13.371,9.873-27.664,18.44-42.665,25.599l4.693,59.73
		c2.099,47.725,41.402,85.329,89.169,85.329l0,0c47.767,0,87.07-37.605,89.169-85.329L349.822,145.073z"/>
</g>
    <path style="fill:#F5C4B0;" d="M196.23,170.672V136.54c-10.564,7.193-22.04,12.927-34.132,17.066l4.693,59.73
	c1.826,40.181,30.3,74.185,69.543,83.025l-11.263-21.076C196.23,238.935,196.23,210.521,196.23,170.672z"/>
    <path style="fill:#ED7BB2;"
          d="M76.769,408.911v103.077h34.132V358.396C85.302,366.929,76.769,383.995,76.769,408.911z"/>
    <circle cx="307.149" cy="162.113" r="17.066"/>
    <path d="M261.788,212.893l-25.599-8.533c-2.347-0.785-4.241-2.543-5.179-4.83c-0.947-2.287-0.853-4.872,0.247-7.082l17.066-34.132
	l15.265,7.637l-12.663,25.334l16.264,5.418L261.788,212.893z"/>
    <path d="M85.293,511.988H68.227V403.62c-0.23-30.249,22.279-55.925,52.366-59.662l76.796-9.557c4.275-0.538,7.483-4.207,7.458-8.533
	v-35.736h17.066V325.8c0.102,12.919-9.531,23.926-22.399,25.53l-76.805,9.557c-21.494,2.671-37.57,21.017-37.408,42.665v108.436
	H85.293z"/>
    <path d="M443.761,511.988h-17.066V404.047c0.171-21.716-15.914-40.053-37.4-42.733l-76.796-9.557
	c-12.885-1.604-22.518-12.62-22.416-25.599v-36.026h17.066v36.086c-0.034,4.394,3.174,8.064,7.458,8.601l76.788,9.557
	c30.087,3.737,52.597,29.421,52.366,59.73L443.761,511.988L443.761,511.988z"/>
    <path d="M358.346,204.804h-8.533v-17.066h8.533c9.412,0,17.066-7.654,17.066-17.066s-7.654-17.066-17.066-17.066h-8.533V136.54
	h8.533c18.824,0,34.132,15.308,34.132,34.132S377.17,204.804,358.346,204.804z"/>
    <path d="M245.405,247.468c-0.009,0-0.017,0-0.026,0h-6.485v-17.066h6.485c0.009,0,0.017,0,0.026,0c11.17,0,22.348-2.637,32.34-7.637
	l7.637,15.265C273.026,244.2,259.202,247.468,245.405,247.468z"/>
    <circle cx="204.754" cy="162.113" r="17.066"/>
    <path d="M255.951,307.198c-52.469,0-95.381-41.06-97.693-93.487l-4.676-59.432c-0.179-2.372,0.631-4.719,2.244-6.459
	c1.416-1.527,3.328-2.483,5.376-2.696c1.169-0.282,10.623-3.08,38.432-23.935c14.079-10.555,16.093-23.79,18.226-37.792
	c2.355-15.479,5.034-33.022,26.862-40.275c8.627-2.867,17.049-2.287,24.336,1.715c9.173,5.034,14.702,14.31,17.723,21.238
	l17.663-5.888c2.432-0.794,5.034-0.486,7.185,0.836c2.15,1.323,3.601,3.541,3.968,6.041c0.077,0.555,8.345,55.532,38.031,70.379
	c3.08,1.544,4.932,4.787,4.702,8.217l-4.693,68.263C351.341,266.13,308.429,307.198,255.951,307.198z M171.126,159.605l4.173,53.058
	c1.92,43.569,37.34,77.47,80.662,77.47s78.742-33.901,80.645-77.172l4.335-63.143c-25.385-16.358-36.359-52.682-40.327-70.362
	l-16.358,5.453c-2.27,0.751-4.727,0.521-6.809-0.614c-2.082-1.143-3.592-3.106-4.164-5.41c-1.024-3.968-5.256-15.18-12.458-19.105
	c-3.14-1.707-6.545-1.86-10.692-0.469c-11.417,3.797-13.047,11.332-15.385,26.665c-2.312,15.206-5.197,34.123-24.856,48.868
	C193.388,147.198,180.111,155.663,171.126,159.605z"/>
    <path d="M129.536,354.795l-4.181-5.888c-25.513-35.651-30.078-82.616-11.903-122.55c9.42-20.735,13.704-43.714,12.39-66.446
	c-4.249-68.024,35.668-130.178,99.323-154.633c19.549-7.833,41.7-6.92,60.626,2.551l23.073,9.275
	c28.5,0.751,54.21,17.894,65.814,44.038c11.69,26.239,15.359,55.106,10.598,83.46l-1.416,10.171l-16.895-2.347l1.451-10.41
	c4.241-25.274,0.998-50.762-9.326-73.938c-9.122-20.539-29.515-33.85-51.974-33.935c-1.084,0-2.15-0.213-3.157-0.623l-25.172-10.154
	c-15.214-7.577-32.263-8.285-47.392-2.21c-56.778,21.81-92.309,77.137-88.52,137.721c1.476,25.53-3.328,51.291-13.883,74.543
	c-15.658,34.396-11.733,74.851,10.265,105.586l4.198,5.922L129.536,354.795z"/>
    <path d="M383.262,353.208l-15.701-6.698l9.642-22.612c9.412-21.938,9.992-46.317,1.647-68.664
	c-7.97-21.119-11.997-43.287-11.972-65.883v-1.613h17.066v1.621c-0.026,20.53,3.644,40.676,10.879,59.875
	c9.898,26.503,9.207,55.396-1.937,81.378L383.262,353.208z"/>
    <path d="M255.772,427c-54.73,0-109.375-20.889-150.922-62.58l12.091-12.048c76.387,76.66,200.899,76.873,277.55,0.486l12.56,11.571
	C365.164,406.163,310.426,427,255.772,427z"/>
    <path d="M248.451,89.413c-5.103-9.403-12.774-17.066-22.168-22.168l8.14-15.001c12.304,6.681,22.348,16.716,29.029,29.029
	L248.451,89.413z"/>
    <g>
</g>
    <g>
</g>
    <g>
</g>
    <g>
</g>
    <g>
</g>
    <g>
</g>
    <g>
</g>
    <g>
</g>
    <g>
</g>
    <g>
</g>
    <g>
</g>
    <g>
</g>
    <g>
</g>
    <g>
</g>
    <g>
</g>
</svg>
