<?xml version="1.0" encoding="iso-8859-1"?>
<!-- Generator: Adobe Illustrator 19.0.0, SVG Export Plug-In . SVG Version: 6.00 Build 0)  -->
<svg version="1.1" id="Capa_1" xmlns="http://www.w3.org/2000/svg" xmlns:xlink="http://www.w3.org/1999/xlink" x="0px"
     y="0px"
     viewBox="0 0 512 512" style="enable-background:new 0 0 512 512;" xml:space="preserve">
<path style="fill:#F5AD76;" d="M332.801,401.067h-153.6c-25.711-10.402-42.573-35.328-42.667-63.061V128
	c0-65.98,53.487-119.467,119.467-119.467l0,0c65.98,0,119.467,53.487,119.467,119.467v210.005
	C375.382,365.739,358.512,390.665,332.801,401.067z"/>
    <rect x="110.934" y="443.733" style="fill:#FEDAC6;" width="34.133" height="68.267"/>
    <rect x="76.801" y="443.733" style="fill:#F5C4B0;" width="34.133" height="68.267"/>
    <rect x="366.934" y="443.733" style="fill:#FEDAC6;" width="68.267" height="68.267"/>
    <path style="fill:#3CACDE;" d="M435.201,403.627c0.196-25.984-19.098-48-44.885-51.2l-59.221-7.424l-17.067-2.133
	c-8.585-1.084-15.002-8.414-14.933-17.067V281.6h-85.76v44.629c0.068,8.653-6.349,15.983-14.933,17.067l-17.493,2.133l-59.221,7.424
	c-25.788,3.2-45.082,25.216-44.885,51.2v39.68h68.267l-1.792,3.584c-10.044,20.079-15.275,42.231-15.275,64.683h256
	c0.009-22.451-5.222-44.604-15.275-64.683l-1.792-3.584h68.267V403.627z"/>
    <path style="fill:#FEDAC6;"
          d="M298.668,328.875V281.6h-85.333v47.275C245.334,345.515,266.668,345.515,298.668,328.875z"/>
    <path style="fill:#329AC7;" d="M136.534,462.592c-5.803,15.821-8.695,32.555-8.533,49.408h57.003
	C162.33,503.518,144.581,485.427,136.534,462.592z"/>
    <path style="fill:#F5C4B0;" d="M298.668,307.2v-25.6h-85.333v42.667C234.582,325.632,256.001,324.267,298.668,307.2z"/>
    <path style="fill:#329AC7;" d="M110.934,355.413c-20.437,7.228-34.108,26.539-34.133,48.213v40.107h34.133V355.413z"/>
    <path style="fill:#FECB66;" d="M332.801,401.067L332.801,401.067V128c-16.341-4.369-31.121-13.235-42.667-25.6
	c-12.527-13.261-23.945-27.537-34.133-42.667c-10.189,15.13-21.606,29.406-34.133,42.667
	c-13.261,12.527-27.537,23.945-42.667,34.133v264.533l0,0c-25.711-10.402-42.573-35.328-42.667-63.061V128
	c0-65.98,53.487-119.467,119.467-119.467l0,0c65.98,0,119.467,53.487,119.467,119.467v210.005
	C375.382,365.739,358.512,390.665,332.801,401.067z"/>
    <path style="fill:#F5AD76;" d="M222.465,13.397C171.555,28.288,136.56,74.957,136.534,128v210.005
	c0.094,27.733,16.956,52.659,42.667,63.061V136.533c12.629-8.567,24.713-17.92,36.181-27.989
	C212.908,76.655,215.297,44.57,222.465,13.397z"/>
    <path style="fill:#FEDAC6;" d="M332.801,254.635c-9.259,13.909-21.999,25.148-36.949,32.597l-17.067,8.533l16.128-8.107
	l-16.128,8.107c-14.396,7.185-31.343,7.185-45.739,0l-17.067-8.533c-13.662-8.644-26.035-19.157-36.779-31.232V136.533
	c15.13-10.189,29.406-21.606,42.667-34.133c12.527-13.261,23.945-27.537,34.133-42.667c10.189,15.13,21.606,29.406,34.133,42.667
	c11.546,12.365,26.325,21.231,42.667,25.6V254.635z"/>
    <g>
	<path style="fill:#F5C4B0;" d="M213.334,110.336c-10.854,9.395-22.255,18.142-34.133,26.197V256
		c10.795,12.092,23.228,22.605,36.949,31.232l12.629,6.4c-9.566-28.672-14.78-58.615-15.445-88.832V110.336z"/>
        <polygon style="fill:#F5C4B0;" points="332.801,254.635 332.801,254.635 332.801,256 	"/>
</g>
    <circle cx="307.201" cy="162.133" r="17.067"/>
    <path d="M241.434,219.366L224.368,202.3c-3.337-3.337-3.337-8.73,0-12.066l17.067-17.067l12.066,12.066l-11.034,11.034
	l11.034,11.034L241.434,219.366z"/>
    <path d="M180.259,354.065l-2.108-16.93l19.2-2.389c4.284-0.538,7.492-4.207,7.458-8.533v-36.079h17.067v36.011
	c0.102,12.919-9.523,23.927-22.409,25.532L180.259,354.065z"/>
    <path d="M85.334,512H68.268V403.627c-0.23-30.251,22.281-55.927,52.369-59.665l14.447-2.5l2.901,16.819l-14.848,2.56
	c-21.888,2.731-37.965,21.077-37.803,42.726V512z"/>
    <path d="M443.734,512h-17.067V403.968c0.171-21.717-15.915-40.055-37.402-42.735l-15.437-2.995l3.268-16.751l14.848,2.901
	c29.508,3.652,52.019,29.338,51.78,59.639V512H443.734z"/>
    <path d="M331.785,354.074l-19.2-2.304c-12.919-1.63-22.554-12.638-22.451-25.609v-36.028h17.067v36.096
	c-0.034,4.395,3.174,8.055,7.467,8.602l19.149,2.295L331.785,354.074z"/>
    <path d="M245.445,247.467c-0.009,0-0.017,0-0.026,0h-6.485V230.4h6.485c0.009,0,0.017,0,0.026,0c11.17,0,22.349-2.637,32.341-7.637
	l7.637,15.266C273.076,244.207,259.252,247.467,245.445,247.467z"/>
    <circle cx="204.801" cy="162.133" r="17.067"/>
    <polygon points="324.788,273.067 324.268,273.067 324.268,256 "/>
    <path d="M179.201,409.6c-1.084,0-2.167-0.205-3.2-0.623c-29.056-11.75-47.898-39.595-48-70.938V128c0-70.579,57.421-128,128-128
	s128,57.421,128,128v210.005c-0.102,31.377-18.944,59.213-48,70.963c-2.637,1.058-5.615,0.759-7.97-0.836
	c-2.355-1.57-3.763-4.233-3.763-7.066V134.323c-15.377-5.231-29.235-14.174-40.371-26.103
	c-9.967-10.556-19.319-21.837-27.895-33.613c-8.576,11.793-17.946,23.074-27.93,33.647c-12.774,12.083-26.24,23.006-40.337,32.777
	v260.036c0,2.833-1.408,5.495-3.763,7.074C182.546,409.105,180.873,409.6,179.201,409.6z M256.001,51.2
	c2.842,0,5.495,1.417,7.083,3.763c9.89,14.686,21.077,28.672,33.263,41.574c10.487,11.238,23.851,19.26,38.656,23.211
	c3.729,1.007,6.332,4.386,6.332,8.252v258.825c15.812-10.948,25.532-28.996,25.6-48.845V128
	c0-61.167-49.766-110.933-110.933-110.933S145.068,66.833,145.068,128v210.005c0.068,19.823,9.788,37.871,25.6,48.819V136.533
	c0-2.842,1.417-5.495,3.763-7.083c14.703-9.899,28.689-21.094,41.574-33.254c11.819-12.535,23.014-26.522,32.913-41.233
	C250.505,52.617,253.159,51.2,256.001,51.2z"/>
    <path d="M255.907,309.649c-9.165,0-18.321-2.082-26.667-6.246l-17.075-8.533c-0.256-0.128-0.503-0.265-0.742-0.427
	c-14.327-9.062-27.315-20.087-38.588-32.768l12.749-11.341c10.129,11.383,21.769,21.299,34.611,29.466l16.683,8.346
	c11.921,5.948,26.18,5.939,38.101,0l16.119-8.098c0.247-0.128,0.503-0.23,0.751-0.333l0.196-0.102
	c13.619-6.784,25.25-17.05,33.655-29.687l14.217,9.446c-10.069,15.13-23.987,27.409-40.252,35.516l-17.058,8.525
	c-0.017,0.009-0.034,0.017-0.051,0.026C274.202,307.575,265.055,309.649,255.907,309.649z"/>
    <path d="M119.468,512c0-23.654,5.589-47.343,16.179-68.497l0.887-1.783v-23.586h17.067v25.6c0,1.323-0.307,2.637-0.896,3.814
	l-1.792,3.584c-9.412,18.799-14.379,39.851-14.379,60.868H119.468z"/>
    <path d="M392.534,512h-17.067c0.009-21.018-4.958-42.061-14.379-60.868l-1.792-3.584c-0.589-1.178-0.896-2.492-0.896-3.814v-25.6
	h17.067v23.586l0.887,1.783C386.953,464.666,392.543,488.354,392.534,512z"/>
    <path d="M256.001,348.954c-16.862,0-33.724-5.299-47.804-15.898l10.266-13.636c22.101,16.649,52.966,16.649,75.068,0l10.266,13.636
	C289.733,343.646,272.871,348.954,256.001,348.954z"/>
    <rect x="76.801" y="435.2" width="68.267" height="17.067"/>
    <rect x="366.934" y="435.2" width="68.267" height="17.067"/>
    <g>
</g>
    <g>
</g>
    <g>
</g>
    <g>
</g>
    <g>
</g>
    <g>
</g>
    <g>
</g>
    <g>
</g>
    <g>
</g>
    <g>
</g>
    <g>
</g>
    <g>
</g>
    <g>
</g>
    <g>
</g>
    <g>
</g>
</svg>
