<?xml version="1.0" encoding="iso-8859-1"?>
<!-- Generator: Adobe Illustrator 19.0.0, SVG Export Plug-In . SVG Version: 6.00 Build 0)  -->
<svg version="1.1" id="Capa_1" xmlns="http://www.w3.org/2000/svg" xmlns:xlink="http://www.w3.org/1999/xlink" x="0px"
     y="0px"
     viewBox="0 0 512 512" style="enable-background:new 0 0 512 512;" xml:space="preserve">
<path style="fill:#A15D30;" d="M358.357,349.867c17.067-51.2,17.067-196.267,17.067-196.267c0-102.4-34.133-145.067-119.467-145.067
	l0,0c-45.397,0-93.269,13.995-110.933,68.267c-17.067,51.2-25.6,179.2,17.067,273.067c19.533,32.99,55.561,52.634,93.867,51.2
	C296.252,401.067,334.182,382.097,358.357,349.867z"/>
    <path style="fill:#8F4F24;" d="M196.224,19.712c-24.644,10.556-43.383,31.445-51.2,57.088c-17.067,51.2-25.6,179.2,17.067,273.067
	c19.115,32.23,54.016,51.763,91.477,51.2C200.832,305.92,196.224,95.829,196.224,19.712z"/>
    <rect x="110.891" y="443.733" style="fill:#FEDAC6;" width="34.133" height="68.267"/>
    <rect x="76.757" y="443.733" style="fill:#F5C4B0;" width="34.133" height="68.267"/>
    <rect x="366.891" y="443.733" style="fill:#FEDAC6;" width="68.267" height="68.267"/>
    <path style="fill:#F288B7;" d="M435.157,403.627c0.196-25.984-19.098-48-44.885-51.2l-59.221-7.424l-3.755,8.533
	c-16.939,39.398-62.609,57.609-102.007,40.67c-18.261-7.851-32.811-22.409-40.67-40.67l-3.755-8.533l-59.221,7.424
	c-25.788,3.2-45.082,25.216-44.885,51.2v40.107h68.267l-1.792,3.584c-10.052,20.079-15.283,42.231-15.275,64.683h256
	c0.009-22.451-5.222-44.604-15.275-64.683l-1.792-3.584h68.267V403.627z"/>
    <path style="fill:#ED7BB2;" d="M110.891,355.413c-20.437,7.228-34.108,26.539-34.133,48.213v40.107h34.133V355.413z"/>
    <path style="fill:#FEDAC6;" d="M255.957,401.067c31.044,0.017,59.11-18.483,71.339-47.019l3.755-8.533l-17.067-2.133
	c-8.585-1.084-15.002-8.414-14.933-17.067V281.6h-85.76v44.629c0.068,8.653-6.349,15.983-14.933,17.067l-17.493,2.133l3.755,8.533
	C196.821,382.532,224.896,401.067,255.957,401.067z"/>
    <path style="fill:#F5C4B0;"
          d="M298.624,328.875V281.6h-85.333v47.275C245.291,345.515,266.624,345.515,298.624,328.875z"/>
    <g>
	<path style="fill:#FEDAC6;" d="M358.357,145.067h-17.067v51.2h17.067c14.14,0,25.6-11.46,25.6-25.6
		C383.957,156.527,372.497,145.067,358.357,145.067z"/>
        <path style="fill:#FEDAC6;" d="M349.824,145.067c-110.933-25.6-153.6-68.267-153.6-68.267l-34.133,76.8l4.693,59.733
		c2.099,47.727,41.404,85.333,89.173,85.333l0,0c47.77,0,87.074-37.606,89.173-85.333L349.824,145.067z"/>
</g>
    <path style="fill:#F5C4B0;" d="M196.224,76.8l-34.133,76.8l4.693,59.733c2.048,45.739,29.44,68.267,63.573,76.8
	c-12.971-16.128-17.067-29.525-25.6-51.2C194.517,213.333,196.224,76.8,196.224,76.8z"/>
    <path style="fill:#ED7BB2;" d="M139.136,465.579c-7.313,14.379-11.145,30.285-11.179,46.421h57.003
	C155.264,499.541,143.573,480.427,139.136,465.579z"/>
    <circle cx="307.157" cy="162.133" r="17.067"/>
    <path d="M253.261,221.431l-25.6-8.533c-2.517-0.845-4.506-2.816-5.367-5.325c-0.862-2.517-0.503-5.291,0.973-7.501l17.067-25.6
	l14.199,9.463l-10.871,16.307l15.002,5.001L253.261,221.431z"/>
    <path d="M85.291,512H68.224V403.627c-0.23-30.251,22.281-55.927,52.369-59.665l76.8-9.557c4.275-0.538,7.484-4.207,7.458-8.533
	v-35.738h17.067v35.669c0.102,12.919-9.532,23.927-22.4,25.532l-76.809,9.557c-21.495,2.671-37.572,21.018-37.41,42.667V512H85.291z
	"/>
    <path d="M443.776,512h-17.067V404.053c0.171-21.717-15.915-40.055-37.402-42.735l-76.8-9.549
	c-12.885-1.621-22.519-12.629-22.417-25.6v-36.036h17.067v36.096c-0.034,4.395,3.174,8.055,7.467,8.602l76.783,9.549
	c30.089,3.738,52.599,29.423,52.369,59.733L443.776,512L443.776,512z"/>
    <path d="M358.357,204.8h-8.533v-17.067h8.533c9.412,0,17.067-7.654,17.067-17.067c0-9.412-7.654-17.067-17.067-17.067h-8.533
	v-17.067h8.533c18.825,0,34.133,15.309,34.133,34.133S377.182,204.8,358.357,204.8z"/>
    <path d="M256,409.6c-0.034,0-0.068,0-0.094,0c-34.483,0-65.545-20.48-79.13-52.19l-5.461-12.706l15.684-6.733l5.461,12.715
	c10.897,25.421,35.806,41.847,63.454,41.847c0.026,0,0.051,0,0.077,0c27.665,0,52.574-16.418,63.471-41.839l5.461-12.723
	l15.684,6.733l-5.461,12.715C321.562,389.12,290.492,409.6,256,409.6z"/>
    <path d="M245.402,247.467c-0.009,0-0.017,0-0.026,0h-6.485V230.4h6.485c0.009,0,0.017,0,0.026,0c11.17,0,22.349-2.637,32.341-7.637
	l7.637,15.266C273.033,244.207,259.209,247.467,245.402,247.467z"/>
    <path d="M154.325,353.4c-45.047-99.106-33.562-230.81-17.399-279.296C152.704,25.643,193.869,0,255.957,0
	c89.719,0,128,45.935,128,153.6h-17.067c0-98.253-31.104-136.533-110.933-136.533c-54.758,0-89.344,20.983-102.818,62.379
	c-15.445,46.327-26.368,172.1,16.717,266.889L154.325,353.4z"/>
    <path d="M255.957,307.2c-52.471,0-95.386-41.071-97.698-93.491l-4.676-59.435c-0.111-1.417,0.137-2.842,0.708-4.139l34.133-76.8
	c1.143-2.569,3.473-4.412,6.238-4.924c2.773-0.521,5.606,0.367,7.595,2.355c0.401,0.393,42.812,41.37,149.487,65.98
	c4.087,0.947,6.886,4.719,6.596,8.9l-4.693,68.267C351.351,266.138,308.437,307.2,255.957,307.2z M170.769,155.085l4.531,57.574
	c1.92,43.571,37.342,77.474,80.657,77.474s78.746-33.903,80.649-77.175l4.207-61.261c-80.179-19.507-123.861-47.539-141.406-61.047
	L170.769,155.085z"/>
    <circle cx="204.757" cy="162.133" r="17.067"/>
    <path d="M366.566,352.205l-16.418-4.685c16.538-57.882,16.742-158.78,16.742-159.795h17.067
	C383.957,191.966,383.761,292.019,366.566,352.205z"/>
    <path d="M119.424,512c0-23.654,5.589-47.343,16.179-68.497l0.887-1.783v-23.586h17.067v25.6c0,1.323-0.307,2.637-0.896,3.814
	l-1.792,3.584c-9.412,18.799-14.379,39.851-14.379,60.868H119.424L119.424,512z"/>
    <rect x="76.757" y="435.2" width="68.267" height="17.067"/>
    <rect x="366.891" y="435.2" width="68.267" height="17.067"/>
    <path d="M392.491,512h-17.067c0.009-21.018-4.958-42.061-14.379-60.868l-1.792-3.584c-0.589-1.186-0.896-2.492-0.896-3.814v-25.6
	h17.067v23.586l0.887,1.783C386.91,464.666,392.499,488.354,392.491,512z"/>
    <g>
</g>
    <g>
</g>
    <g>
</g>
    <g>
</g>
    <g>
</g>
    <g>
</g>
    <g>
</g>
    <g>
</g>
    <g>
</g>
    <g>
</g>
    <g>
</g>
    <g>
</g>
    <g>
</g>
    <g>
</g>
    <g>
</g>
</svg>
