<?xml version="1.0" encoding="iso-8859-1"?>
<!-- Generator: Adobe Illustrator 19.0.0, SVG Export Plug-In . SVG Version: 6.00 Build 0)  -->
<svg version="1.1" id="Capa_1" xmlns="http://www.w3.org/2000/svg" x="0px"
     y="0px"
     viewBox="0 0 511.996 511.996" style="enable-background:new 0 0 511.996 511.996;" xml:space="preserve">
<path style="fill:#DBDBDB;" d="M307.12,329.557c59.643-19.001,93.725-76.684,93.725-76.684
	c-15.95-10.642-25.544-28.543-25.561-47.714v-77.365c0-56.26-39.305-104.869-94.321-116.644l0,0c-16.461-3.493-33.468-3.493-49.93,0
	l0,0c-55.016,11.775-94.321,60.384-94.321,116.644v77.365c-0.017,19.171-9.611,37.072-25.561,47.714
	c0,0,25.561,68.163,93.725,76.684H307.12z"/>
    <path style="fill:#BFBFBF;" d="M237.083,10.212c-2.045,0-4.09,0.511-6.049,0.937c-55.016,11.775-94.321,60.384-94.321,116.644
	v77.365c-0.017,19.171-9.611,37.072-25.561,47.714c0,0,25.561,68.163,93.725,76.684h37.405
	C216.114,224.918,214.342,115.66,237.083,10.212z"/>
    <path style="fill:#DBDBDB;" d="M375.795,349.92l-61.773-8.52l-58.024,33.485l-58.024-33.144l-61.773,8.52
	c-33.724,4.507-58.961,33.195-59.132,67.226v93.725h357.857v-93.725C434.935,383.338,409.655,354.453,375.795,349.92z"/>
    <polygon style="fill:#FEDAC6;" points="314.022,341.741 307.12,340.804 307.12,281.161 204.875,281.161 204.875,340.804
	197.974,341.741 255.998,374.885 "/>
    <g>
	<polygon style="fill:#EAEAEA;" points="204.875,408.967 255.998,374.885 204.875,340.804 187.835,340.804 	"/>
        <polygon style="fill:#EAEAEA;" points="255.998,374.885 307.12,408.967 324.161,340.804 307.12,340.804 	"/>
</g>
    <polyline style="fill:#2E6AA3;" points="230.437,511.212 238.957,417.487 230.437,391.926 255.998,374.885 281.559,391.926
	273.039,417.487 281.559,511.212 "/>
    <path style="fill:#BFBFBF;"
          d="M77.069,417.487v93.725h34.082V358.526C90.088,370.693,77.095,393.162,77.069,417.487z"/>
    <path style="fill:#F5C4B0;" d="M204.875,281.161v34.082l7.498,7.498c11.571,11.571,27.265,18.063,43.624,18.063l0,0
	c16.359,0,32.054-6.493,43.624-18.063l7.498-7.498v-34.082H204.875z"/>
    <g>
	<path style="fill:#FEDAC6;" d="M349.722,104.618v120.564c0.111,12.525-4.371,24.65-12.61,34.082l-36.808,41.665
		c-6.458,7.353-15.771,11.579-25.561,11.588h-37.319c-9.79-0.009-19.103-4.235-25.561-11.588l-36.808-42.091
		c-8.239-9.432-12.721-21.557-12.61-34.082V104.618c0.009-14.118,11.451-25.561,25.57-25.553c1.542,0,3.076,0.136,4.592,0.418
		l14.826,2.641c32.224,5.879,65.249,5.879,97.473,0l14.826-2.641c13.905-2.445,27.155,6.842,29.608,20.747
		C349.595,101.678,349.722,103.152,349.722,104.618z"/>
        <path style="fill:#FEDAC6;" d="M349.722,142.108h-8.52v51.122h8.52c14.118,0,25.561-11.443,25.561-25.561
		S363.841,142.108,349.722,142.108z"/>
        <path style="fill:#FEDAC6;" d="M136.712,167.669c0,14.118,11.443,25.561,25.561,25.561h8.52v-51.122h-8.52
		C148.155,142.108,136.712,153.559,136.712,167.669z"/>
</g>
    <path style="fill:#DBDBDB;" d="M315.641,244.353H196.355v-8.52c0-18.822,15.26-34.082,34.082-34.082h51.122
	c18.822,0,34.082,15.26,34.082,34.082V244.353z"/>
    <path style="fill:#F5C4B0;" d="M196.355,80.164l-3.919-0.682c-13.888-2.539-27.206,6.654-29.745,20.543
	c-0.281,1.517-0.417,3.05-0.417,4.592v120.564c-0.111,12.525,4.371,24.65,12.61,34.082l21.471,24.028L196.355,80.164L196.355,80.164
	z"/>
    <path d="M349.722,201.759h-8.52v-17.041h8.52c9.398,0,17.041-7.643,17.041-17.041c0-9.398-7.643-17.041-17.041-17.041h-8.52v-17.041
	h8.52c18.796,0,34.082,15.286,34.082,34.082S368.518,201.759,349.722,201.759z"/>
    <path d="M170.794,201.759h-8.52c-18.796,0-34.082-15.286-34.082-34.082s15.286-34.082,34.082-34.082h8.52v17.041h-8.52
	c-9.398,0-17.041,7.643-17.041,17.041c0,9.398,7.643,17.041,17.041,17.041h8.52V201.759z"/>
    <path d="M264.518,210.279h-25.561c-2.445,0-4.771-1.048-6.39-2.88s-2.369-4.269-2.07-6.697l8.52-68.163l16.904,2.113l-7.319,58.586
	h15.908v17.041H264.518z"/>
    <path d="M274.76,321.045h-37.336c-12.252-0.017-23.891-5.3-31.96-14.485l-36.817-42.099c-9.62-11.017-14.843-25.144-14.715-39.765
	V104.618c0-9.108,3.553-17.663,9.986-24.096c6.433-6.433,14.987-9.969,24.087-9.969c0.009,0,0.009,0,0.017,0
	c2.053,0,4.107,0.179,6.135,0.554l14.774,2.633c31.364,5.709,63.128,5.726,94.449,0l14.86-2.65
	c18.574-3.289,36.229,9.142,39.492,27.649c0.341,1.96,0.52,3.919,0.52,5.871v120.564c0.136,14.536-5.095,28.663-14.723,39.68
	l-36.834,41.707C298.634,315.737,286.987,321.028,274.76,321.045z M188.005,87.594c-4.558,0-8.827,1.772-12.048,4.984
	c-3.221,3.212-4.993,7.498-4.993,12.048v120.138c-0.094,10.523,3.638,20.611,10.506,28.484l36.8,42.082
	c4.831,5.504,11.818,8.674,19.162,8.682h37.311c7.319-0.009,14.314-3.178,19.162-8.699l36.817-41.682
	c6.842-7.839,10.574-17.927,10.472-28.364V104.618c0-0.988-0.094-1.968-0.256-2.94c-1.627-9.219-10.48-15.422-19.725-13.803
	l-14.808,2.641c-33.323,6.075-67.141,6.067-100.507,0l-14.783-2.641C190.058,87.679,189.036,87.594,188.005,87.594
	C188.014,87.594,188.005,87.594,188.005,87.594z"/>
    <circle cx="204.918" cy="150.637" r="17.041"/>
    <circle cx="298.643" cy="150.637" r="17.041"/>
    <path d="M315.641,252.882H196.355c-4.703,0-8.52-3.817-8.52-8.52v-8.52c0-23.491,19.111-42.602,42.602-42.602h51.122
	c23.491,0,42.602,19.111,42.602,42.602v8.52C324.161,249.064,320.353,252.882,315.641,252.882z M204.875,235.841H307.12
	c0-14.093-11.468-25.561-25.561-25.561h-51.122C216.344,210.279,204.875,221.739,204.875,235.841z"/>
    <rect x="239" y="269.922" width="34.082" height="17.041"/>
    <path d="M145.233,184.718h-17.041v-56.916c0-59.881,42.5-112.444,101.052-124.977c17.757-3.766,35.743-3.766,53.483,0
	c58.569,12.534,101.069,65.096,101.069,124.977v48.396h-17.041v-48.396c0-51.898-36.834-97.456-87.581-108.311
	c-15.379-3.272-30.98-3.263-46.377,0c-50.739,10.855-87.564,56.414-87.564,108.311L145.233,184.718L145.233,184.718z"/>
    <rect x="247.52" y="39.871" width="17.041" height="51.122"/>
    <rect x="213.438" y="48.392" width="17.041" height="34.082"/>
    <rect x="281.602" y="48.392" width="17.041" height="34.082"/>
    <path d="M309.711,337.685l-5.172-16.24c44.391-14.144,74.332-51.685,84.829-66.638c-14.272-12.423-22.579-30.435-22.596-49.631
	v-28.978h17.041v28.969c0.017,16.351,8.154,31.543,21.77,40.625c3.766,2.514,4.908,7.524,2.616,11.426
	C406.724,259.681,371.731,317.909,309.711,337.685z"/>
    <path d="M370.205,291.326c-15.056-11.187-26.388-26.439-32.752-44.076l16.027-5.785c5.232,14.485,14.527,26.993,26.89,36.186
	L370.205,291.326z"/>
    <path d="M344.516,319.273c-12.661-9.781-22.451-22.826-28.279-37.72l15.856-6.22c4.72,12.031,12.61,22.554,22.843,30.443
	L344.516,319.273z"/>
    <path d="M203.819,338.017c-72.441-9.057-99.527-79.163-100.652-82.145c-1.389-3.715-0.043-7.89,3.246-10.088
	c13.616-9.083,21.753-24.275,21.77-40.634v-28.952h17.041v28.969c-0.017,19.631-8.699,38.001-23.533,50.441
	c7.728,15.788,33.366,59.149,84.233,65.505L203.819,338.017z"/>
    <path d="M141.799,291.326l-10.165-13.675c12.363-9.185,21.659-21.701,26.89-36.186l16.027,5.785
	C168.178,264.895,156.854,280.138,141.799,291.326z"/>
    <path d="M167.479,319.273l-10.412-13.496c10.233-7.89,18.123-18.413,22.835-30.435l15.865,6.211
	C189.939,296.446,180.149,309.491,167.479,319.273z"/>
    <path d="M85.59,511.22H68.549v-93.725c0-38.265,28.594-70.941,66.527-76.019l61.279-8.128V289.69h17.041v51.122
	c0,4.269-3.17,7.89-7.404,8.444l-68.675,9.108c-29.489,3.945-51.736,29.361-51.727,59.123C85.59,417.487,85.59,511.22,85.59,511.22z
	"/>
    <path d="M443.447,511.22h-17.041v-93.725c0-29.762-22.238-55.187-51.744-59.123l-68.666-9.108c-4.235-0.554-7.396-4.175-7.396-8.444
	v-51.122h17.041v43.659l61.27,8.128c37.933,5.07,66.536,37.754,66.536,76.019V511.22z"/>
    <rect x="136.755" y="443.057" width="17.041" height="68.163"/>
    <rect x="358.285" y="443.057" width="17.041" height="68.163"/>
    <path d="M204.875,417.496c-1.039,0-2.079-0.187-3.076-0.571c-2.582-0.997-4.516-3.195-5.189-5.879l-17.041-68.163l16.53-4.124
	l14.11,56.431l41.06-27.376l9.449,14.178l-51.122,34.082C208.19,417.01,206.537,417.496,204.875,417.496z"/>
    <path d="M255.998,383.414c-1.457,0-2.914-0.375-4.226-1.125l-59.643-34.082l8.452-14.791l55.417,31.67l55.417-31.67l8.452,14.791
	l-59.643,34.082C258.92,383.039,257.463,383.414,255.998,383.414z"/>
    <path d="M307.12,417.496c-1.653,0-3.306-0.486-4.729-1.431l-51.122-34.082l9.449-14.178l41.06,27.376l14.11-56.431l16.521,4.124
	l-17.041,68.163c-0.665,2.684-2.607,4.882-5.189,5.879C309.199,417.3,308.16,417.496,307.12,417.496z"/>
    <path d="M238.923,511.996l-16.973-1.551l8.359-91.944l-7.958-23.874l16.163-5.393l8.52,25.561c0.366,1.116,0.511,2.301,0.4,3.468
	L238.923,511.996z"/>
    <path d="M273.073,511.996l-8.52-93.725c-0.102-1.176,0.034-2.352,0.409-3.468l8.52-25.561l16.155,5.393l-7.958,23.874l8.359,91.944
	L273.073,511.996z"/>
    <rect x="239" y="408.975" width="34.082" height="17.041"/>
    <g>
</g>
    <g>
</g>
    <g>
</g>
    <g>
</g>
    <g>
</g>
    <g>
</g>
    <g>
</g>
    <g>
</g>
    <g>
</g>
    <g>
</g>
    <g>
</g>
    <g>
</g>
    <g>
</g>
    <g>
</g>
    <g>
</g>
</svg>
