<?xml version="1.0" encoding="iso-8859-1"?>
<!-- Generator: Adobe Illustrator 19.0.0, SVG Export Plug-In . SVG Version: 6.00 Build 0)  -->
<svg version="1.1" id="Capa_1" xmlns="http://www.w3.org/2000/svg" x="0px"
     y="0px"
     viewBox="0 0 512 512" style="enable-background:new 0 0 512 512;" xml:space="preserve">
<path style="fill:#70432C;" d="M412.203,373.153c0.026-22.684-6.352-44.908-18.397-64.13l-6.595-10.587
	c-12.045-19.222-18.423-41.446-18.397-64.13V121.492C368.814,59.184,318.308,8.678,256,8.678l0,0
	c-62.308,0-112.814,50.506-112.814,112.814v112.814c0.026,22.684-6.352,44.908-18.397,64.13l-6.595,10.587
	c-12.045,19.222-18.423,41.446-18.397,64.13l0,0c0,0,34.712,60.746,156.203,60.746S412.203,373.153,412.203,373.153z"/>
    <path style="fill:#5C3724;" d="M163.319,57.188c-13.104,18.883-20.133,41.316-20.133,64.304v112.814
	c0.026,22.684-6.352,44.908-18.397,64.13l-6.595,10.587c-12.045,19.222-18.423,41.446-18.397,64.13
	c0,0,34.712,60.746,156.203,60.746V130.169C188.746,130.169,167.832,93.028,163.319,57.188z"/>
    <path style="fill:#787D82;" d="M393.025,367.165l-60.312-8.071l-4.165,9.633c-17.226,40.066-63.67,58.585-103.736,41.359
	c-18.571-7.984-33.367-22.788-41.359-41.359l-4.165-9.633l-60.312,8.071c-25.852,3.436-45.177,25.47-45.212,51.547V512h364.475
	v-93.288C438.203,392.635,418.877,370.601,393.025,367.165z"/>
    <path style="fill:#FEDAC6;" d="M256,416.542c31.57,0.017,60.112-18.796,72.548-47.816l4.165-9.633l-9.546-1.302
	c-8.695-1.137-15.178-8.582-15.1-17.356v-36.708H203.932v37.228c0.078,8.773-6.404,16.219-15.1,17.356l-9.546,1.302l4.165,9.633
	C196.044,398.067,224.551,416.647,256,416.542z"/>
    <path style="fill:#F5C4B0;" d="M309.109,346.338c-0.694-1.831-1.05-3.775-1.041-5.727v-36.881H203.932v37.228
	c0.009,1.953-0.347,3.896-1.041,5.727C236.336,363.494,275.777,363.364,309.109,346.338z"/>
    <g>
	<path style="fill:#FEDAC6;" d="M351.458,156.203h-8.678v52.068h8.678c14.379,0,26.034-11.655,26.034-26.034
		C377.492,167.858,365.837,156.203,351.458,156.203z"/>
        <path style="fill:#FEDAC6;" d="M134.508,182.237c0,14.379,11.655,26.034,26.034,26.034h8.678v-52.068h-8.678
		C146.163,156.203,134.508,167.858,134.508,182.237z"/>
</g>
    <path id="SVGCleanerId_0" d="M264.678,225.627h-26.034c-2.473,0-4.825-1.05-6.465-2.89c-1.649-1.84-2.43-4.296-2.161-6.743
	l8.678-78.102l17.243,1.918l-7.602,68.46h16.341V225.627z"/>
    <path style="fill:#FEDAC6;" d="M342.78,112.814v91.726c0,25.157-6.838,49.846-19.786,71.42l-14.405,24.038
	c-11.09,18.467-31.05,29.765-52.589,29.765l0,0c-21.539,0-41.498-11.299-52.588-29.765l-14.405-24.038
	c-12.948-21.573-19.786-46.262-19.786-71.42v-83.048c0,0,78.102-17.356,86.78-69.424C268.357,89.244,303.616,113.933,342.78,112.814
	z"/>
    <g>
	<path style="fill:#EBEBEB;" d="M169.22,138.847h69.424l0,0v26.034c0,19.17-15.542,34.712-34.712,34.712l0,0
		c-19.17,0-34.712-15.542-34.712-34.712V138.847L169.22,138.847z"/>
        <path style="fill:#EBEBEB;" d="M273.356,138.847h69.424l0,0v26.034c0,19.17-15.542,34.712-34.712,34.712l0,0
		c-19.17,0-34.712-15.542-34.712-34.712V138.847L273.356,138.847z"/>
</g>
    <path style="fill:#70432C;" d="M308.675,232.569c-6.005-4.504-13.321-6.942-20.827-6.942h-63.696
	c-7.506,0-14.822,2.439-20.827,6.942l-25.426,19.092c3.037,8.357,6.873,16.41,11.455,24.038l14.405,24.038
	c17.451,29.045,55.148,38.443,84.194,20.983c8.609-5.172,15.811-12.375,20.983-20.983l14.405-24.038
	c4.339-7.654,7.94-15.698,10.761-24.038L308.675,232.569z"/>
    <path style="fill:#717478;" d="M108.475,369.768c-20.749,7.333-34.651,26.928-34.712,48.944V512h34.712V369.768z"/>
    <path style="fill:#5C3724;" d="M218.164,226.235c-5.389,0.885-10.474,3.055-14.839,6.335l-25.426,19.092
	c3.037,8.357,6.873,16.41,11.455,24.038l14.405,24.038c4.434,7.281,10.344,13.546,17.356,18.397
	C211.23,288.438,210.206,256.503,218.164,226.235z"/>
    <path d="M82.441,512H65.085v-93.288c0.174-30.468,23.066-56.225,53.248-59.982l69.337-9.363c4.374-0.564,7.619-4.296,7.585-8.678
	v-36.959h17.356v36.881c0.113,13.069-9.624,24.264-22.658,25.956l-69.389,9.372c-21.652,2.699-38.001,21.096-38.131,42.826V512
	H82.441z"/>
    <path d="M446.915,512h-17.356v-93.288c-0.13-21.678-16.479-40.075-38.036-42.765l-69.519-9.381
	c-12.991-1.692-22.728-12.887-22.615-26.034v-36.803h17.356v36.881c-0.043,4.46,3.202,8.183,7.55,8.756l69.458,9.372
	c30.095,3.749,52.979,29.505,53.161,59.921V512z"/>
    <path d="M351.458,216.949h-8.678v-17.356h8.678c9.572,0,17.356-7.784,17.356-17.356s-7.784-17.356-17.356-17.356h-8.678v-17.356
	h8.678c19.144,0,34.712,15.568,34.712,34.712S370.601,216.949,351.458,216.949z"/>
    <path d="M169.22,216.949h-8.678c-19.144,0-34.712-15.568-34.712-34.712s15.568-34.712,34.712-34.712h8.678v17.356h-8.678
	c-9.572,0-17.356,7.784-17.356,17.356s7.784,17.356,17.356,17.356h8.678V216.949z"/>
    <path d="M256.043,425.22c-0.043,0-0.078,0-0.095,0c-35.076,0-66.655-20.827-80.471-53.074l-5.554-12.921l15.95-6.847l5.554,12.93
	c11.082,25.852,36.404,42.557,64.529,42.557c0.026,0,0.061,0,0.078,0c28.125,0,53.456-16.705,64.547-42.557l5.554-12.93l15.95,6.847
	l-5.554,12.93C322.708,404.393,291.111,425.22,256.043,425.22z"/>
    <g>
	<path id="SVGCleanerId_0_1_" d="M264.678,225.627h-26.034c-2.473,0-4.825-1.05-6.465-2.89c-1.649-1.84-2.43-4.296-2.161-6.743
		l8.678-78.102l17.243,1.918l-7.602,68.46h16.341V225.627z"/>
</g>
    <path d="M256,338.441c-24.446,0-47.442-13.017-60.025-33.974L181.56,280.42c-13.746-22.91-21.009-49.152-21.018-75.88v-83.048
	c0-4.061,2.829-7.585,6.786-8.47c0.72-0.165,72.504-16.748,80.106-62.377c0.66-3.931,3.905-6.916,7.888-7.229
	c3.844-0.33,7.645,2.126,8.912,5.918c11.238,33.809,42.609,55.695,78.293,54.81c2.334-0.182,4.608,0.816,6.3,2.447
	c1.684,1.631,2.629,3.879,2.629,6.222v91.726c0,26.728-7.272,52.97-21.027,75.889l-14.405,24.038
	C303.451,325.424,280.446,338.441,256,338.441z M177.898,128.191v76.34c0,23.578,6.422,46.731,18.545,66.951l14.414,24.047
	c9.459,15.768,26.754,25.557,45.143,25.557c18.38,0,35.684-9.789,45.143-25.548l14.405-24.038
	c12.132-20.228,18.553-43.381,18.553-66.959v-83.187c-32.178-1.953-60.702-19.43-77.078-46.462
	C238.54,108.006,194.864,123.34,177.898,128.191z"/>
    <path d="M203.932,208.271c-23.925,0-43.39-19.465-43.39-43.39v-26.034c0-4.79,3.888-8.678,8.678-8.678h69.424
	c4.79,0,8.678,3.888,8.678,8.678v26.034C247.322,188.807,227.857,208.271,203.932,208.271z M177.898,147.525v17.356
	c0,14.353,11.681,26.034,26.034,26.034s26.034-11.681,26.034-26.034v-17.356H177.898z"/>
    <path d="M308.068,208.271c-23.925,0-43.39-19.465-43.39-43.39v-26.034c0-4.79,3.879-8.678,8.678-8.678h69.424
	c4.799,0,8.678,3.888,8.678,8.678v26.034C351.458,188.807,331.993,208.271,308.068,208.271z M282.034,147.525v17.356
	c0,14.353,11.681,26.034,26.034,26.034c14.353,0,26.034-11.681,26.034-26.034v-17.356H282.034z"/>
    <rect x="238.644" y="130.169" width="34.712" height="17.356"/>
    <path d="M377.492,164.881h-17.356v-43.39c0-57.422-46.713-104.136-104.136-104.136S151.864,64.069,151.864,121.492v43.39h-17.356
	v-43.39C134.508,54.498,189.006,0,256,0s121.492,54.498,121.492,121.492V164.881z"/>
    <path d="M91.119,373.161c-0.026-24.342,6.795-48.111,19.725-68.747l6.578-10.57c11.212-17.885,17.113-38.461,17.087-59.531v-34.721
	h17.356v34.712c0.026,24.333-6.795,48.102-19.725,68.738l-6.578,10.57c-11.212,17.885-17.113,38.461-17.087,59.531L91.119,373.161z"
    />
    <path d="M420.881,373.161l-17.356-0.017c0.026-21.07-5.884-41.646-17.078-59.505l-6.604-10.622
	c-12.913-20.61-19.734-44.388-19.708-68.721v-34.703h17.356v34.712c-0.026,21.079,5.884,41.654,17.078,59.514l6.604,10.622
	C414.086,325.051,420.907,348.82,420.881,373.161z"/>
    <path d="M183.114,258.603l-10.422-13.885l25.426-19.092c7.472-5.597,16.714-8.678,26.034-8.678h63.696
	c9.329,0,18.58,3.081,26.034,8.678l25.435,19.1l-10.422,13.885l-25.426-19.092c-4.478-3.358-10.014-5.207-15.62-5.207h-63.696
	c-5.597,0-11.143,1.848-15.62,5.207L183.114,258.603z"/>
    <rect x="229.966" y="251.661" width="52.068" height="17.356"/>
    <g>
</g>
    <g>
</g>
    <g>
</g>
    <g>
</g>
    <g>
</g>
    <g>
</g>
    <g>
</g>
    <g>
</g>
    <g>
</g>
    <g>
</g>
    <g>
</g>
    <g>
</g>
    <g>
</g>
    <g>
</g>
    <g>
</g>
</svg>
