<?xml version="1.0" encoding="iso-8859-1"?>
<!-- Generator: Adobe Illustrator 19.0.0, SVG Export Plug-In . SVG Version: 6.00 Build 0)  -->
<svg version="1.1" id="Capa_1" xmlns="http://www.w3.org/2000/svg" x="0px"
     y="0px"
     viewBox="0 0 512.004 512.004" style="enable-background:new 0 0 512.004 512.004;" xml:space="preserve">
<path style="fill:#FEDAC6;" d="M256.002,401.07c31.044,0.017,59.11-18.483,71.339-47.019l3.84-8.533l-17.493-2.048
	c-8.619-1.041-15.078-8.388-15.019-17.067v-44.8h-85.333v44.544c0.06,8.678-6.4,16.026-15.019,17.067l-17.067,2.048l3.84,8.533
	C197.173,382.288,225.051,400.866,256.002,401.07z"/>
    <path style="fill:#DE4C3C;" d="M375.981,350.468l-44.8-5.291l-3.84,8.533c-16.939,39.398-62.609,57.609-102.007,40.67
	c-18.261-7.851-32.811-22.409-40.67-40.67l-3.84-8.533l-44.8,5.291c-33.911,4.531-59.221,33.459-59.221,67.669v93.867h358.4v-93.867
	C435.202,383.927,409.883,354.999,375.981,350.468z"/>
    <path style="fill:#C94536;"
          d="M76.802,418.137v93.867h34.133V359.086C89.832,371.263,76.827,393.766,76.802,418.137z"/>
    <rect x="76.802" y="469.337" style="fill:#FEDAC6;" width="68.267" height="42.667"/>
    <g>
	<rect x="76.802" y="469.337" style="fill:#F5C4B0;" width="34.133" height="42.667"/>
        <path style="fill:#F5C4B0;"
              d="M298.669,315.737v-34.133h-85.333v34.133C245.335,332.804,266.669,332.804,298.669,315.737z"/>
</g>
    <g>
	<rect x="366.935" y="469.337" style="fill:#FEDAC6;" width="68.267" height="42.667"/>
        <path style="fill:#FEDAC6;" d="M349.868,179.204c-0.111,33.101-12.237,65.033-34.133,89.856l-3.499,4.011
		c-14.208,16.196-34.688,25.523-56.235,25.6l0,0c-21.666,0.017-42.291-9.31-56.576-25.6l-3.157-4.096
		c-21.871-24.806-34.005-56.704-34.133-89.771V85.337h187.733V179.204z"/>
</g>
    <path style="fill:#F5C4B0;" d="M200.62,85.337h-38.485v93.867c0.111,33.101,12.237,65.033,34.133,89.856l3.499,4.011
	c3.277,3.755,6.938,7.159,10.923,10.155C188.332,208.558,195.074,126.041,200.62,85.337z"/>
    <path style="fill:#FEDAC6;" d="M358.402,145.07h-17.067v51.2h17.067c14.14,0,25.6-11.46,25.6-25.6
	C384.002,156.531,372.542,145.07,358.402,145.07z"/>
    <path style="fill:#F5C4B0;" d="M128.002,170.67c0,14.14,11.46,25.6,25.6,25.6h17.067v-51.2h-17.067
	C139.462,145.07,128.002,156.531,128.002,170.67z"/>
    <path style="fill:#5C5E6F;" d="M298.669,25.604h-95.403c-11.708,0.009-22.409-6.596-27.648-17.067l-19.541,9.813
	c-17.459,8.806-24.474,30.106-15.667,47.565c4.42,8.772,12.288,15.309,21.726,18.057v61.099c0,0,22.528-32.085,42.667-59.733
	h110.933l34.133,51.2V76.804C349.868,48.524,326.948,25.604,298.669,25.604z"/>
    <path style="fill:#525463;" d="M221.868,68.27c-29.918-3.106-56.883-19.447-73.472-44.544c-14.558,12.919-15.872,35.2-2.953,49.749
	c4.454,5.018,10.24,8.653,16.691,10.496v61.099c0,0,22.528-32.085,42.667-59.733h110.933l34.133,51.2V82.692
	C319.405,79.534,266.924,73.902,221.868,68.27z"/>
    <circle cx="204.802" cy="162.137" r="17.067"/>
    <circle cx="307.202" cy="162.137" r="17.067"/>
    <path d="M264.535,213.337h-25.6c-2.739,0-5.316-1.314-6.921-3.55c-1.604-2.227-2.039-5.086-1.178-7.689l17.067-51.2l16.188,5.402
	l-13.321,39.97h13.764V213.337z"/>
    <path d="M240.386,247.47h-1.451v-17.067h1.451c13.286-0.009,25.779-5.18,35.183-14.575l12.066,12.075
	C275.006,240.507,258.238,247.462,240.386,247.47z"/>
    <path d="M358.402,204.804h-8.533v-17.067h8.533c9.412,0,17.067-7.654,17.067-17.067s-7.654-17.067-17.067-17.067h-8.533v-17.067
	h8.533c18.825,0,34.133,15.309,34.133,34.133S377.226,204.804,358.402,204.804z"/>
    <path d="M162.135,204.804h-8.533c-18.825,0-34.133-15.309-34.133-34.133s15.309-34.133,34.133-34.133h8.533v17.067h-8.533
	c-9.412,0-17.067,7.654-17.067,17.067s7.654,17.067,17.067,17.067h8.533V204.804z"/>
    <path d="M349.868,145.07c-2.799,0-5.495-1.382-7.1-3.797L311.17,93.87H171.949c-16.725,0-31.787-9.293-39.287-24.252
	c-10.846-21.854-1.997-48.179,19.618-58.914l19.507-9.796c2.022-1.015,4.361-1.186,6.519-0.478c2.15,0.717,3.925,2.253,4.941,4.284
	c3.814,7.62,11.477,12.356,19.994,12.356c0,0,0.009,0,0.017,0h95.411c32.93,0,59.733,26.795,59.733,59.733v59.733
	c0,3.755-2.458,7.083-6.059,8.166C351.524,144.951,350.696,145.07,349.868,145.07z M172.631,19.579l-12.732,6.391
	c-13.227,6.571-18.628,22.63-12.083,35.823c4.685,9.327,13.901,15.01,24.132,15.01h143.787c2.85,0,5.513,1.425,7.1,3.797l18.5,27.75
	V76.804c0-23.526-19.14-42.667-42.667-42.667h-95.403c-0.009,0-0.017,0-0.026,0C191.131,34.137,180.012,28.718,172.631,19.579z"/>
    <rect x="146.768" y="106.625" transform="matrix(-0.581 0.8139 -0.8139 -0.581 383.7934 32.7385)" width="73.404"
          height="17.067"/>
    <path d="M255.968,307.204c-24.124,0-47.061-10.385-62.95-28.51l-3.507-4.514c-22.895-25.924-35.772-59.793-35.908-94.942V85.337
	h17.067v93.867c0.119,30.976,11.486,60.868,32,84.122l3.516,4.531c12.314,14.012,30.575,22.272,49.758,22.272
	c0.017,0,0.034,0,0.051,0c19.072-0.077,37.239-8.346,49.826-22.69l3.49-4.002c20.557-23.313,31.923-53.231,32.026-84.267V119.47
	h17.067v59.733c-0.119,35.2-12.988,69.111-36.267,95.497l-3.473,3.985c-15.821,18.031-38.639,28.425-62.626,28.518
	C256.01,307.204,255.985,307.204,255.968,307.204z"/>
    <path d="M85.335,512.004H68.268v-93.867c0-38.315,28.638-71.04,66.628-76.126l62.421-7.356c4.284-0.521,7.518-4.181,7.484-8.533
	v-35.985h17.067v35.925c0.094,12.971-9.591,23.979-22.528,25.54l-62.319,7.339c-29.414,3.934-51.695,29.389-51.686,59.196V512.004z"
    />
    <path d="M443.735,512.004h-17.067v-93.867c-0.034-29.756-22.315-55.185-51.823-59.127l-62.157-7.322
	c-12.971-1.57-22.647-12.578-22.554-25.609v-44.476h17.067v44.544c-0.034,4.412,3.191,8.073,7.509,8.593l62.268,7.339
	c38.067,5.086,66.705,37.769,66.756,76.049V512.004z"/>
    <path d="M256.044,409.604c-0.034,0-0.068,0-0.094,0c-34.492,0-65.545-20.48-79.13-52.19l-5.461-12.706l15.684-6.733l5.461,12.715
	c10.897,25.421,35.797,41.847,63.454,41.847c0.026,0,0.051,0,0.077,0c27.657,0,52.565-16.427,63.471-41.847l5.461-12.715
	l15.684,6.733l-5.461,12.715C321.589,389.115,290.528,409.604,256.044,409.604z"/>
    <rect x="136.535" y="443.737" width="17.067" height="68.267"/>
    <rect x="76.802" y="460.804" width="68.267" height="17.067"/>
    <rect x="358.402" y="443.737" width="17.067" height="68.267"/>
    <rect x="366.935" y="460.804" width="68.267" height="17.067"/>
    <g>
</g>
    <g>
</g>
    <g>
</g>
    <g>
</g>
    <g>
</g>
    <g>
</g>
    <g>
</g>
    <g>
</g>
    <g>
</g>
    <g>
</g>
    <g>
</g>
    <g>
</g>
    <g>
</g>
    <g>
</g>
    <g>
</g>
</svg>
