<?xml version="1.0" encoding="iso-8859-1"?>
<!-- Generator: Adobe Illustrator 19.0.0, SVG Export Plug-In . SVG Version: 6.00 Build 0)  -->
<svg version="1.1" id="Capa_1" xmlns="http://www.w3.org/2000/svg" x="0px"
     y="0px"
     viewBox="0 0 512 512" style="enable-background:new 0 0 512 512;" xml:space="preserve">
<path style="fill:#FEDAC6;" d="M358.4,110.933c-25.6-8.533-42.667-51.2-42.667-51.2C280.235,101.12,199.765,101.547,153.6,97.877
	v141.056c0.009,16.956,5.316,33.485,15.189,47.275l3.157,4.437c15.249,21.376,39.876,34.091,66.133,34.133h38.997
	c29.175,0.026,56.124-15.616,70.571-40.96l0,0c7.151-12.425,10.863-26.539,10.752-40.875V110.933z"/>
    <path style="fill:#F5C4B0;" d="M187.733,204.203V99.243c-12.459,0-24.149-0.512-34.133-1.365v141.056
	c0.009,16.956,5.316,33.485,15.189,47.275l3.157,4.437c12.066,16.486,29.884,27.844,49.92,31.829l-3.413-5.888
	C198.434,282.513,187.836,243.721,187.733,204.203z"/>
    <path style="fill:#FEDAC6;" d="M435.2,503.467v-85.333c0-34.21-25.318-63.138-59.221-67.669l-49.664-6.571
	c-10.931-1.493-19.089-10.812-19.115-21.845v-23.381H204.8v23.381c-0.026,11.034-8.183,20.352-19.115,21.845l-49.664,6.571
	c-33.903,4.531-59.221,33.459-59.221,67.669v85.333H435.2z"/>
    <path style="fill:#F5C4B0;" d="M314.453,338.261c-4.608-4.13-7.245-10.027-7.253-16.213v-23.381H204.8v23.381
	c-0.009,6.187-2.645,12.083-7.253,16.213C234.24,357.094,277.76,357.094,314.453,338.261z"/>
    <g>
	<path style="fill:#A15D30;" d="M358.4,110.933V76.8c0-23.561-19.106-42.667-42.667-42.667l0,0
		c-16.393-16.384-38.613-25.583-61.781-25.6H230.4c-50.603,0-93.867,42.667-110.933,85.333c0,0,145.067,25.6,196.267-34.133
		C315.733,59.733,332.8,102.4,358.4,110.933"/>
        <path style="fill:#A15D30;" d="M328.704,214.187c-4.258,7.339-13.662,9.822-21.001,5.564c-2.014-1.169-3.729-2.782-5.026-4.71
		c-7.893-11.682-21.052-18.714-35.157-18.773h-23.04c-14.106,0.06-27.264,7.091-35.157,18.773
		c-4.736,7.04-14.276,8.909-21.316,4.173c-1.929-1.297-3.541-3.021-4.71-5.026L153.6,159.403v79.531
		c0.009,16.956,5.316,33.485,15.189,47.275l3.157,4.437c15.249,21.376,39.876,34.091,66.133,34.133h38.997
		c44.962-0.043,81.374-36.531,81.323-81.493c0-0.111,0-0.23,0-0.341v-83.541L328.704,214.187z"/>
</g>
    <path style="fill:#FEDAC6;"
          d="M358.4,110.933h-8.533v51.2h8.533c14.14,0,25.6-11.46,25.6-25.6S372.54,110.933,358.4,110.933z"/>
    <path style="fill:#F5C4B0;" d="M128,136.533c0,14.14,11.46,25.6,25.6,25.6h8.533v-51.2H153.6
	C139.46,110.933,128,122.394,128,136.533z"/>
    <path style="fill:#2E6AA3;" d="M375.979,350.464l-49.664-6.571c-2.807-0.341-5.53-1.212-8.021-2.56L256,426.667l-62.293-85.333
	c-2.466,1.442-5.197,2.398-8.021,2.816l-49.664,6.571c-33.809,4.523-59.093,33.306-59.221,67.413V512h358.4v-93.867
	C435.2,383.923,409.882,354.995,375.979,350.464z"/>
    <polygon style="fill:#EBEBEB;" points="221.867,384 256,426.667 290.133,384 "/>
    <g>
	<rect x="59.733" y="477.867" style="fill:#2E6AA3;" width="85.333" height="34.133"/>
        <rect x="366.933" y="477.867" style="fill:#2E6AA3;" width="85.333" height="34.133"/>
</g>
    <g>
	<path style="fill:#8F4F24;" d="M201.899,13.056c-37.888,12.544-68.693,46.677-82.432,80.811c22.579,3.584,45.406,5.41,68.267,5.461
		V76.8C187.58,54.758,192.418,32.964,201.899,13.056z"/>
        <path style="fill:#8F4F24;" d="M188.245,219.307c-1.988-1.34-3.678-3.081-4.949-5.12L153.6,159.403v79.531
		c0.009,16.956,5.316,33.485,15.189,47.275l3.157,4.437c12.066,16.486,29.884,27.844,49.92,31.829l-3.413-5.888
		C201.028,286.916,190.686,253.628,188.245,219.307z"/>
</g>
    <g>
	<rect x="213.333" y="375.467" style="fill:#215280;" width="17.067" height="136.533"/>
        <rect x="170.667" y="349.867" style="fill:#215280;" width="17.067" height="162.133"/>
        <rect x="128" y="349.867" style="fill:#215280;" width="17.067" height="162.133"/>
        <rect x="85.333" y="375.467" style="fill:#215280;" width="17.067" height="136.533"/>
        <rect x="85.333" y="384" style="fill:#215280;" width="136.533" height="17.067"/>
        <rect x="76.8" y="426.667" style="fill:#215280;" width="179.2" height="17.067"/>
        <rect x="93.867" y="469.333" style="fill:#215280;" width="170.667" height="17.067"/>
        <rect x="281.6" y="375.467" style="fill:#215280;" width="17.067" height="136.533"/>
        <rect x="324.267" y="349.867" style="fill:#215280;" width="17.067" height="162.133"/>
        <rect x="366.933" y="349.867" style="fill:#215280;" width="17.067" height="162.133"/>
        <rect x="409.6" y="375.467" style="fill:#215280;" width="17.067" height="136.533"/>
        <rect x="290.133" y="384" style="fill:#215280;" width="136.533" height="17.067"/>
        <rect x="256" y="426.667" style="fill:#215280;" width="179.2" height="17.067"/>
        <rect x="247.467" y="469.333" style="fill:#215280;" width="170.667" height="17.067"/>
</g>
    <circle cx="204.8" cy="136.533" r="17.067"/>
    <circle cx="307.2" cy="136.533" r="17.067"/>
    <path d="M256,204.8h-8.533c-2.449,0-4.779-1.05-6.4-2.884c-1.621-1.835-2.372-4.275-2.074-6.707l8.533-68.267l16.93,2.116
	L256,196.804V204.8z"/>
    <path d="M358.4,170.667h-8.533V153.6h8.533c9.412,0,17.067-7.654,17.067-17.067s-7.654-17.067-17.067-17.067h-8.533V102.4h8.533
	c18.825,0,34.133,15.309,34.133,34.133S377.225,170.667,358.4,170.667z"/>
    <path d="M162.133,170.667H153.6c-18.825,0-34.133-15.309-34.133-34.133S134.775,102.4,153.6,102.4h8.533v17.067H153.6
	c-9.412,0-17.067,7.654-17.067,17.067c0,9.412,7.654,17.067,17.067,17.067h8.533V170.667z"/>
    <path d="M277.146,333.312c-0.026,0-0.051,0-0.077,0H238.08c-28.962-0.051-56.269-14.14-73.079-37.709l-3.166-4.446
	c-10.957-15.309-16.768-33.374-16.768-52.224V93.867h17.067v145.067c0,15.266,4.702,29.892,13.594,42.308l3.174,4.446
	c13.619,19.089,35.746,30.515,59.196,30.549h38.98c0.017,0,0.043,0,0.06,0c26.044,0,50.219-14.046,63.104-36.651
	c6.409-11.127,9.737-23.765,9.634-36.582V102.4h17.067v140.544c0.119,15.778-3.994,31.403-11.887,45.133
	C339.14,315.964,309.291,333.312,277.146,333.312z"/>
    <path d="M358.4,119.467c-0.905,0-1.818-0.145-2.697-0.435c-20.164-6.724-35.063-30.293-42.53-44.689
	c-59.29,51.174-189.38,28.954-195.183,27.93c-2.526-0.444-4.727-2.005-5.973-4.258c-1.246-2.244-1.425-4.932-0.469-7.322
	C129.57,45.628,176.188,0,230.4,0h23.552c24.474,0.009,47.539,9.122,65.357,25.728c26.564,1.835,47.625,24.047,47.625,51.072v34.133
	c0,2.739-1.314,5.316-3.541,6.921C361.916,118.921,360.166,119.467,358.4,119.467z M315.733,51.2c0.461,0,0.922,0.034,1.391,0.111
	c2.944,0.486,5.419,2.475,6.528,5.239c3.413,8.482,13.466,28.348,26.214,39.458V76.8c0-18.825-15.309-34.133-34.133-34.133
	c-2.261,0-4.437-0.896-6.033-2.492c-14.899-14.891-34.697-23.1-55.757-23.108H230.4c-42.718,0-80.282,33.766-98.5,69.982
	c33.988,4.369,137.762,13.321,177.357-32.87C310.895,52.267,313.267,51.2,315.733,51.2z"/>
    <path d="M315.153,230.409c-7.808,0-15.172-3.959-19.601-10.667c-6.263-9.276-16.777-14.891-28.075-14.933H244.48
	c-11.392-0.273-22.042,5.572-28.425,15.019c-4.361,6.596-11.759,10.573-19.755,10.573c-0.017,0-0.034,0-0.06,0
	c-8.465-0.179-16.188-4.762-20.343-11.947l-29.713-52.087l14.822-8.457l29.696,52.053c1.161,2.014,3.371,3.328,5.743,3.379h0.009
	c2.082,0,4.156-1.118,5.402-2.995c9.6-14.199,25.446-22.613,42.47-22.613c0.06,0,0.119,0,0.179,0h23.006
	c16.973,0.077,32.751,8.499,42.231,22.537c1.323,2.005,3.2,3.021,5.777,3.072c2.654,0,4.907-1.306,6.127-3.413l29.321-51.985
	l14.865,8.38l-29.355,52.053c-4.292,7.441-12.22,12.023-20.736,12.023C315.716,230.4,315.349,230.409,315.153,230.409z"/>
    <path d="M256,243.063c-9.591,0-19.183-1.527-28.305-4.574l5.41-16.188c14.763,4.932,31.027,4.932,45.798,0l5.402,16.188
	C275.174,241.545,265.591,243.063,256,243.063z"/>
    <path d="M85.333,477.867H68.267v-59.733c0-38.315,28.638-71.04,66.628-76.126l49.673-6.579c6.639-0.905,11.691-6.665,11.708-13.397
	l17.067,0.034c-0.034,15.206-11.426,28.228-26.496,30.285l-49.698,6.579c-29.542,3.942-51.814,29.397-51.814,59.204V477.867z"/>
    <path d="M443.733,477.867h-17.067v-59.733c0-29.807-22.272-55.262-51.823-59.204l-49.638-6.579
	c-15.113-2.057-26.496-15.078-26.53-30.285l17.067-0.034c0.017,6.733,5.06,12.493,11.733,13.397l49.621,6.579
	c37.999,5.077,66.637,37.811,66.637,76.126V477.867z"/>
    <rect x="136.533" y="443.733" width="17.067" height="68.267"/>
    <rect x="358.4" y="443.733" width="17.067" height="68.267"/>
    <path d="M256,435.2c-2.782,0-5.393-1.357-6.989-3.644l-59.733-85.333l13.986-9.779L256,411.785l52.745-75.341l13.986,9.779
	l-59.733,85.333C261.393,433.843,258.782,435.2,256,435.2z"/>
    <path d="M187.733,443.733c-1.126,0-2.261-0.222-3.337-0.674c-2.645-1.126-4.548-3.507-5.06-6.332l-17.067-93.867l16.794-3.046
	l14.746,81.092l40.397-26.931l9.463,14.199l-51.2,34.133C191.044,443.247,189.389,443.733,187.733,443.733z"/>
    <path d="M324.267,443.733c-1.655,0-3.311-0.486-4.736-1.434l-51.2-34.133l9.463-14.199l40.388,26.931l14.754-81.092l16.785,3.046
	l-17.067,93.867c-0.512,2.825-2.406,5.205-5.06,6.332C326.537,443.511,325.402,443.733,324.267,443.733z"/>
    <rect x="247.467" y="426.667" width="17.067" height="85.333"/>
    <rect x="221.867" y="375.467" width="68.267" height="17.067"/>
    <path d="M153.6,512h-17.067v-25.6H68.267V512H51.2v-34.133c0-4.719,3.823-8.533,8.533-8.533h85.333c4.71,0,8.533,3.814,8.533,8.533
	V512z"/>
    <path d="M460.8,512h-17.067v-25.6h-68.267V512H358.4v-34.133c0-4.719,3.814-8.533,8.533-8.533h85.333
	c4.719,0,8.533,3.814,8.533,8.533V512z"/>
    <path d="M226.133,469.333c-7.057,0-12.8-5.743-12.8-12.8s5.743-12.8,12.8-12.8s12.8,5.743,12.8,12.8S233.19,469.333,226.133,469.333
	z M226.133,452.267c-2.355,0-4.267,1.92-4.267,4.267s1.911,4.267,4.267,4.267s4.267-1.92,4.267-4.267
	S228.489,452.267,226.133,452.267z"/>
    <g>
</g>
    <g>
</g>
    <g>
</g>
    <g>
</g>
    <g>
</g>
    <g>
</g>
    <g>
</g>
    <g>
</g>
    <g>
</g>
    <g>
</g>
    <g>
</g>
    <g>
</g>
    <g>
</g>
    <g>
</g>
    <g>
</g>
</svg>
