<?xml version="1.0" encoding="iso-8859-1"?>
<!-- Generator: Adobe Illustrator 19.0.0, SVG Export Plug-In . SVG Version: 6.00 Build 0)  -->
<svg version="1.1" id="Capa_1" xmlns="http://www.w3.org/2000/svg" x="0px"
     y="0px"
     viewBox="0 0 512.005 512.005" style="enable-background:new 0 0 512.005 512.005;" xml:space="preserve">
<polygon style="fill:#FEDAC6;" points="307.201,298.679 204.804,298.679 204.804,307.212 204.804,341.344 204.804,512.005 
	307.201,512.005 307.201,341.344 "/>
    <g>
	<path style="fill:#DE4C3C;" d="M136.028,350.474c-33.902,4.531-59.219,33.458-59.219,67.667v93.863h127.996V341.344
		L136.028,350.474z"/>
        <path style="fill:#DE4C3C;"
              d="M435.197,418.142c0-34.209-25.318-63.136-59.219-67.667l-68.776-9.13v170.661h127.996V418.142z"/>
</g>
    <path style="fill:#EBEBEB;"
          d="M204.804,381.791v130.214h102.397V381.791C277.915,407.526,234.09,407.526,204.804,381.791z"/>
    <path style="fill:#FEDAC6;" d="M307.201,298.679H204.804v83.112c29.285,25.727,73.111,25.727,102.397,0V298.679z"/>
    <path style="fill:#DBDBDB;" d="M238.936,399.113c-12.62-2.748-24.353-8.618-34.132-17.066v129.958h34.132V399.113z"/>
    <path style="fill:#F5C4B0;"
          d="M307.201,332.811v-34.132H204.804v34.132C243.203,349.877,268.802,349.877,307.201,332.811z"/>
    <path style="fill:#A15D30;" d="M258.562,17.088c-42.418-0.009-79.852,27.698-92.242,68.264h184.314
	C338.287,44.829,300.929,17.131,258.562,17.088z"/>
    <path style="fill:#FEDAC6;" d="M166.32,85.353c-4.147,13.499-5.231,27.758-3.157,41.727l1.28,9.472v85.33
	c0,51.838,42.025,93.864,93.864,93.864s93.864-42.025,93.864-93.864v-85.33l0.683-2.901c3.447-16.017,2.679-32.656-2.219-48.297
	C350.634,85.353,166.32,85.353,166.32,85.353z"/>
    <g>
	<path style="fill:#A15D30;" d="M196.271,85.353v8.533h119.463l0,0h32.596c-15.505-50.9-69.331-79.588-120.231-64.083
		c-30.702,9.352-54.731,33.381-64.083,64.083h32.255V85.353z"/>
        <path style="fill:#A15D30;" d="M196.271,93.886h-32.255c-4.139,13.499-5.248,27.749-3.243,41.727l1.365,9.472
		C162.139,145.084,196.271,128.018,196.271,93.886z"/>
        <path style="fill:#A15D30;" d="M348.33,93.886h-32.596c0,34.132,34.132,51.198,34.132,51.198l0.597-2.901
		C353.885,126.166,353.151,109.544,348.33,93.886z"/>
</g>
    <path style="fill:#F5C4B0;" d="M196.271,218.809V93.886c0,34.132-34.132,51.198-34.132,51.198v85.33
	c-0.009,41.59,27.357,78.231,67.24,90.024l-21.247-46.846C200.307,256.389,196.263,237.71,196.271,218.809z"/>
    <path style="fill:#FEDAC6;" d="M358.399,145.084h-8.533v51.198h8.533c14.139,0,25.599-11.46,25.599-25.599
	C383.998,156.544,372.538,145.084,358.399,145.084z"/>
    <path style="fill:#F5C4B0;" d="M128.007,170.683c0,14.139,11.46,25.599,25.599,25.599h8.533v-51.198h-8.533
	C139.467,145.084,128.007,156.544,128.007,170.683z"/>
    <g>
	<rect x="247.461" y="25.604" style="fill:#91542B;" width="17.066" height="68.264"/>

        <rect x="204.795" y="41.317" transform="matrix(-0.9487 0.3162 -0.3162 -0.9487 437.3078 65.6485)"
              style="fill:#91542B;" width="17.066" height="53.972"/>

        <rect x="274.303" y="59.761" transform="matrix(-0.4472 0.8944 -0.8944 -0.4472 499.4768 -172.1066)"
              style="fill:#91542B;" width="57.238" height="17.066"/>
</g>
    <path style="fill:#A15D30;" d="M321.024,219.833c-2.108,4.215-7.236,5.922-11.451,3.806c-0.887-0.444-1.69-1.041-2.372-1.758
	c-11.076-10.973-26.051-17.109-41.641-17.066h-18.687c-15.999,0.017-31.342,6.366-42.665,17.663
	c-3.319,3.345-8.721,3.371-12.066,0.06c-0.555-0.546-1.033-1.169-1.416-1.852l-28.586-51.625v61.353
	c0,51.838,42.025,93.864,93.864,93.864s93.864-42.025,93.864-93.864V162.15L321.024,219.833z"/>
    <g>
	<path style="fill:#8F4F24;" d="M196.271,224.697c-2.33-0.503-4.335-1.954-5.546-4.011l-28.586-51.625v61.353
		c0.034,36.095,20.769,68.973,53.332,84.563c-12.561-22.911-19.165-48.621-19.199-74.749V224.697z"/>
        <path style="fill:#8F4F24;" d="M315.734,8.555c-12.185,0.009-23.432,6.519-29.524,17.066l52.137,42.665
		c14.139-12.467,15.487-34.038,3.021-48.178C334.882,12.753,325.547,8.547,315.734,8.555z"/>
</g>
    <g>
	<rect x="153.597" y="349.86" style="fill:#AD3228;" width="51.198" height="162.128"/>
        <polygon style="fill:#AD3228;" points="110.941,512.005 76.808,512.005 76.808,392.542 110.941,358.41 	"/>
        <rect x="110.932" y="401.058" style="fill:#AD3228;" width="42.665" height="42.665"/>
</g>
    <g>
	<rect x="153.597" y="401.058" style="fill:#7D241D;" width="42.665" height="42.665"/>
        <rect x="76.8" y="401.058" style="fill:#7D241D;" width="34.132" height="42.665"/>
        <rect x="154.109" y="486.389" style="fill:#7D241D;" width="42.665" height="25.599"/>
</g>
    <g>
	<rect x="307.192" y="349.86" style="fill:#AD3228;" width="51.198" height="162.128"/>
        <polygon style="fill:#AD3228;" points="401.064,512.005 435.197,512.005 435.197,392.542 401.064,358.41 	"/>
        <rect x="358.391" y="401.058" style="fill:#AD3228;" width="42.665" height="42.665"/>
</g>
    <g>
	<rect x="315.725" y="401.058" style="fill:#7D241D;" width="42.665" height="42.665"/>
        <rect x="401.056" y="401.058" style="fill:#7D241D;" width="34.132" height="42.665"/>
        <rect x="315.222" y="486.389" style="fill:#7D241D;" width="42.665" height="25.599"/>
        <rect x="76.8" y="486.389" style="fill:#7D241D;" width="34.132" height="25.599"/>
</g>
    <rect x="110.932" y="486.389" style="fill:#AD3228;" width="42.665" height="25.599"/>
    <rect x="401.056" y="486.389" style="fill:#7D241D;" width="34.132" height="25.599"/>
    <rect x="358.391" y="486.389" style="fill:#AD3228;" width="42.665" height="25.599"/>
    <path d="M165.953,152.721l-7.637-15.266l3.814,7.637l-3.84-7.62c0.299-0.154,29.439-15.283,29.439-43.578h17.066
	C204.804,132.848,167.54,151.927,165.953,152.721z"/>
    <path d="M346.052,152.721c-1.587-0.794-38.851-19.873-38.851-58.835h17.066c0,28.296,29.14,43.425,29.439,43.578L346.052,152.721z"
    />
    <rect x="170.663" y="85.336" width="170.661" height="17.066"/>
    <path d="M344.004,74.678l-11.298-12.783c2.082-1.843,3.84-4.002,5.231-6.408c7.057-12.219,2.859-27.912-9.369-34.968
	c-12.228-7.048-27.912-2.859-34.968,9.369l-14.779-8.533c5.7-9.873,14.899-16.93,25.906-19.882
	c11.016-2.952,22.519-1.434,32.374,4.267c20.377,11.767,27.374,37.912,15.616,58.289C350.404,68.039,347.468,71.623,344.004,74.678z
	"/>
    <circle cx="204.796" cy="162.133" r="17.066"/>
    <circle cx="307.192" cy="162.133" r="17.066"/>
    <path d="M264.536,213.348h-25.599c-2.739,0-5.316-1.314-6.92-3.55c-1.604-2.227-2.039-5.086-1.178-7.688l17.066-51.198l16.187,5.401
	l-13.329,39.969h13.764v17.066H264.536z"/>
    <path d="M240.396,256.014h-1.451v-17.066h1.451c13.286-0.009,25.778-5.18,35.182-14.574l12.066,12.074
	C275.014,249.059,258.238,256.005,240.396,256.014z"/>
    <path d="M358.399,204.815h-8.533v-17.066h8.533c9.412,0,17.066-7.654,17.066-17.066s-7.654-17.066-17.066-17.066h-8.533v-17.066
	h8.533c18.824,0,34.132,15.308,34.132,34.132S377.223,204.815,358.399,204.815z"/>
    <path d="M162.139,204.815h-8.533c-18.824,0-34.132-15.308-34.132-34.132s15.308-34.132,34.132-34.132h8.533v17.066h-8.533
	c-9.412,0-17.066,7.654-17.066,17.066s7.654,17.066,17.066,17.066h8.533V204.815z"/>
    <path d="M198.166,233.555c-1.519,0-3.046-0.205-4.557-0.623c-4.395-1.212-8.055-4.07-10.308-8.03l-28.577-49.978l14.813-8.465
	l28.586,50.004c13.064-12.996,30.352-20.155,48.732-20.172h18.858c17.911,0,34.764,6.937,47.478,19.541l29.038-57.513l15.231,7.688
	l-29.012,57.513c-0.811,1.613-1.877,3.098-3.166,4.386c-3.208,3.217-7.492,5-12.049,5.009c-0.009,0-0.017,0-0.026,0
	c-4.548,0-8.832-1.766-12.049-4.975c-9.472-9.386-22.075-14.574-35.446-14.574h-18.85c-13.832,0.009-26.845,5.401-36.641,15.172
	c-1.058,1.067-2.295,2.014-3.644,2.79C203.968,232.795,201.084,233.555,198.166,233.555z"/>
    <path d="M256.003,332.811c-56.463,0-102.397-45.933-102.397-102.397v-84.716l-1.28-8.866c0,0,0-0.009,0-0.017
	c-0.683-4.796-1.033-9.676-1.041-14.506C151.14,64.43,198.106,17.233,255.985,17.088c7.287-0.034,14.975,0.759,22.305,2.338
	c56.54,12.134,92.652,68.008,80.526,124.548l-0.41,1.98v84.452C358.399,286.878,312.466,332.811,256.003,332.811z M169.221,134.418
	l1.365,9.446c0.06,0.401,0.085,0.811,0.085,1.22v85.33c0,47.051,38.279,85.33,85.33,85.33s85.331-38.271,85.331-85.33v-85.33
	c0-0.58,0.06-1.16,0.179-1.732l0.597-2.901c10.171-47.401-20.07-94.179-67.403-104.351c-6.127-1.314-12.586-1.997-18.67-1.954
	c-48.468,0.119-87.797,39.645-87.677,88.104C168.36,126.311,168.65,130.399,169.221,134.418z"/>
    <path d="M85.342,512.005H68.275v-93.863c0-38.313,28.637-71.038,66.626-76.123l61.37-8.149v-26.657h17.066v34.132
	c0,4.275-3.166,7.893-7.407,8.456l-68.776,9.13c-29.533,3.951-51.813,29.396-51.813,59.202L85.342,512.005L85.342,512.005z"/>
    <path d="M443.73,512.005h-17.066v-93.863c0-29.806-22.271-55.26-51.821-59.202l-68.768-9.13c-4.241-0.563-7.407-4.181-7.407-8.456
	V307.22h17.066v26.657l61.361,8.149c37.989,5.077,66.635,37.81,66.635,76.123V512.005z"/>
    <path d="M256.037,409.608c-0.026,0-0.051,0-0.077,0c-20.897,0-41.07-7.603-56.787-21.409l11.255-12.817
	c12.603,11.067,28.773,17.16,45.532,17.16c0.017,0,0.043,0,0.06,0c16.776,0,32.938-6.093,45.541-17.16l11.264,12.817
	C297.115,402.006,276.943,409.608,256.037,409.608z"/>
    <rect x="196.263" y="341.327" width="17.066" height="170.661"/>
    <rect x="298.659" y="341.327" width="17.066" height="170.661"/>
    <path d="M204.804,443.741h-51.198c-2.662,0-5.162-1.246-6.784-3.353c-1.613-2.116-2.15-4.864-1.451-7.424l25.599-93.864l16.469,4.48
	l-22.664,83.086h40.029V443.741z"/>
    <path d="M358.399,443.741h-51.198v-17.066h40.02l-22.655-83.086l16.469-4.48l25.599,93.864c0.7,2.56,0.171,5.308-1.451,7.424
	C363.57,442.495,361.061,443.741,358.399,443.741z"/>
    <path d="M174.939,486.406c-7.057,0-12.8-5.743-12.8-12.8c0-7.057,5.743-12.8,12.8-12.8c7.057,0,12.8,5.743,12.8,12.8
	C187.738,480.663,181.995,486.406,174.939,486.406z M174.939,469.34c-2.355,0-4.267,1.92-4.267,4.267
	c0,2.347,1.911,4.267,4.267,4.267c2.355,0,4.267-1.92,4.267-4.267C179.205,471.26,177.294,469.34,174.939,469.34z"/>
    <g>
</g>
    <g>
</g>
    <g>
</g>
    <g>
</g>
    <g>
</g>
    <g>
</g>
    <g>
</g>
    <g>
</g>
    <g>
</g>
    <g>
</g>
    <g>
</g>
    <g>
</g>
    <g>
</g>
    <g>
</g>
    <g>
</g>
</svg>
