<?xml version="1.0" encoding="iso-8859-1"?>
<!-- Generator: Adobe Illustrator 19.0.0, SVG Export Plug-In . SVG Version: 6.00 Build 0)  -->
<svg version="1.1" id="Capa_1" xmlns="http://www.w3.org/2000/svg" x="0px"
     y="0px"
     viewBox="0 0 512 512" style="enable-background:new 0 0 512 512;" xml:space="preserve">
<path style="fill:#2E6AA3;"
      d="M136.021,350.464c-33.903,4.531-59.221,33.459-59.221,67.669V512h128V341.333L136.021,350.464z"/>
    <path style="fill:#245E8F;" d="M76.8,417.451v93.867h34.133V358.4C89.83,370.586,76.826,393.088,76.8,417.451z"/>
    <path style="fill:#2E6AA3;" d="M435.2,418.133c0-34.21-25.318-63.138-59.221-67.669l-68.779-9.131V512h128V418.133z"/>
    <path style="fill:#EBEBEB;" d="M204.8,381.781V512h102.4V381.781C277.914,407.509,234.086,407.509,204.8,381.781z"/>
    <path style="fill:#FEDAC6;" d="M307.2,298.667H204.8v83.115c29.286,25.728,73.114,25.728,102.4,0V298.667z"/>
    <path style="fill:#DBDBDB;" d="M238.933,399.104c-12.621-2.748-24.354-8.619-34.133-17.067V512h34.133V399.104z"/>
    <path style="fill:#F5C4B0;" d="M307.2,345.941v-47.275H204.8v47.275C235.708,366.933,276.292,366.933,307.2,345.941z"/>
    <rect x="110.933" y="469.333" style="fill:#FEDAC6;" width="34.133" height="42.667"/>
    <rect x="76.8" y="469.333" style="fill:#F5C4B0;" width="34.133" height="42.667"/>
    <g>
	<rect x="366.933" y="469.333" style="fill:#FEDAC6;" width="68.267" height="42.667"/>
        <path style="fill:#FEDAC6;" d="M358.4,145.067h-17.067v51.2H358.4c14.14,0,25.6-11.46,25.6-25.6
		C384,156.527,372.54,145.067,358.4,145.067z"/>
</g>
    <path style="fill:#F5C4B0;"
          d="M153.6,145.067c-14.14,0-25.6,11.46-25.6,25.6c0,14.14,11.46,25.6,25.6,25.6h17.067v-51.2H153.6z"/>
    <path style="fill:#FEDAC6;" d="M332.8,93.867c-14.123,14.14-37.026,14.157-51.166,0.034c-0.017-0.017-0.026-0.026-0.034-0.034l0,0
	c-14.123,14.14-37.026,14.157-51.166,0.034c-0.017-0.017-0.026-0.026-0.034-0.034l0,0c-14.123,14.14-37.026,14.157-51.166,0.034
	c-0.017-0.017-0.026-0.026-0.034-0.034l-17.067,51.2l7.339,102.4c0.785,11.136,5.188,21.717,12.544,30.123l31.317,35.925
	C224.094,325.82,239.659,332.86,256,332.8l0,0c16.341,0.06,31.906-6.98,42.667-19.285l31.488-36.011
	c7.279-8.405,11.622-18.944,12.373-30.037l7.339-102.4L332.8,93.867z"/>
    <path style="fill:#F5C4B0;" d="M213.333,228.267V103.339c-12.254,3.063-25.207-0.538-34.133-9.472l-17.067,51.2l7.339,102.4
	c0.785,11.136,5.188,21.717,12.544,30.123l31.317,35.925c10.291,11.776,24.994,18.756,40.619,19.285l-27.648-52.139
	C217.771,264.516,213.316,246.528,213.333,228.267z"/>
    <path style="fill:#A15D30;" d="M392.533,128c-0.068-10.795-6.895-20.378-17.067-23.979c10.325-9.66,10.863-25.865,1.203-36.181
	c-4.745-5.069-11.332-7.987-18.27-8.107h-1.621c1.041-2.722,1.587-5.615,1.621-8.533c-0.017-14.14-11.486-25.591-25.626-25.574
	c-3.268,0-6.502,0.631-9.532,1.852c-2.995-11.127-13.056-18.876-24.576-18.944c-8.593,0.017-16.606,4.343-21.333,11.52
	c-7.817-11.785-23.706-15.002-35.482-7.185c-2.85,1.894-5.291,4.335-7.185,7.185c-4.727-7.177-12.74-11.503-21.333-11.52
	c-11.52,0.068-21.581,7.817-24.576,18.944c-13.116-5.282-28.032,1.075-33.306,14.191c-1.22,3.029-1.852,6.263-1.852,9.532
	c0.034,2.918,0.58,5.811,1.621,8.533H153.6c-14.14,0.239-25.404,11.887-25.173,26.018c0.119,6.938,3.038,13.525,8.107,18.27
	c-13.244,4.949-19.968,19.703-15.01,32.947c2.594,6.938,8.073,12.416,15.01,15.01c4.634-4.343,10.718-6.801,17.067-6.912h8.533
	l17.067-51.2c14.123,14.14,37.026,14.157,51.166,0.034c0.017-0.017,0.026-0.026,0.034-0.034
	c14.123,14.14,37.026,14.157,51.166,0.034c0.017-0.017,0.026-0.026,0.034-0.034c14.123,14.14,37.026,14.157,51.166,0.034
	c0.017-0.017,0.026-0.026,0.034-0.034l17.067,51.2h8.533c6.349,0.111,12.433,2.569,17.067,6.912
	C385.638,148.378,392.465,138.795,392.533,128z"/>
    <path style="fill:#8F4F24;" d="M213.333,8.533c-11.52,0.068-21.581,7.817-24.576,18.944c-13.116-5.282-28.032,1.075-33.306,14.191
	c-1.22,3.029-1.852,6.263-1.852,9.532c0.034,2.918,0.58,5.811,1.621,8.533H153.6c-14.14,0.239-25.404,11.887-25.173,26.018
	c0.119,6.938,3.038,13.525,8.107,18.27c-13.244,4.949-19.968,19.703-15.01,32.947c2.594,6.938,8.073,12.416,15.01,15.01
	c4.634-4.343,10.718-6.801,17.067-6.912h8.533l17.067-51.2c8.755,8.747,21.385,12.39,33.451,9.643
	c-0.503-29.73,6.579-59.093,20.565-85.333C228.386,12.117,221.082,8.576,213.333,8.533z"/>
    <path d="M264.533,221.867h-25.6c-2.475,0-4.821-1.075-6.443-2.944c-1.621-1.869-2.347-4.352-1.997-6.801l8.533-59.733l16.887,2.415
	l-7.142,49.997h15.761V221.867z"/>
    <path d="M240.384,256h-1.451v-17.067h1.451c13.286-0.009,25.779-5.18,35.183-14.575l12.066,12.075
	C275.012,249.045,258.236,255.991,240.384,256z"/>
    <path d="M358.4,204.8h-8.533v-17.067h8.533c9.412,0,17.067-7.654,17.067-17.067c0-9.412-7.654-17.067-17.067-17.067h-8.533v-17.067
	h8.533c18.825,0,34.133,15.309,34.133,34.133S377.225,204.8,358.4,204.8z"/>
    <path d="M162.133,204.8H153.6c-18.825,0-34.133-15.309-34.133-34.133s15.309-34.133,34.133-34.133h8.533V153.6H153.6
	c-9.412,0-17.067,7.654-17.067,17.067c0,9.412,7.654,17.067,17.067,17.067h8.533V204.8z"/>
    <path d="M133.623,160.171c-9.523-3.456-16.973-10.906-20.437-20.437c-5.12-14.097-0.341-29.414,10.761-38.306
	c-2.534-4.753-3.959-10.086-4.053-15.531c-0.154-9.114,3.26-17.749,9.6-24.294c4.352-4.497,9.719-7.646,15.607-9.233
	c-0.026-0.358-0.034-0.717-0.034-1.075c0-4.471,0.836-8.747,2.466-12.8c3.405-8.465,9.899-15.095,18.287-18.671
	c5.734-2.449,11.904-3.251,17.92-2.441C189.662,6.921,200.866,0.068,213.282,0c7.945,0.017,15.445,2.731,21.41,7.535
	c0.785-0.623,1.596-1.22,2.441-1.775c7.603-5.043,16.708-6.827,25.643-5.009c5.402,1.092,10.359,3.422,14.549,6.775
	c5.956-4.804,13.44-7.509,21.333-7.526c12.476,0.068,23.697,6.921,29.619,17.391c1.485-0.196,2.987-0.299,4.497-0.299
	c0.009,0,0.017,0,0.026,0c18.807,0,34.116,15.292,34.142,34.099c-0.009,0.41-0.017,0.811-0.034,1.22
	c6.093,1.655,11.657,4.975,15.991,9.6c6.229,6.656,9.498,15.343,9.199,24.457c-0.179,5.325-1.562,10.428-4.011,14.985
	c4.83,3.866,8.567,9.02,10.735,14.985c6.417,17.698-2.748,37.316-20.446,43.733l-5.82-16.043
	c8.841-3.209,13.423-13.022,10.214-21.871c-1.724-4.762-5.461-8.491-10.223-10.214c-2.782-1.015-4.847-3.405-5.444-6.306
	c-0.597-2.91,0.358-5.914,2.526-7.945c3.337-3.115,5.248-7.339,5.402-11.895c0.154-4.557-1.485-8.9-4.599-12.228
	c-3.14-3.354-7.586-5.325-12.177-5.402h-1.476c-2.807,0-5.436-1.382-7.023-3.695c-1.604-2.313-1.954-5.265-0.939-7.885
	c0.683-1.783,1.033-3.669,1.058-5.581c-0.009-9.301-7.663-16.947-17.067-16.947c-0.009,0-0.009,0-0.017,0
	c-2.185,0-4.326,0.418-6.357,1.237c-2.27,0.913-4.804,0.811-6.989-0.282s-3.797-3.063-4.437-5.419
	c-1.98-7.39-8.721-12.587-16.384-12.629c-5.683,0.009-10.999,2.884-14.157,7.68c-1.579,2.389-4.241,3.84-7.108,3.84
	c-0.009,0-0.009,0-0.017,0c-2.859,0-5.53-1.434-7.108-3.814c-2.526-3.797-6.374-6.391-10.846-7.296
	c-4.454-0.887-9.02-0.009-12.817,2.5c-1.911,1.271-3.524,2.884-4.796,4.796c-1.579,2.381-4.25,3.814-7.108,3.814
	c0,0-0.009,0-0.017,0c-2.867,0-5.538-1.451-7.108-3.84c-3.157-4.796-8.474-7.663-14.225-7.68
	c-7.595,0.043-14.327,5.239-16.316,12.629c-0.64,2.355-2.253,4.326-4.437,5.419c-2.185,1.084-4.727,1.186-6.997,0.282
	c-4.233-1.698-8.866-1.655-13.065,0.128c-4.19,1.783-7.441,5.103-9.139,9.335c-0.811,2.022-1.229,4.164-1.229,6.349
	c0.017,1.818,0.375,3.695,1.058,5.478c1.007,2.62,0.649,5.572-0.939,7.885c-1.587,2.313-4.224,3.695-7.031,3.695H153.6
	c-4.42,0.077-8.67,1.92-11.844,5.197c-3.166,3.277-4.873,7.595-4.796,12.151c0.077,4.599,2.048,9.037,5.402,12.177
	c2.167,2.022,3.123,5.035,2.526,7.945c-0.597,2.91-2.662,5.299-5.444,6.306c-4.284,1.553-7.706,4.685-9.643,8.815
	c-1.929,4.13-2.133,8.764-0.58,13.047c1.732,4.77,5.453,8.491,10.223,10.223L133.623,160.171z"/>
    <circle cx="204.8" cy="170.667" r="17.067"/>
    <circle cx="307.2" cy="170.667" r="17.067"/>
    <path d="M256.196,341.333c-0.154,0-0.316,0-0.461,0c-18.679,0-36.489-8.081-48.828-22.204l-31.326-35.934
	c-8.516-9.737-13.713-22.221-14.626-35.132l-7.339-102.391c-0.077-1.118,0.06-2.244,0.418-3.311l17.067-51.2
	c0.939-2.807,3.26-4.924,6.135-5.606c2.867-0.691,5.905,0.179,7.996,2.27c10.829,10.812,28.365,10.786,39.125,0
	c1.604-1.596,3.772-2.492,6.042-2.492l0,0c2.261,0,4.437,0.896,6.033,2.5c10.812,10.803,28.348,10.795,39.134,0
	c1.809-1.801,4.284-2.714,6.878-2.458c1.988,0.196,3.831,1.084,5.214,2.492c0.009,0,0.009,0,0.009,0l0,0
	c10.786,10.786,28.314,10.752,39.1-0.026c2.082-2.091,5.111-2.97,7.996-2.27c2.884,0.683,5.197,2.799,6.135,5.606l17.067,51.2
	c0.358,1.067,0.503,2.193,0.418,3.311l-7.339,102.4c-0.87,12.826-5.99,25.276-14.421,35.012l-31.514,36.053
	C292.753,333.252,274.944,341.333,256.196,341.333z M255.974,324.267c0.051,0,0.111,0,0.171,0c13.875,0,26.999-5.956,36.096-16.367
	l31.488-36.019c5.999-6.929,9.66-15.812,10.274-24.994l7.228-100.736l-12.826-38.485c-14.703,7.893-32.913,7.006-46.805-2.705
	c-15.317,10.701-35.874,10.692-51.2,0c-7.45,5.231-15.974,7.97-25.609,8.038c-7.526,0-14.763-1.843-21.205-5.325l-12.817,38.468
	l7.219,100.702c0.649,9.233,4.369,18.15,10.462,25.114l31.326,35.934c9.079,10.419,22.204,16.375,36.028,16.375
	C255.855,324.267,255.915,324.267,255.974,324.267z"/>
    <path d="M85.333,512H68.267v-93.867c0-38.315,28.638-71.04,66.628-76.126l61.372-8.149V307.2h17.067v34.133
	c0,4.275-3.166,7.893-7.407,8.457l-68.779,9.131c-29.542,3.951-51.814,29.406-51.814,59.213V512z"/>
    <path d="M443.733,512h-17.067v-93.867c0-29.807-22.272-55.262-51.823-59.204l-68.77-9.131c-4.241-0.572-7.407-4.19-7.407-8.465
	V307.2h17.067v26.658l61.363,8.149c37.999,5.077,66.637,37.811,66.637,76.126V512z"/>
    <path d="M256,409.6c-20.932,0-41.114-7.603-56.832-21.41l11.255-12.817c12.612,11.068,28.791,17.161,45.577,17.161
	s32.964-6.093,45.568-17.161l11.264,12.817C297.114,401.997,276.932,409.6,256,409.6z"/>
    <rect x="136.533" y="443.733" width="17.067" height="68.267"/>
    <rect x="76.8" y="460.8" width="68.267" height="17.067"/>
    <rect x="358.4" y="443.733" width="17.067" height="68.267"/>
    <rect x="366.933" y="460.8" width="68.267" height="17.067"/>
    <rect x="196.267" y="341.333" width="17.067" height="170.667"/>
    <rect x="298.667" y="341.333" width="17.067" height="170.667"/>
    <path d="M204.8,426.667h-51.2c-2.739,0-5.316-1.314-6.921-3.541c-1.604-2.227-2.039-5.094-1.178-7.689l25.6-76.8l16.188,5.402
	L165.436,409.6H204.8V426.667z"/>
    <path d="M358.4,426.667h-51.2V409.6h39.356l-21.854-65.57l16.179-5.402l25.6,76.8c0.879,2.603,0.435,5.47-1.169,7.689
	C363.716,425.353,361.139,426.667,358.4,426.667z"/>
    <path d="M174.933,469.333c-7.057,0-12.8-5.743-12.8-12.8s5.743-12.8,12.8-12.8c7.057,0,12.8,5.743,12.8,12.8
	S181.99,469.333,174.933,469.333z M174.933,452.267c-2.355,0-4.267,1.92-4.267,4.267s1.911,4.267,4.267,4.267
	c2.355,0,4.267-1.92,4.267-4.267S177.289,452.267,174.933,452.267z"/>
    <g>
</g>
    <g>
</g>
    <g>
</g>
    <g>
</g>
    <g>
</g>
    <g>
</g>
    <g>
</g>
    <g>
</g>
    <g>
</g>
    <g>
</g>
    <g>
</g>
    <g>
</g>
    <g>
</g>
    <g>
</g>
    <g>
</g>
</svg>
