<?xml version="1.0" encoding="iso-8859-1"?>
<!-- Generator: Adobe Illustrator 19.0.0, SVG Export Plug-In . SVG Version: 6.00 Build 0)  -->
<svg version="1.1" id="Capa_1" xmlns="http://www.w3.org/2000/svg" x="0px"
     y="0px"
     viewBox="0 0 512 512" style="enable-background:new 0 0 512 512;" xml:space="preserve">
<path style="fill:#74A32E;" d="M375.974,367.531l-53.931-7.168l0,0c-28.86,36.48-81.835,42.65-118.306,13.79
	c-5.111-4.045-9.737-8.67-13.79-13.79l0,0l-53.931,7.168c-33.903,4.531-59.221,33.459-59.221,67.669V512h358.4v-76.8
	C435.196,400.99,409.877,372.062,375.974,367.531z"/>
    <path style="fill:#FEDAC6;" d="M322.044,360.363L322.044,360.363c-8.55-1.118-14.925-8.439-14.848-17.067v-44.629h-102.4v44.8
	c0.077,8.627-6.298,15.949-14.848,17.067l0,0c28.911,36.437,81.886,42.547,118.332,13.636
	C313.382,370.116,318.007,365.483,322.044,360.363z"/>
    <path style="fill:#F5C4B0;"
          d="M307.196,336.384v-37.717h-102.4v37.717C243.196,354.389,268.796,354.389,307.196,336.384z"/>
    <g>
	<path style="fill:#FEDAC6;" d="M349.862,153.6h-8.533v51.2h8.533c14.14,0,25.6-11.46,25.6-25.6
		C375.462,165.06,364.002,153.6,349.862,153.6z"/>
        <path style="fill:#FEDAC6;"
              d="M162.129,153.6c-14.14,0-25.6,11.46-25.6,25.6c0,14.14,11.46,25.6,25.6,25.6h8.533v-51.2H162.129z"
        />
        <path style="fill:#FEDAC6;" d="M349.862,136.533V230.4c0.111,12.544-4.378,24.687-12.629,34.133l-36.864,41.728
		c-6.468,7.364-15.795,11.597-25.6,11.605h-37.376c-9.805-0.009-19.132-4.241-25.6-11.605l-37.035-41.728
		c-8.252-9.446-12.74-21.589-12.629-34.133V119.467c25.899-4.233,51.541-9.933,76.8-17.067c20.386-7.39,40.329-15.932,59.733-25.6
		c7.808,11.904,16.358,23.305,25.6,34.133L349.862,136.533z"/>
</g>
    <path style="fill:#688E26;" d="M76.796,435.2V512h34.133V376.149C89.826,388.335,76.821,410.837,76.796,435.2z"/>
    <path style="fill:#A15D30;" d="M324.262,42.667c0-16.213-12.459-34.133-68.267-34.133c-102.4,0-128,102.4-128,102.4
	c77.909,12.971,145.92-18.432,173.995-34.133c6.485,14.933,22.443,53.504,47.872,59.733l5.035-50.603
	C356.911,65.886,343.838,47.42,324.262,42.667z"/>
    <path style="fill:#F5C4B0;" d="M199.59,213.333l-3.328-102.4l-34.133,8.533v104.448c0.043,19.618,8.533,38.272,23.296,51.2
	c0,0,34.731,38.059,39.765,40.619l-18.773-53.504C200.811,246.571,198.481,229.931,199.59,213.333z"/>
    <path style="fill:#8F4F24;" d="M144.465,73.387c-7.117,11.742-12.655,24.363-16.469,37.547
	c73.216,12.203,139.861-17.749,170.667-34.133C221.862,93.867,179.196,85.333,144.465,73.387z"/>
    <path d="M349.862,204.8h-8.533v-17.067h8.533c9.412,0,17.067-7.654,17.067-17.067c0-9.412-7.654-17.067-17.067-17.067h-8.533
	v-17.067h8.533c18.825,0,34.133,15.309,34.133,34.133S368.687,204.8,349.862,204.8z"/>
    <path d="M170.662,213.333h-8.533c-18.825,0-34.133-15.309-34.133-34.133s15.309-34.133,34.133-34.133h8.533v17.067h-8.533
	c-9.412,0-17.067,7.654-17.067,17.067s7.654,17.067,17.067,17.067h8.533V213.333z"/>
    <path d="M264.529,213.675h-25.6c-2.449,0-4.779-1.05-6.4-2.884s-2.372-4.275-2.074-6.707l8.533-68.267l16.93,2.116l-7.33,58.675
	h15.94V213.675z"/>
    <path d="M274.786,324.608h-37.393c-12.271-0.017-23.927-5.308-32.009-14.507l-36.873-42.163
	c-9.634-11.042-14.865-25.182-14.737-39.825v-117.18h17.067v117.248c-0.094,10.539,3.644,20.642,10.522,28.527l36.855,42.138
	c4.838,5.513,11.836,8.687,19.191,8.695h37.359c7.33-0.009,14.336-3.183,19.191-8.713l36.873-41.745
	c6.852-7.842,10.59-17.946,10.487-28.407V128h17.067v100.608c0.137,14.566-5.103,28.706-14.746,39.748l-36.89,41.762
	C298.697,319.3,287.031,324.591,274.786,324.608z"/>
    <circle cx="204.796" cy="153.941" r="17.067"/>
    <circle cx="298.662" cy="153.941" r="17.067"/>
    <path d="M349.862,145.067c-0.674,0-1.357-0.077-2.031-0.247c-25.25-6.187-41.455-37.299-49.954-56.132
	c-31.505,16.247-97.314,43.008-171.281,30.66c-2.347-0.393-4.429-1.749-5.734-3.738c-1.306-1.988-1.715-4.437-1.143-6.75
	C119.991,107.776,148.177,0,255.996,0c56.61,0,73.335,18.458,76.279,36.258c20.233,7.799,33.323,28.493,31.113,50.526l-5.035,50.594
	c-0.239,2.458-1.545,4.693-3.567,6.118C353.336,144.529,351.612,145.067,349.862,145.067z M301.99,68.267
	c0.913,0,1.843,0.154,2.722,0.444c2.295,0.768,4.139,2.475,5.103,4.685l0.657,1.519c4.813,11.119,16.341,37.726,32.085,48.879
	l3.849-38.707c1.587-15.727-8.798-30.396-24.158-34.125c-3.831-0.93-6.519-4.361-6.519-8.294c0-21.154-32.486-25.6-59.733-25.6
	c-77.918,0-108.117,62.78-116.83,86.844c71.825,8.55,134.391-20.983,158.66-34.551C299.115,68.634,300.548,68.267,301.99,68.267z"/>
    <path d="M253.973,247.467c-0.009,0-0.017,0-0.026,0h-23.552V230.4h23.552c0.009,0,0.017,0,0.026,0
	c11.179,0,22.357-2.637,32.341-7.637l7.637,15.266C281.604,244.207,267.78,247.467,253.973,247.467z"/>
    <path d="M85.329,512H68.262v-76.8c0-38.315,28.638-71.04,66.628-76.126l53.931-7.168c4.284-0.563,7.475-4.233,7.441-8.533v-44.706
	h17.067v44.629c0.111,12.834-9.463,23.842-22.272,25.523l-53.914,7.168c-29.542,3.951-51.814,29.406-51.814,59.213V512z"/>
    <path d="M443.729,512h-17.067v-76.8c-0.077-29.705-22.349-55.1-51.823-59.042l-53.914-7.168
	c-12.791-1.664-22.366-12.672-22.255-25.6v-44.723h17.067v44.8c-0.043,4.386,3.149,8.047,7.424,8.61l53.939,7.168
	c37.897,5.069,66.543,37.709,66.637,75.938V512H443.729z"/>
    <rect x="136.529" y="443.733" width="17.067" height="68.267"/>
    <rect x="358.396" y="443.733" width="17.067" height="68.267"/>
    <path d="M256.09,400.819c-27.401,0-54.554-12.049-72.832-35.157l13.38-10.581c25.89,32.725,73.6,38.255,106.325,12.382
	c4.582-3.635,8.755-7.799,12.399-12.39l13.363,10.598c-4.446,5.623-9.557,10.726-15.172,15.172
	C296.546,394.291,276.245,400.819,256.09,400.819z"/>
    <g>
</g>
    <g>
</g>
    <g>
</g>
    <g>
</g>
    <g>
</g>
    <g>
</g>
    <g>
</g>
    <g>
</g>
    <g>
</g>
    <g>
</g>
    <g>
</g>
    <g>
</g>
    <g>
</g>
    <g>
</g>
    <g>
</g>
</svg>
