<?xml version="1.0" encoding="iso-8859-1"?>
<!-- Generator: Adobe Illustrator 19.0.0, SVG Export Plug-In . SVG Version: 6.00 Build 0)  -->
<svg version="1.1" id="Capa_1" xmlns="http://www.w3.org/2000/svg" x="0px"
     y="0px"
     viewBox="0 0 512 512" style="enable-background:new 0 0 512 512;" xml:space="preserve">
<path style="fill:#FEDAC6;" d="M256,401.067c31.044,0.017,59.11-18.483,71.339-47.019l3.84-8.533l-17.493-2.048
	c-8.619-1.041-15.078-8.388-15.019-17.067v-44.8h-85.333v44.544c0.06,8.678-6.4,16.026-15.019,17.067l-17.067,2.048l3.84,8.533
	C197.18,382.285,225.05,400.87,256,401.067z"/>
    <path style="fill:#FECB66;" d="M375.979,350.464l-44.8-5.291l-3.84,8.533c-16.939,39.398-62.609,57.609-102.007,40.67
	c-18.261-7.851-32.811-22.409-40.67-40.67l-3.84-8.533l-44.8,5.291c-33.903,4.531-59.221,33.459-59.221,67.669V512h358.4v-93.867
	C435.2,383.923,409.882,354.995,375.979,350.464z"/>
    <path style="fill:#F5AD76;" d="M76.8,418.133V512h34.133V359.083C89.83,371.268,76.826,393.771,76.8,418.133z"/>
    <rect x="76.8" y="469.333" style="fill:#FEDAC6;" width="68.267" height="42.667"/>
    <g>
	<rect x="76.8" y="469.333" style="fill:#F5C4B0;" width="34.133" height="42.667"/>
        <path style="fill:#F5C4B0;"
              d="M298.667,315.733V281.6h-85.333v34.133C245.333,332.8,266.667,332.8,298.667,315.733z"/>
</g>
    <rect x="366.933" y="469.333" style="fill:#FEDAC6;" width="68.267" height="42.667"/>
    <g>
	<path style="fill:#F5C4B0;" d="M358.4,145.067h-8.533v51.2h8.533c14.14,0,25.6-11.46,25.6-25.6
		C384,156.527,372.54,145.067,358.4,145.067z"/>
        <path style="fill:#F5C4B0;"
              d="M153.6,145.067c-14.14,0-25.6,11.46-25.6,25.6c0,14.14,11.46,25.6,25.6,25.6h8.533v-51.2H153.6z"/>
</g>
    <path style="fill:#FEDAC6;" d="M162.133,85.333v102.4l2.048,26.624c4.352,50.756,49.033,88.38,99.789,84.028
	c2.765-0.239,5.513-0.597,8.243-1.084c42.044-8.132,73.25-43.699,75.861-86.443l1.792-23.125v-102.4H162.133z"/>
    <path style="fill:#F5C4B0;" d="M196.267,190.72V85.333h-34.133V204.8c-0.606,38.357,23.484,72.772,59.733,85.333L204.8,247.467
	C195.584,229.12,196.267,211.285,196.267,190.72z"/>
    <g>
	<path style="fill:#EBEBEB;" d="M200.533,204.8L200.533,204.8c-21.163,0.051-38.349-17.067-38.4-38.229c0-0.06,0-0.111,0-0.171
		v-21.333h76.8V166.4c0.051,21.163-17.067,38.349-38.229,38.4C200.644,204.8,200.593,204.8,200.533,204.8z"/>
        <path style="fill:#EBEBEB;" d="M311.467,204.8L311.467,204.8c-21.163,0.051-38.349-17.067-38.4-38.229c0-0.06,0-0.111,0-0.171
		v-21.333h76.8V166.4c0.051,21.163-17.067,38.349-38.229,38.4C311.578,204.8,311.526,204.8,311.467,204.8z"/>
</g>
    <path style="fill:#A15D30;" d="M160.171,145.067l21.163-44.715c3.575-8.397,13.124-12.493,21.675-9.301
	c34.167,12.8,71.817,12.8,105.984,0c8.55-3.191,18.099,0.905,21.675,9.301l20.907,44.715h15.36v-25.6
	C366.933,58.197,317.269,8.533,256,8.533S145.067,58.197,145.067,119.467v25.6H160.171z"/>
    <path style="fill:#8F4F24;" d="M145.067,119.467v25.6h15.104l21.163-44.715c2.697-6.272,8.875-10.334,15.701-10.325
	c0.512-24.388,4.949-48.529,13.141-71.509C170.556,36.489,145.101,75.964,145.067,119.467z"/>
    <path d="M264.533,221.867H230.4c-2.628,0-5.111-1.212-6.724-3.285c-1.613-2.074-2.193-4.77-1.553-7.322l17.067-68.267l16.555,4.139
	L241.331,204.8h23.202V221.867z"/>
    <path d="M240.384,256h-1.451v-17.067h1.451c13.286-0.009,25.779-5.18,35.183-14.575l12.066,12.075
	C275.012,249.045,258.236,255.991,240.384,256z"/>
    <path d="M358.4,204.8h-8.533v-17.067h8.533c9.412,0,17.067-7.654,17.067-17.067c0-9.412-7.654-17.067-17.067-17.067h-8.533v-17.067
	h8.533c18.825,0,34.133,15.309,34.133,34.133S377.225,204.8,358.4,204.8z"/>
    <path d="M162.133,204.8H153.6c-18.825,0-34.133-15.309-34.133-34.133s15.309-34.133,34.133-34.133h8.533V153.6H153.6
	c-9.412,0-17.067,7.654-17.067,17.067c0,9.412,7.654,17.067,17.067,17.067h8.533V204.8z"/>
    <path d="M342.025,148.437l-19.2-44.715c-1.801-4.241-6.562-6.289-10.846-4.668c-36.087,13.525-75.861,13.525-111.966,0
	c-4.25-1.579-9.028,0.444-10.829,4.651l-19.209,44.74l-15.684-6.733l19.2-44.715c5.367-12.604,19.652-18.714,32.503-13.926
	c32.247,12.092,67.746,12.092,100.011,0c12.843-4.787,27.145,1.323,32.521,13.952l19.191,44.689L342.025,148.437z"/>
    <path d="M200.448,213.333c-12.476,0-24.209-4.847-33.05-13.645c-8.875-8.832-13.764-20.582-13.798-33.101v-21.521
	c0-4.71,3.823-8.533,8.533-8.533h76.8c4.71,0,8.533,3.823,8.533,8.533V166.4c0.026,12.493-4.821,24.269-13.645,33.135
	c-8.832,8.875-20.582,13.764-33.101,13.798h-0.171C200.516,213.333,200.482,213.333,200.448,213.333z M170.667,153.6v12.8
	c0.034,16.546,13.389,29.867,29.781,29.867c0.026,0,0.06,0,0.085,0h0.171c16.401-0.034,29.73-13.423,29.696-29.85V153.6H170.667z"/>
    <path d="M311.381,213.333c-25.779,0-46.788-20.949-46.848-46.746v-21.521c0-4.71,3.814-8.533,8.533-8.533h76.8
	c4.719,0,8.533,3.823,8.533,8.533V166.4c0.034,12.493-4.813,24.269-13.645,33.135c-8.832,8.875-20.582,13.764-33.101,13.798h-0.179
	C311.45,213.333,311.415,213.333,311.381,213.333z M281.6,153.6v12.8c0.043,16.546,13.389,29.867,29.781,29.867
	c0.034,0,0.051,0,0.085,0h0.179c7.936-0.017,15.411-3.132,21.018-8.764c5.615-5.641,8.695-13.124,8.678-21.077V153.6H281.6z"/>
    <rect x="238.933" y="136.533" width="34.133" height="17.067"/>
    <circle cx="196.267" cy="162.133" r="17.067"/>
    <circle cx="307.2" cy="162.133" r="17.067"/>
    <path d="M256,307.2c-56.465,0-102.4-45.935-102.4-102.4v-59.733h17.067V204.8c0,47.053,38.281,85.333,85.333,85.333
	s85.333-38.281,85.333-85.333v-59.733H358.4V204.8C358.4,261.265,312.465,307.2,256,307.2z"/>
    <path d="M375.467,145.067H358.4v-25.6c0-56.465-45.935-102.4-102.4-102.4s-102.4,45.935-102.4,102.4v25.6h-17.067v-25.6
	C136.533,53.589,190.123,0,256,0s119.467,53.589,119.467,119.467V145.067z"/>
    <path d="M85.333,512H68.267v-93.867c0-38.315,28.638-71.04,66.628-76.126l62.421-7.356c4.284-0.521,7.518-4.181,7.484-8.533v-35.985
	h17.067v35.925c0.094,12.971-9.591,23.979-22.528,25.54l-62.319,7.339c-29.414,3.934-51.686,29.389-51.686,59.196V512z"/>
    <path d="M443.733,512h-17.067v-93.867c-0.034-29.756-22.315-55.185-51.823-59.127l-62.157-7.322
	c-12.971-1.57-22.647-12.578-22.554-25.609v-35.942H307.2v36.011c-0.034,4.412,3.191,8.073,7.509,8.593l62.268,7.339
	c38.067,5.086,66.705,37.769,66.756,76.049V512z"/>
    <path d="M256.043,409.6c-0.034,0-0.068,0-0.094,0c-34.492,0-65.545-20.48-79.13-52.19l-5.461-12.706l15.684-6.733l5.461,12.715
	c10.897,25.421,35.797,41.847,63.454,41.847c0.026,0,0.051,0,0.077,0c27.657,0,52.565-16.427,63.471-41.847l5.461-12.715
	l15.684,6.733l-5.461,12.715C321.596,389.12,290.526,409.6,256.043,409.6z"/>
    <rect x="136.533" y="443.733" width="17.067" height="68.267"/>
    <rect x="76.8" y="460.8" width="68.267" height="17.067"/>
    <rect x="358.4" y="443.733" width="17.067" height="68.267"/>
    <rect x="366.933" y="460.8" width="68.267" height="17.067"/>
    <g>
</g>
    <g>
</g>
    <g>
</g>
    <g>
</g>
    <g>
</g>
    <g>
</g>
    <g>
</g>
    <g>
</g>
    <g>
</g>
    <g>
</g>
    <g>
</g>
    <g>
</g>
    <g>
</g>
    <g>
</g>
    <g>
</g>
</svg>
