<?xml version="1.0" encoding="iso-8859-1"?>
<!-- Generator: Adobe Illustrator 19.0.0, SVG Export Plug-In . SVG Version: 6.00 Build 0)  -->
<svg version="1.1" id="Capa_1" xmlns="http://www.w3.org/2000/svg" x="0px"
     y="0px"
     viewBox="0 0 512 512" style="enable-background:new 0 0 512 512;" xml:space="preserve">
<path style="fill:#A15D30;" d="M375.424,358.4V128c0-65.98-53.487-119.467-119.467-119.467l0,0
	c-65.98,0-119.467,53.487-119.467,119.467v230.4H375.424z"/>
    <rect x="136.491" y="162.133" style="fill:#8F4F24;" width="119.467" height="196.267"/>
    <path style="fill:#EBEBEB;" d="M187.691,443.733V512h136.533v-68.267c-33.485,37.7-91.196,41.122-128.905,7.629
	C192.631,448.973,190.089,446.421,187.691,443.733z"/>
    <path style="fill:#FEDAC6;" d="M313.557,351.744c-8.585-1.084-15.002-8.414-14.933-17.067v-44.544h-85.333v44.629
	c0.068,8.653-6.349,15.983-14.933,17.067l-10.667,1.28v90.624c33.485,37.7,91.196,41.122,128.905,7.629
	c2.688-2.389,5.239-4.941,7.629-7.629v-90.624L313.557,351.744z"/>
    <path style="fill:#DBDBDB;" d="M221.824,467.712c-13.073-5.257-24.755-13.466-34.133-23.979V512h34.133V467.712z"/>
    <path style="fill:#F5C4B0;" d="M298.624,320v-29.867h-85.333V320C239.172,337.075,272.742,337.075,298.624,320z"/>
    <g>
	<path style="fill:#3CACDE;"
          d="M121.643,361.301c-25.788,3.2-45.082,25.216-44.885,51.2V512h110.933V353.109L121.643,361.301z"/>
        <path style="fill:#3CACDE;" d="M435.157,412.16c0.196-25.984-19.098-48-44.885-51.2l-66.048-8.533V512h110.933L435.157,412.16
		L435.157,412.16z"/>
</g>
    <g>
	<path style="fill:#FEDAC6;" d="M162.091,136.533l4.693,76.8c2.159,49.246,43.827,87.424,93.073,85.274
		c46.234-2.022,83.251-39.04,85.274-85.274l4.693-76.8l-93.867-68.267L162.091,136.533z"/>
        <path style="fill:#FEDAC6;" d="M358.357,145.067h-8.533v51.2h8.533c14.14,0,25.6-11.46,25.6-25.6
		C383.957,156.527,372.497,145.067,358.357,145.067z"/>
</g>
    <path style="fill:#F5C4B0;" d="M127.957,170.667c0,14.14,11.46,25.6,25.6,25.6h8.533v-51.2h-8.533
	C139.418,145.067,127.957,156.527,127.957,170.667z"/>
    <path style="fill:#329AC7;" d="M76.757,408.917V512h34.133V358.4C85.291,366.933,76.757,384,76.757,408.917z"/>
    <path style="fill:#8F4F24;" d="M255.957,44.544c-33.015,28.672-73.122,47.949-116.139,55.808c-2.202,9.054-3.311,18.33-3.328,27.648
	v17.067h25.6l93.867-76.8L255.957,44.544L255.957,44.544z"/>
    <path style="fill:#F5C4B0;" d="M207.317,170.667l-2.56-59.733c-14.788,10.65-29.03,22.042-42.667,34.133l7.168,68.267
	c1.826,40.235,30.345,74.274,69.632,83.115l-11.349-21.077C208.597,240.213,207.317,210.517,207.317,170.667z"/>
    <circle cx="307.157" cy="162.133" r="17.067"/>
    <path d="M261.794,212.898l-25.6-8.533c-2.347-0.785-4.241-2.543-5.18-4.83c-0.947-2.287-0.853-4.873,0.247-7.083l17.067-34.133
	l15.266,7.637l-12.663,25.335l16.265,5.419L261.794,212.898z"/>
    <path d="M85.291,512H68.224v-99.84c-0.23-30.251,22.281-55.927,52.369-59.665l76.8-9.557c4.275-0.538,7.484-4.207,7.458-8.533
	v-44.271h17.067v44.203c0.102,12.919-9.532,23.927-22.4,25.532l-76.809,9.557c-21.495,2.671-37.572,21.018-37.41,42.667V512H85.291z
	"/>
    <path d="M443.776,512h-17.067v-99.413c0.171-21.717-15.915-40.055-37.402-42.735l-76.8-9.549
	c-12.885-1.621-22.519-12.629-22.417-25.6v-44.57h17.067v44.629c-0.034,4.395,3.174,8.055,7.467,8.602l76.783,9.549
	c30.089,3.738,52.599,29.423,52.369,59.733L443.776,512L443.776,512z"/>
    <path d="M358.357,204.8h-8.533v-17.067h8.533c9.412,0,17.067-7.654,17.067-17.067c0-9.412-7.654-17.067-17.067-17.067h-8.533
	v-17.067h8.533c18.825,0,34.133,15.309,34.133,34.133S377.182,204.8,358.357,204.8z"/>
    <path d="M255.957,307.2c-52.471,0-95.386-41.071-97.698-93.491l-4.685-76.655l17.033-1.041l4.693,76.8
	c1.92,43.418,37.342,77.321,80.657,77.321s78.746-33.903,80.649-77.175l4.702-76.945l17.033,1.041l-4.693,76.8
	C351.351,266.138,308.437,307.2,255.957,307.2z"/>
    <path d="M245.402,247.467c-0.009,0-0.017,0-0.026,0h-6.485V230.4h6.485c0.009,0,0.017,0,0.026,0c11.17,0,22.349-2.637,32.341-7.637
	l7.637,15.266C273.033,244.207,259.209,247.467,245.402,247.467z"/>
    <circle cx="204.757" cy="162.133" r="17.067"/>
    <path d="M344.422,151.671l-88.465-72.38l-88.465,72.38l-10.812-13.21l93.867-76.8c3.14-2.577,7.663-2.577,10.812,0l93.867,76.8
	L344.422,151.671z"/>
    <path d="M162.091,204.8h-8.533c-18.825,0-34.133-15.309-34.133-34.133s15.309-34.133,34.133-34.133h8.533V153.6h-8.533
	c-9.412,0-17.067,7.654-17.067,17.067c0,9.412,7.654,17.067,17.067,17.067h8.533V204.8z"/>
    <path d="M383.957,153.6h-17.067V128c0-61.167-49.766-110.933-110.933-110.933S145.024,66.833,145.024,128v25.6h-17.067V128
	c0-70.579,57.421-128,128-128s128,57.421,128,128V153.6z"/>
    <rect x="247.424" y="8.533" width="17.067" height="59.733"/>
    <rect x="127.957" y="187.733" width="17.067" height="170.667"/>
    <rect x="366.891" y="187.733" width="17.067" height="170.667"/>
    <rect x="179.157" y="349.867" width="17.067" height="162.133"/>
    <rect x="315.691" y="349.867" width="17.067" height="162.133"/>
    <path d="M256.017,482.893c-27.563,0-55.006-11.307-74.701-33.493l12.757-11.332c30.31,34.116,82.739,37.231,116.855,6.921
	c2.432-2.159,4.762-4.48,6.929-6.921l12.749,11.332c-2.603,2.935-5.41,5.743-8.346,8.346
	C303.283,474.598,279.603,482.893,256.017,482.893z"/>
    <g>
</g>
    <g>
</g>
    <g>
</g>
    <g>
</g>
    <g>
</g>
    <g>
</g>
    <g>
</g>
    <g>
</g>
    <g>
</g>
    <g>
</g>
    <g>
</g>
    <g>
</g>
    <g>
</g>
    <g>
</g>
    <g>
</g>
</svg>
