<?xml version="1.0" encoding="iso-8859-1"?>
<!-- Generator: Adobe Illustrator 19.0.0, SVG Export Plug-In . SVG Version: 6.00 Build 0)  -->
<svg version="1.1" id="Capa_1" xmlns="http://www.w3.org/2000/svg" x="0px"
     y="0px"
     viewBox="0 0 512 512" style="enable-background:new 0 0 512 512;" xml:space="preserve">
<path style="fill:#8F4F24;" d="M341.291,375.467h-179.2l-8.533-25.6C136.491,298.667,136.491,128,136.491,128
	c0-65.98,53.487-119.467,119.467-119.467l0,0c65.98,0,119.467,53.487,119.467,119.467C375.424,128,375.424,324.267,341.291,375.467z
	"/>
    <path style="fill:#787D82;" d="M390.272,352.768l-59.221-7.424l-3.755,8.533c-16.939,39.398-62.609,57.609-102.007,40.67
	c-18.261-7.851-32.811-22.409-40.67-40.67l-3.755-8.533l-59.221,7.424c-25.788,3.2-45.082,25.216-44.885,51.2V512h358.4V403.627
	C435.183,377.771,415.932,355.96,390.272,352.768z"/>
    <path style="fill:#FEDAC6;" d="M255.957,401.067c31.044,0.017,59.11-18.483,71.339-47.019l3.755-8.533l-17.067-2.133
	c-8.585-1.084-15.002-8.414-14.933-17.067V281.6h-85.76v44.629c0.068,8.653-6.349,15.983-14.933,17.067l-17.493,2.133l3.755,8.533
	C196.821,382.532,224.896,401.067,255.957,401.067z"/>
    <path style="fill:#F5C4B0;"
          d="M298.624,328.875V281.6h-85.333v47.275C245.291,345.515,266.624,345.515,298.624,328.875z"/>
    <g>
	<path style="fill:#FEDAC6;" d="M358.357,145.067h-17.067v51.2h17.067c14.14,0,25.6-11.46,25.6-25.6
		C383.957,156.527,372.497,145.067,358.357,145.067z"/>
        <path style="fill:#FEDAC6;" d="M187.691,128c8.533-59.733,68.267-51.2,68.267-51.2h56.405c7.142-0.026,13.542,4.403,16.043,11.093
		l21.419,57.173l-4.693,68.267c-2.099,47.727-41.404,85.333-89.173,85.333l0,0c-29.884-0.017-57.907-14.515-75.179-38.912
		C180.779,259.755,182.656,163.157,187.691,128z"/>
</g>
    <path style="fill:#F5C4B0;" d="M207.317,172.885l-2.56-96.085c-34.133,8.533-42.667,25.6-42.667,25.6l7.168,113.237
	c1.86,40.201,30.37,74.197,69.632,83.029l-11.349-21.077C208.597,242.517,207.317,212.821,207.317,172.885z"/>
    <path style="fill:#A15D30;" d="M136.491,145.067c0,128,51.2,170.667,51.2,170.667c-8.533-25.6-8.533-128,0-187.733
	c8.533-59.733,68.267-51.2,68.267-51.2h56.405c7.142-0.026,13.542,4.403,16.043,11.093l21.419,57.173
	c9.242-0.034,18.236,2.961,25.6,8.533V128c0-65.98-53.487-119.467-119.467-119.467l0,0c-65.98,0-119.467,53.487-119.467,119.467
	v25.6"/>
    <path style="fill:#8F4F24;" d="M136.491,128v17.067c0,128,51.2,170.667,51.2,170.667c-5.803-17.067-10.667-42.667-8.533-93.867
	c-28.928-33.109-32.853-109.227-34.133-137.899C139.383,97.963,136.491,112.913,136.491,128z"/>
    <path style="fill:#717478;" d="M76.757,408.917V512h34.133V358.4C85.291,366.933,76.757,384,76.757,408.917z"/>
    <circle cx="307.157" cy="162.133" r="17.067"/>
    <path d="M261.794,212.898l-25.6-8.533c-4.471-1.493-6.886-6.323-5.393-10.795l17.067-51.2l16.188,5.402l-14.37,43.102l17.502,5.837
	L261.794,212.898z"/>
    <path d="M85.291,512H68.224V403.627c-0.23-30.251,22.281-55.927,52.369-59.665l76.8-9.557c4.275-0.538,7.484-4.207,7.458-8.533
	v-35.738h17.067v35.669c0.102,12.919-9.532,23.927-22.4,25.532l-76.809,9.557c-21.495,2.671-37.572,21.018-37.41,42.667V512H85.291z
	"/>
    <path d="M443.776,512h-17.067V404.053c0.171-21.717-15.915-40.055-37.402-42.735l-76.8-9.549
	c-12.885-1.621-22.519-12.629-22.417-25.6v-36.036h17.067v36.096c-0.034,4.395,3.174,8.055,7.467,8.602l76.783,9.549
	c30.089,3.738,52.599,29.423,52.369,59.733L443.776,512L443.776,512z"/>
    <path d="M358.357,204.8h-8.533v-17.067h8.533c9.412,0,17.067-7.654,17.067-17.067c0-9.412-7.654-17.067-17.067-17.067h-8.533
	v-17.067h8.533c18.825,0,34.133,15.309,34.133,34.133S377.182,204.8,358.357,204.8z"/>
    <path d="M256,409.6c-0.034,0-0.068,0-0.094,0c-34.483,0-65.545-20.48-79.13-52.19l-5.461-12.706l15.684-6.733l5.461,12.715
	c10.897,25.421,35.806,41.847,63.454,41.847c0.026,0,0.051,0,0.077,0c27.665,0,52.574-16.418,63.471-41.839l5.461-12.723
	l15.684,6.733l-5.461,12.715C321.562,389.12,290.492,409.6,256,409.6z"/>
    <path d="M255.957,307.2c-32.606-0.017-63.309-15.906-82.142-42.505l13.926-9.865c15.642,22.084,41.148,35.285,68.224,35.302
	c43.315,0,78.737-33.903,80.649-77.175l4.702-76.945l17.033,1.041l-4.693,76.8C351.351,266.138,308.437,307.2,255.957,307.2z"/>
    <path d="M245.402,247.467c-0.009,0-0.017,0-0.026,0h-6.485V230.4h6.485c0.009,0,0.017,0,0.026,0c11.17,0,22.349-2.637,32.341-7.637
	l7.637,15.266C273.033,244.207,259.209,247.467,245.402,247.467z"/>
    <circle cx="204.757" cy="162.133" r="17.067"/>
    <path d="M383.957,153.6h-17.067V128c0-61.167-49.766-110.933-110.933-110.933S145.024,66.833,145.024,128v25.6h-17.067V128
	c0-70.579,57.421-128,128-128s128,57.421,128,128V153.6z"/>
    <path d="M187.691,324.267c-1.946,0-3.891-0.666-5.461-1.971c-2.219-1.852-54.272-46.729-54.272-177.229h17.067
	c0,70.084,15.838,113.775,29.355,138.291c-3.149-43.477-1.562-111.607,4.864-156.57c7.637-53.453,53.487-61.662,77.295-58.522
	h55.825c10.59-0.068,20.292,6.639,24.03,16.64l21.419,57.173l-15.983,5.982L320.41,90.889c-1.246-3.328-4.446-5.547-7.996-5.547
	c-0.009,0-0.017,0-0.026,0h-56.439c-0.401,0-0.811-0.026-1.212-0.085c-5.205-0.708-51.533-5.581-58.615,43.964
	c-8.926,62.481-7.842,161.348-0.35,183.825c1.203,3.618-0.137,7.603-3.285,9.754C191.044,323.772,189.363,324.267,187.691,324.267z"
    />
    <path d="M357.146,354.261l-14.635-8.781c24.09-40.158,24.38-156.578,24.38-157.747h17.067
	C383.957,192.708,383.65,310.076,357.146,354.261z"/>
    <path d="M145.459,352.563c-17.297-51.917-17.502-192.981-17.502-198.963h17.067c0,1.434,0.196,144.265,16.631,193.57
	L145.459,352.563z"/>
    <g>
</g>
    <g>
</g>
    <g>
</g>
    <g>
</g>
    <g>
</g>
    <g>
</g>
    <g>
</g>
    <g>
</g>
    <g>
</g>
    <g>
</g>
    <g>
</g>
    <g>
</g>
    <g>
</g>
    <g>
</g>
    <g>
</g>
</svg>
