<?xml version="1.0" encoding="iso-8859-1"?>
<!-- Generator: Adobe Illustrator 19.0.0, SVG Export Plug-In . SVG Version: 6.00 Build 0)  -->
<svg version="1.1" id="Capa_1" xmlns="http://www.w3.org/2000/svg" x="0px"
     y="0px"
     viewBox="0 0 512 512" style="enable-background:new 0 0 512 512;" xml:space="preserve">
<path style="fill:#FECB66;" d="M136.491,187.733v51.2c0,25.6-34.133,68.267-25.6,119.467l0,0
	c94.711,27.819,195.422,27.819,290.133,0l0,0c8.533-51.2-12.885-93.867-17.067-119.467c-5.649-42.436-8.499-85.188-8.533-128
	c0-56.576-37.291-102.4-93.867-102.4h-51.2c-51.84,0-93.867,42.027-93.867,93.867C136.491,102.4,136.491,187.733,136.491,187.733z"
/>
    <path style="fill:#F5AD76;" d="M227.029,8.533c-50.534,1.792-90.573,43.298-90.539,93.867v136.533
	c0,25.6-34.133,68.267-25.6,119.467c43.682,12.826,88.883,19.797,134.4,20.736C179.157,162.133,187.691,68.267,227.029,8.533z"/>
    <g>
	<path style="fill:#FEDAC6;" d="M255.957,452.267c38.665-0.009,70.827-29.73,73.899-68.267l2.901-38.4l-18.944-2.389
		c-8.585-1.084-15.002-8.414-14.933-17.067V281.6h-85.589v44.629c0.068,8.653-6.349,15.983-14.933,17.067l-19.2,2.304l2.901,38.4
		C185.131,422.537,217.301,452.258,255.957,452.267z"/>
        <path style="fill:#FEDAC6;" d="M145.024,443.733l-7.765-92.928l-15.616,1.963c-25.788,3.2-45.082,25.216-44.885,51.2V512h42.667
		c0-22.153,7.185-43.716,20.48-61.44L145.024,443.733z"/>
        <path style="fill:#FEDAC6;" d="M390.272,352.768l-15.616-1.963l-7.765,92.928l5.12,6.827c13.295,17.724,20.48,39.287,20.48,61.44
		h42.667V403.627C435.183,377.771,415.932,355.96,390.272,352.768z"/>
</g>
    <path style="fill:#E56B2E;" d="M366.891,443.733l7.765-92.928l-41.899-5.205l-2.901,38.4c-3.396,40.815-39.245,71.142-80.051,67.746
	c-36.096-3.004-64.734-31.65-67.746-67.746l-2.901-38.4l-42.155,5.205l8.021,92.928l-5.12,6.827
	c-13.295,17.724-20.48,39.287-20.48,61.44h273.067c0-22.153-7.185-43.716-20.48-61.44L366.891,443.733z"/>
    <g>
	<path style="fill:#F5C4B0;" d="M76.757,402.517v108.373h25.6V358.4C86.588,367.505,76.843,384.307,76.757,402.517z"/>
        <path style="fill:#F5C4B0;"
              d="M298.624,320.341V281.6h-85.333v38.741C245.291,336.981,266.624,336.981,298.624,320.341z"/>
        <path style="fill:#F5C4B0;" d="M153.557,145.067c-14.14,0-25.6,11.46-25.6,25.6c0,14.14,11.46,25.6,25.6,25.6h17.067v-51.2H153.557
		z"/>
</g>
    <path style="fill:#FEDAC6;" d="M324.736,264.533c-8.294,9.609-18.415,17.468-29.781,23.125l-16.128,8.107
	c-14.396,7.185-31.343,7.185-45.739,0l-17.067-8.533c-28.442-14.182-48.009-41.54-52.224-73.045l-1.707-69.12V102.4l8.533-8.533
	c10.735-10.863,25.353-17.007,40.619-17.067h64.853c39.595,0,39.595,0,48.128,25.6l0,0c0,0-8.533,110.933-8.533,128
	C316.271,242.287,319.351,253.918,324.736,264.533z"/>
    <path style="fill:#F5C4B0;" d="M196.224,119.467c0-14.14,1.954-28.211,5.803-41.813c-11.913,1.963-22.903,7.637-31.403,16.213
	l-8.533,8.533v42.667l1.792,69.12c3.558,26.121,17.69,49.63,39.083,65.024C191.616,223.232,196.224,157.355,196.224,119.467z"/>
    <path style="fill:#D65B25;" d="M130.603,465.579c-7.313,14.379-11.145,30.285-11.179,46.421h57.003
	C146.731,499.541,135.04,480.427,130.603,465.579z"/>
    <circle cx="307.157" cy="162.133" r="17.067"/>
    <path d="M253.261,221.431l-25.6-8.533c-2.347-0.785-4.241-2.543-5.18-4.83c-0.947-2.287-0.853-4.873,0.247-7.083l25.6-51.2
	l15.266,7.637l-21.197,42.402l16.265,5.419L253.261,221.431z"/>
    <path d="M85.291,512H68.224V403.627c-0.23-30.251,22.281-55.927,52.369-59.665l76.8-9.557c4.275-0.538,7.484-4.207,7.458-8.533
	v-35.738h17.067v35.669c0.102,12.919-9.532,23.927-22.4,25.532l-76.809,9.557c-21.495,2.671-37.572,21.018-37.41,42.667V512H85.291z
	"/>
    <path d="M443.776,512h-17.067V404.053c0.171-21.717-15.915-40.055-37.402-42.735l-76.8-9.549
	c-12.885-1.621-22.519-12.629-22.417-25.6v-36.036h17.067v36.096c-0.034,4.395,3.174,8.055,7.467,8.602l76.783,9.549
	c30.089,3.738,52.599,29.423,52.369,59.733L443.776,512L443.776,512z"/>
    <path d="M245.402,247.467c-0.009,0-0.017,0-0.026,0h-6.485V230.4h6.485c0.009,0,0.017,0,0.026,0c11.17,0,22.349-2.637,32.341-7.637
	l7.637,15.266C273.033,244.207,259.209,247.467,245.402,247.467z"/>
    <path d="M240.188,81.323c-6.69-10.709-17.058-18.492-29.21-21.905l4.625-16.427c16.247,4.574,30.114,14.976,39.057,29.295
	L240.188,81.323z"/>
    <path d="M198.741,91.375c-4.087-4.053-17.109-14.575-28.117-14.575V59.733c20.028,0,38.17,17.562,40.166,19.567L198.741,91.375z"/>
    <circle cx="196.224" cy="162.133" r="17.067"/>
    <path d="M325.35,302.899c-23.415-40.977-16.896-101.683-11.674-150.46c2.534-23.595,4.924-45.884,2.278-56.508
	c-1.536-6.11-4.437-10.197-8.883-12.476c-9.83-5.077-25.643-0.802-30.891,1.271l-6.323-15.855
	c2.654-1.058,26.47-10.078,44.954-0.631c8.858,4.531,14.976,12.672,17.69,23.552c3.388,13.559,1.075,35.149-1.852,62.464
	c-4.975,46.336-11.162,103.996,9.515,140.169L325.35,302.899z"/>
    <polygon points="324.745,273.067 324.224,273.067 324.224,256 "/>
    <path d="M255.957,309.649c-9.165,0-18.321-2.082-26.667-6.246l-17.075-8.533c-31.01-15.462-52.267-45.201-56.866-79.548
	c-0.043-0.307-0.068-0.614-0.068-0.922l-1.707-69.12V102.4h17.067v42.667l1.698,68.437c3.968,28.544,21.7,53.222,47.514,66.099
	l17.075,8.533c11.921,5.948,26.172,5.948,38.118,0l16.102-8.098c10.419-5.171,19.541-12.271,27.162-21.077l12.919,11.153
	c-9.097,10.539-20.019,19.021-32.444,25.19l-16.094,8.09C274.304,307.567,265.122,309.649,255.957,309.649z"/>
    <path d="M102.477,359.799c-5.743-34.475,6.229-64.563,15.846-88.747c5.163-12.996,9.634-24.218,9.634-32.119v-51.2h17.067v51.2
	c0,11.17-5.026,23.799-10.846,38.426c-8.841,22.221-19.84,49.86-14.874,79.642L102.477,359.799z"/>
    <path d="M409.438,359.799l-16.836-2.799c5.871-35.268-3.209-66.176-10.496-90.999c-2.867-9.754-5.342-18.167-6.579-25.694
	c-5.692-42.897-8.593-86.34-8.636-129.365c0-54.4-35.891-93.875-85.333-93.875h-51.2c-49.442,0-85.333,39.475-85.333,93.867V153.6
	h-17.067v-42.667C127.957,46.652,171.025,0,230.357,0h51.2c59.332,0,102.4,46.652,102.4,110.933
	c0.043,42.283,2.884,84.966,8.457,126.874c1.024,6.229,3.362,14.174,6.059,23.373C405.862,286.293,415.966,320.674,409.438,359.799z
	"/>
    <path d="M162.091,204.8h-8.533c-18.825,0-34.133-15.309-34.133-34.133s15.309-34.133,34.133-34.133h8.533V153.6h-8.533
	c-9.412,0-17.067,7.654-17.067,17.067c0,9.412,7.654,17.067,17.067,17.067h8.533V204.8z"/>
    <path d="M255.957,460.8c-42.812-0.009-79.01-33.451-82.406-76.126l-2.901-34.082l17.007-1.451l2.901,34.133
	c2.697,33.92,31.42,60.45,65.391,60.459c33.971-0.009,62.703-26.539,65.391-60.407l2.91-34.185l16.998,1.451l-2.901,34.133
	C334.967,427.349,298.778,460.792,255.957,460.8z"/>
    <path d="M127.957,512h-17.067c0-23.851,7.876-47.479,22.195-66.56l3.123-4.164L128,359.253l16.981-1.698l8.533,85.333
	c0.213,2.125-0.384,4.258-1.664,5.965l-5.12,6.827C134.622,471.817,127.957,491.827,127.957,512z"/>
    <path d="M401.024,512h-17.067c0-20.181-6.665-40.183-18.765-56.328l-5.129-6.818c-1.28-1.715-1.877-3.84-1.664-5.973l8.533-85.333
	l16.981,1.698l-8.201,82.014l3.123,4.164C393.148,464.521,401.024,488.149,401.024,512z"/>
    <g>
</g>
    <g>
</g>
    <g>
</g>
    <g>
</g>
    <g>
</g>
    <g>
</g>
    <g>
</g>
    <g>
</g>
    <g>
</g>
    <g>
</g>
    <g>
</g>
    <g>
</g>
    <g>
</g>
    <g>
</g>
    <g>
</g>
</svg>
