<?xml version="1.0" encoding="iso-8859-1"?>
<!-- Generator: Adobe Illustrator 19.0.0, SVG Export Plug-In . SVG Version: 6.00 Build 0)  -->
<svg version="1.1" id="Capa_1" xmlns="http://www.w3.org/2000/svg" x="0px"
     y="0px"
     viewBox="0 0 512 512" style="enable-background:new 0 0 512 512;" xml:space="preserve">
<path style="fill:#70432C;" d="M375.467,358.4V153.6C375.467,59.733,341.333,8.533,256,8.533l0,0
	c-45.397,0-85.333,17.067-110.933,68.267c-19.627,38.229-8.533,256-8.533,281.6H375.467z"/>
    <path style="fill:#5C3724;" d="M251.136,8.533c-43.264,1.28-80.981,19.2-106.069,68.267c-19.627,38.229-8.533,256-8.533,281.6
	h85.333c-8.533-85.333-25.6-145.067-25.6-187.733C196.267,70.656,229.461,25.6,251.136,8.533z"/>
    <path style="fill:#FEDAC6;" d="M349.867,145.067c-34.133-34.133-51.2-93.867-51.2-93.867s-34.133,42.667-136.533,93.867v8.533
	l4.693,59.733c2.099,47.727,41.404,85.333,89.173,85.333l0,0c47.77,0,87.074-37.606,89.173-85.333L349.867,145.067z"/>
    <path style="fill:#F5C4B0;" d="M162.133,143.616l4.693,68.267c1.357,33.041,20.907,62.609,50.773,76.8
	c-23.723-52.48-28.928-108.971-29.867-152.149C180.053,141.286,171.17,143.744,162.133,143.616z"/>
    <g>
	<path style="fill:#787D82;"
          d="M435.2,410.112c0.009-34.415-25.591-63.454-59.733-67.755l-42.667-5.291V512h102.4V410.112z"/>
        <path style="fill:#787D82;"
              d="M136.533,342.357c-34.142,4.301-59.742,33.34-59.733,67.755V512h102.4V337.067L136.533,342.357z"/>
</g>
    <path style="fill:#DBDBDB;" d="M179.2,426.667V512h153.6v-85.333C283.913,448.427,228.087,448.427,179.2,426.667z"/>
    <path style="fill:#FEDAC6;" d="M313.6,334.677c-8.585-1.084-15.002-8.414-14.933-17.067V281.6h-85.333v36.096
	c0.068,8.653-6.349,15.983-14.933,17.067l-19.2,2.304v89.6c48.887,21.76,104.713,21.76,153.6,0v-89.6L313.6,334.677z"/>
    <g>
	<path style="fill:#EBEBEB;" d="M213.333,196.267h-25.6c-14.14,0-25.6-11.46-25.6-25.6V153.6c0-4.71,3.823-8.533,8.533-8.533h68.267
		v25.6C238.933,184.806,227.473,196.267,213.333,196.267z"/>
        <path style="fill:#EBEBEB;" d="M315.733,196.267h-25.6c-14.14,0-25.6-11.46-25.6-25.6v-25.6H332.8c4.71,0,8.533,3.823,8.533,8.533
		v17.067C341.333,184.806,329.873,196.267,315.733,196.267z"/>
</g>
    <path style="fill:#F5C4B0;" d="M298.667,320v-29.867h-85.333V320C239.215,337.075,272.785,337.075,298.667,320z"/>
    <path style="fill:#717478;" d="M110.933,351.061C89.83,363.247,76.826,385.749,76.8,410.112V512h34.133V351.061z"/>
    <path style="fill:#BFBFBF;" d="M213.333,438.016c-11.725-2.662-23.151-6.46-34.133-11.349V512h34.133V438.016z"/>
    <path style="fill:#FEDAC6;" d="M358.4,145.067h-8.533v51.2h8.533c14.14,0,25.6-11.46,25.6-25.6
	C384,156.527,372.54,145.067,358.4,145.067z"/>
    <path d="M253.303,221.431l-25.6-8.533c-4.335-1.442-6.758-6.042-5.504-10.445l17.067-59.733l16.41,4.693l-14.822,51.874
	l17.852,5.948L253.303,221.431z"/>
    <path d="M358.4,204.8h-8.533v-17.067h8.533c9.412,0,17.067-7.654,17.067-17.067c0-9.412-7.654-17.067-17.067-17.067h-8.533v-17.067
	h8.533c18.825,0,34.133,15.309,34.133,34.133S377.225,204.8,358.4,204.8z"/>
    <path d="M256,307.2c-52.471,0-95.386-41.071-97.698-93.491l-4.659-50.799l16.99-1.562l4.693,51.2
	c1.929,43.682,37.359,77.585,80.674,77.585s78.746-33.903,80.649-77.175l4.702-76.945l17.033,1.041l-4.693,76.8
	C351.394,266.138,308.471,307.2,256,307.2z"/>
    <path d="M245.444,247.467c-0.009,0-0.017,0-0.026,0h-6.485V230.4h6.485c0.009,0,0.017,0,0.026,0c11.17,0,22.357-2.637,32.341-7.637
	l7.637,15.266C273.075,244.207,259.251,247.467,245.444,247.467z"/>
    <path d="M145.067,349.867H128c0-4.241-0.316-13.568-0.725-26.334c-3.541-107.221-5.086-220.843,10.197-250.633
	C162.492,23.851,201.259,0,256,0c86.135,0,128,50.244,128,153.6h-17.067c0-94.421-34.219-136.533-110.933-136.533
	c-47.701,0-81.502,20.804-103.33,63.607c-15.334,29.884-10.257,184.201-8.346,242.295
	C144.751,336.009,145.067,345.54,145.067,349.867z"/>
    <path d="M174.481,152.704l-7.637-15.266c98.176-49.084,124.279-90.257,124.535-90.667c1.766-2.884,5.052-4.48,8.439-4.002
	c3.354,0.461,6.127,2.833,7.049,6.084c0.171,0.572,16.905,58.052,49.033,90.18L343.834,151.1
	c-24.798-24.798-40.738-61.679-48.282-82.287C280.132,85.828,245.154,117.359,174.481,152.704z"/>
    <rect x="366.933" y="187.733" width="17.067" height="153.6"/>
    <path d="M85.333,512H68.267V410.112c-0.009-38.622,28.877-71.39,67.2-76.22l61.798-7.68c4.275-0.538,7.484-4.207,7.458-8.533
	v-27.546h17.067v27.477c0.102,12.919-9.532,23.927-22.4,25.532l-61.79,7.68c-29.807,3.755-52.275,29.244-52.267,59.29V512z"/>
    <path d="M443.733,512h-17.067V410.112c0.009-30.046-22.46-55.535-52.267-59.281l-61.764-7.68
	c-12.885-1.604-22.519-12.621-22.417-25.6v-27.418h17.067v27.477c-0.034,4.395,3.174,8.064,7.458,8.602l61.773,7.68
	c38.332,4.821,67.226,37.589,67.217,76.22V512z"/>
    <rect x="170.667" y="332.8" width="17.067" height="179.2"/>
    <rect x="324.267" y="332.8" width="17.067" height="179.2"/>
    <path d="M256,451.499c-27.375,0-54.758-5.683-80.273-17.041l6.938-15.582c46.601,20.753,100.062,20.753,146.654,0l6.946,15.582
	C310.767,445.815,283.383,451.499,256,451.499z"/>
    <path d="M213.333,204.8h-25.6c-18.825,0-34.133-15.309-34.133-34.133V153.6c0-9.412,7.654-17.067,17.067-17.067h68.267
	c4.71,0,8.533,3.823,8.533,8.533v25.6C247.467,189.491,232.158,204.8,213.333,204.8z M170.667,153.6v17.067
	c0,9.412,7.654,17.067,17.067,17.067h25.6c9.412,0,17.067-7.654,17.067-17.067V153.6H170.667z"/>
    <path d="M315.733,204.8h-25.6c-18.825,0-34.133-15.309-34.133-34.133v-25.6c0-4.71,3.823-8.533,8.533-8.533H332.8
	c9.412,0,17.067,7.654,17.067,17.067v17.067C349.867,189.491,334.558,204.8,315.733,204.8z M273.067,153.6v17.067
	c0,9.412,7.654,17.067,17.067,17.067h25.6c9.412,0,17.067-7.654,17.067-17.067V153.6H273.067z"/>
    <rect x="238.933" y="136.533" width="25.6" height="17.067"/>
    <circle cx="204.8" cy="162.133" r="17.067"/>
    <circle cx="307.2" cy="162.133" r="17.067"/>
    <g>
</g>
    <g>
</g>
    <g>
</g>
    <g>
</g>
    <g>
</g>
    <g>
</g>
    <g>
</g>
    <g>
</g>
    <g>
</g>
    <g>
</g>
    <g>
</g>
    <g>
</g>
    <g>
</g>
    <g>
</g>
    <g>
</g>
</svg>
