<?xml version="1.0" encoding="iso-8859-1"?>
<!-- Generator: Adobe Illustrator 19.0.0, SVG Export Plug-In . SVG Version: 6.00 Build 0)  -->
<svg version="1.1" id="Capa_1" xmlns="http://www.w3.org/2000/svg" x="0px"
     y="0px"
     viewBox="0 0 512 512" style="enable-background:new 0 0 512 512;" xml:space="preserve">
<path style="fill:#FECB66;" d="M256.384,8.533c-45.397,0-76.8,8.533-102.4,59.733c-17.067,34.133-8.533,145.067-8.533,145.067V384
	h221.44V136.533C364.757,61.099,341.291,8.533,256.384,8.533z"/>
    <path style="fill:#F5AD76;" d="M244.437,8.533c-38.059,1.963-65.877,13.653-88.747,59.733
	c-17.067,34.133-8.533,145.067-8.533,145.067V384h99.072C217.216,226.987,235.733,69.12,244.437,8.533z"/>
    <path style="fill:#FEDAC6;" d="M255.957,401.067c31.044,0.017,59.11-18.483,71.339-47.019l3.755-8.533l-17.067-2.133
	c-8.585-1.084-15.002-8.414-14.933-17.067V281.6h-85.76v44.629c0.068,8.653-6.349,15.983-14.933,17.067l-17.493,2.133l3.755,8.533
	C196.821,382.532,224.896,401.067,255.957,401.067z"/>
    <path style="fill:#F5C4B0;"
          d="M298.624,320.341V281.6h-85.333v38.741C245.291,336.981,266.624,336.981,298.624,320.341z"/>
    <path style="fill:#FEDAC6;" d="M145.024,443.733v-93.867l-23.381,2.901c-25.788,3.2-45.082,25.216-44.885,51.2V512h51.2
	c-0.009-22.451,5.222-44.604,15.275-64.683L145.024,443.733z"/>
    <path style="fill:#74A32E;" d="M366.891,443.733v-93.867l-35.84-4.523l-3.755,8.533c-16.939,39.398-62.609,57.609-102.007,40.67
	c-18.261-7.851-32.811-22.409-40.67-40.67l-3.755-8.533l-35.84,4.523v93.867l-1.792,3.584
	c-10.052,20.079-15.283,42.231-15.275,64.683h256c0.009-22.451-5.222-44.604-15.275-64.683L366.891,443.733z"/>
    <path style="fill:#FEDAC6;" d="M390.272,352.768l-23.381-2.901v93.867l1.792,3.584c10.052,20.079,15.283,42.231,15.275,64.683h51.2
	V403.627C435.183,377.771,415.932,355.96,390.272,352.768z"/>
    <path style="fill:#F5C4B0;" d="M76.757,403.627V512h25.6V359.509C86.588,368.614,76.843,385.417,76.757,403.627z"/>
    <path style="fill:#FECB66;" d="M349.824,145.067c-21.547-22.315-38.886-48.333-51.2-76.8
	c-36.873,61.568-90.027,111.77-153.6,145.067c0,0-8.533-110.933,8.533-145.067c25.6-51.2,57.429-59.733,102.4-59.733l0,0
	c85.333,0,108.373,52.565,110.933,128V153.6"/>
    <path style="fill:#F5AD76;" d="M145.024,213.333c75.179-37.632,128-93.867,153.6-145.067
	c-65.963,59.733-102.4,93.867-155.563,99.072C143.488,193.109,145.024,213.333,145.024,213.333z"/>
    <path style="fill:#FEDAC6;" d="M349.824,145.067c-21.547-22.315-38.886-48.333-51.2-76.8
	c-32.444,54.11-77.431,99.618-131.157,132.693c-1.536,0.939-0.939,1.707-0.939,1.707v10.752
	c2.15,47.787,41.591,85.385,89.429,85.248l0,0c47.77,0,87.074-37.606,89.173-85.333L349.824,145.067z"/>
    <path style="fill:#F5C4B0;" d="M162.091,196.267l0.427,17.067c1.536,34.133,30.464,62.72,59.733,76.8
	c-17.067-34.133-34.133-68.267-25.6-110.933C187.691,187.733,162.091,196.267,162.091,196.267z"/>
    <path style="fill:#FEDAC6;" d="M358.357,145.067h-17.067v51.2h17.067c14.14,0,25.6-11.46,25.6-25.6
	C383.957,156.527,372.497,145.067,358.357,145.067z"/>
    <path style="fill:#688E26;" d="M137.515,460.8c-6.229,16.358-9.463,33.698-9.557,51.2h56.747
	C151.339,498.005,140.757,475.648,137.515,460.8z"/>
    <circle cx="307.157" cy="162.133" r="17.067"/>
    <path d="M253.261,221.431l-25.6-8.533c-2.603-0.87-4.625-2.935-5.444-5.547c-0.819-2.62-0.324-5.47,1.323-7.663l25.6-34.133
	l13.653,10.24l-18.492,24.661l14.37,4.787L253.261,221.431z"/>
    <path d="M85.291,512H68.224V403.627c-0.23-30.251,22.281-55.927,52.369-59.665l76.8-9.557c4.275-0.538,7.484-4.207,7.458-8.533
	v-35.738h17.067v35.669c0.102,12.919-9.532,23.927-22.4,25.532l-76.809,9.557c-21.495,2.671-37.572,21.018-37.41,42.667V512H85.291z
	"/>
    <path d="M443.776,512h-17.067V404.053c0.171-21.717-15.915-40.055-37.402-42.735l-76.8-9.549
	c-12.885-1.621-22.519-12.629-22.417-25.6v-36.036h17.067v36.096c-0.034,4.395,3.174,8.055,7.467,8.602l76.783,9.549
	c30.089,3.738,52.599,29.423,52.369,59.733L443.776,512L443.776,512z"/>
    <path d="M358.357,204.8h-8.533v-17.067h8.533c9.412,0,17.067-7.654,17.067-17.067c0-9.412-7.654-17.067-17.067-17.067h-8.533
	v-17.067h8.533c18.825,0,34.133,15.309,34.133,34.133S377.182,204.8,358.357,204.8z"/>
    <path d="M256,409.6c-0.034,0-0.068,0-0.094,0c-34.483,0-65.545-20.48-79.13-52.19l-5.461-12.706l15.684-6.733l5.461,12.715
	c10.897,25.421,35.806,41.847,63.454,41.847c0.026,0,0.051,0,0.077,0c27.665,0,52.574-16.418,63.471-41.839l5.461-12.723
	l15.684,6.733l-5.461,12.715C321.562,389.12,290.492,409.6,256,409.6z"/>
    <path d="M255.957,307.2c-52.471,0-95.386-41.071-97.698-93.491l-0.435-17.229l17.058-0.427l0.427,17.067
	c1.911,43.11,37.333,77.013,80.649,77.013s78.746-33.903,80.649-77.175l4.702-76.945l17.033,1.041l-4.693,76.8
	C351.351,266.138,308.437,307.2,255.957,307.2z"/>
    <path d="M245.402,247.467c-0.009,0-0.017,0-0.026,0h-6.485V230.4h6.485c0.009,0,0.017,0,0.026,0c11.17,0,22.349-2.637,32.341-7.637
	l7.637,15.266C273.033,244.207,259.209,247.467,245.402,247.467z"/>
    <path d="M145.024,221.867c-1.425,0-2.85-0.358-4.13-1.067c-2.509-1.391-4.156-3.951-4.378-6.81
	c-0.358-4.625-8.508-113.698,9.412-149.538C172.877,10.547,206.677,0,255.957,0c101.794,0,117.308,72.815,119.458,136.243
	l0.009,17.357h-17.067v-17.067c-2.884-84.77-32.546-119.467-102.4-119.467c-44.612,0-71.509,8.508-94.763,55.014
	c-11.537,23.066-10.505,90.743-8.516,127.351c57.062-32.452,104.806-79.095,138.633-135.552c1.63-2.748,4.642-4.352,7.876-4.13
	c3.2,0.213,6.007,2.193,7.279,5.129c11.938,27.614,28.595,52.599,49.51,74.266l-12.279,11.853
	c-18.645-19.311-34.116-41.088-46.14-64.913c-37.171,56.815-88.252,103.236-148.557,134.818
	C147.738,221.542,146.381,221.867,145.024,221.867z"/>
    <rect x="358.357" y="196.267" width="17.067" height="153.6"/>
    <rect x="136.491" y="204.8" width="17.067" height="145.067"/>
    <path d="M119.424,512c0-23.654,5.589-47.343,16.179-68.497l0.887-1.783v-91.853h17.067v93.867c0,1.323-0.307,2.637-0.896,3.814
	l-1.792,3.584c-9.412,18.799-14.379,39.851-14.379,60.868H119.424L119.424,512z"/>
    <path d="M392.491,512h-17.067c0.009-21.018-4.958-42.061-14.379-60.868l-1.792-3.584c-0.589-1.186-0.896-2.492-0.896-3.814v-93.867
	h17.067v91.853l0.887,1.783C386.91,464.666,392.499,488.354,392.491,512z"/>
    <g>
</g>
    <g>
</g>
    <g>
</g>
    <g>
</g>
    <g>
</g>
    <g>
</g>
    <g>
</g>
    <g>
</g>
    <g>
</g>
    <g>
</g>
    <g>
</g>
    <g>
</g>
    <g>
</g>
    <g>
</g>
    <g>
</g>
</svg>
